<svg xmlns="http://www.w3.org/2000/svg" viewBox="0 0 250.42 250.42"><defs><style>.cls-1,.cls-3,.cls-4{fill:none;}.cls-1,.cls-2,.cls-4{stroke:#60c091;stroke-width:3px;}.cls-1{stroke-miterlimit:10;}.cls-2{fill:#60c091;}</style></defs><title>Group 1457</title><g id="Layer_2" data-name="Layer 2"><g id="Layer_1-2" data-name="Layer 1"><g id="Group_1457" data-name="Group 1457"><g id="collaboration_o_m" data-name="collaboration o m"><g id="exec"><path id="Path_213" data-name="Path 213" class="cls-1" d="M143.64,152.58l4.67-2.51,5.3-3,9.65,3.44,9.5-3.52,5.35,3,11.1,5.94v18.14H143.64"/><ellipse id="Ellipse_41" data-name="Ellipse 41" class="cls-1" cx="163.26" cy="125.11" rx="12.93" ry="16.36"/></g><g id="exec-2"><path id="Path_214" data-name="Path 214" class="cls-1" d="M115.4,136.24l8.93,5,18.5,9.9v30.24H56.32V151.15l18.34-9.85,8.83-4.94,16.08,5.74Z"/><ellipse id="Ellipse_42" data-name="Ellipse 42" class="cls-1" cx="99.58" cy="105.31" rx="21.56" ry="27.27"/></g><path id="Path_215" data-name="Path 215" class="cls-1" d="M182.55,68.2c0,11.92-13.05,21.59-29.15,21.59-3,0-5,.1-5,.1l-10.09,10.68-.7-14.21c-8-3.84-13.39-10.54-13.39-18.16,0-11.92,13.06-21.59,29.16-21.59S182.55,56.28,182.55,68.2Z"/><circle id="Ellipse_43" data-name="Ellipse 43" class="cls-2" cx="154.06" cy="69.1" r="4.72"/><circle id="Ellipse_44" data-name="Ellipse 44" class="cls-2" cx="167.51" cy="69.1" r="4.72"/><circle id="Ellipse_45" data-name="Ellipse 45" class="cls-2" cx="138.92" cy="69.1" r="4.72"/></g><g id="Group_1446" data-name="Group 1446"><g id="Ellipse_34" data-name="Ellipse 34"><circle class="cls-3" cx="125.21" cy="125.21" r="125.21"/><circle class="cls-4" cx="125.21" cy="125.21" r="123.71"/></g></g></g></g></g></svg>