<svg enable-background="new 0 0 150.6 150.6" viewBox="0 0 150.6 150.6" xmlns="http://www.w3.org/2000/svg" xmlns:xlink="http://www.w3.org/1999/xlink"><clipPath id="a"><path d="m0 0h150.6v150.6h-150.6z"/></clipPath><g clip-path="url(#a)" fill="none" stroke="#48d597" stroke-miterlimit="10" stroke-width="3"><g transform="translate(39.835 40.066)"><path d="m0 73.7v-9.9l15-8.1 7.2-4 13.2 4.7 13-4.8 7.3 4.1 15.2 8.1v9.9"/><ellipse cx="35.5" cy="22.4" rx="17.7" ry="22.4"/></g><path d="m0 62.4v22.4h16.3c1.5 7.7 4.6 14.9 9 21.4l-11.7 11.7 15.9 15.9 11.7-11.8c6.4 4.3 13.6 7.2 21.2 8.7v16.9h22.4v-17c7.5-1.5 14.6-4.4 21-8.7l12.1 12.1 15.9-15.9-12.2-12.1c4.3-6.3 7.2-13.4 8.7-20.9l17.2.1v-22.5h-17.1c-1.4-7.5-4.3-14.6-8.5-21l12-12-15.9-15.9-11.9 11.9c-6.4-4.3-13.6-7.4-21.1-9v-16.7h-22.3v16.4c-7.6 1.4-14.8 4.3-21.3 8.5l-.2.2-11.6-11.5-15.8 15.8 11.5 11.5c-4.4 6.4-7.5 13.7-9 21.4z" transform="translate(1.5 1.5)"/></g></svg>