<?xml version="1.0" encoding="utf-8"?>
<!-- Generator: Adobe Illustrator 23.0.4, SVG Export Plug-In . SVG Version: 6.00 Build 0)  -->
<svg version="1.1" id="Layer_1" xmlns="http://www.w3.org/2000/svg" xmlns:xlink="http://www.w3.org/1999/xlink" x="0px" y="0px"
	 viewBox="0 0 87 100.5" style="enable-background:new 0 0 87 100.5;" xml:space="preserve">
<style type="text/css">
	.st0{fill:none;stroke:#48D597;stroke-width:2;stroke-miterlimit:10;}
</style>
<title>bug</title>
<g>
	<g id="Layer_1-2">
		<path class="st0" d="M60.5,40.5h-34l-7.2,8.4v23.7c0,12.8,11,23.2,24.4,23.2S68,85.3,68,72.6V48.9L60.5,40.5z"/>
		<path class="st0" d="M56.8,33.8v-4.4c0-6.4-6.5-11.1-13.3-11.1S30.2,23,30.2,29.4v4.4"/>
		<path class="st0" d="M34.7,20.5L25.8,0.6"/>
		<path class="st0" d="M52.4,20.5l8.9-19.9"/>
		<path class="st0" d="M19.1,49.3l-8.8-6.7L5.9,27.2"/>
		<path class="st0" d="M19.1,80.3L10.3,87l-2.2,13.2"/>
		<path class="st0" d="M19.1,60.4L5.9,64.8L1.4,80.3"/>
		<path class="st0" d="M67.9,49.3l8.9-6.7l4.4-15.5"/>
		<path class="st0" d="M67.9,80.3l8.9,6.7l2.2,13.3"/>
		<path class="st0" d="M67.9,60.4l13.3,4.4l4.4,15.5"/>
		<path class="st0" d="M43.5,49.3v46.5"/>
	</g>
</g>
</svg>
