<svg height="100.684" viewBox="0 0 82 100.684" width="82" xmlns="http://www.w3.org/2000/svg"><g fill="none" stroke="#48d597" stroke-miterlimit="10" stroke-width="3" transform="translate(-81.514 -245.831)"><path d="m116.7 338.621h-33.686v-91.29h42.367v58.042"/><path d="m97.376 325.161h13.46v13.46h-13.46z"/><path d="m92.038 255.605v11.012"/><path d="m115.287 255.605v11.012"/><path d="m107.537 255.605v11.012"/><path d="m99.788 255.605v11.012"/><path d="m92.038 272.736v11.012"/><path d="m115.287 272.736v11.012"/><path d="m107.537 272.736v11.012"/><path d="m99.788 272.736v11.012"/><path d="m92.038 289.866v11.012"/><path d="m115.287 289.866v11.012"/><path d="m107.537 289.866v11.012"/><path d="m99.788 289.866v11.012"/><path d="m92.038 308.22v11.012"/><path d="m115.287 308.22v11.012"/><path d="m107.537 308.22v11.012"/><path d="m99.788 308.22v11.012"/><path d="m147.328 338.809 2.98-1.6 2.129-1.191 3.876 1.383 3.815-1.413 2.151 1.207 4.459 2.385v7.288h-15.619" transform="translate(-4.724 -6.511)"/><ellipse cx="151.59" cy="319.802" rx="5.195" ry="6.572"/><path d="m140.175 335.982 3.073 1.725 6.369 3.407v10.412h-29.785v-10.412l6.314-3.389 3.042-1.7 5.537 1.975z" transform="translate(-2.704 -6.511)"/><ellipse cx="132.023" cy="316.97" rx="7.421" ry="9.388"/></g></svg>