<svg xmlns="http://www.w3.org/2000/svg" width="88.683" height="88.683" viewBox="0 0 88.683 88.683">
  <g id="globe_o_m" transform="translate(-88.334 -260.3)">
    <circle id="Ellipse_70" data-name="Ellipse 70" cx="40.574" cy="40.574" r="40.574" transform="translate(89.915 342.904) rotate(-86.823)" fill="none" stroke="#48d597" stroke-miterlimit="10" stroke-width="3"/>
    <path id="Path_317" data-name="Path 317" d="M162.988,317.715c-1.94-.838-4.836-.678-6.522-1.965-1.937-1.479-1.767-3.272-4.646-4.29a9.591,9.591,0,0,1-2.917-1.112c-.839-.511-1.495-1.468-2.541-1.676-.972-.194-2.206.573-3.391.372-.48-.082-1.479-1.134-1.69-1.134.142,0-.77,1.659-1.216.784-.189-.369.948-.5.322-.934-1.1-.766-3.181,2.655-3.807,2.912a20.967,20.967,0,0,1-4.3-.609c-1.7-1.188.057-2.569-.492-3.6-.848-1.6-3.244-.432-3.741-1.256-.609-1.011,1.863-3.251,1.272-4-1.477-1.861-2.639,1.5-3.03,1.638-1.916.664-3.5.394-4.194-1.506-.635-1.738.183-4.758,1.559-5.676.862-.574,4.564-.323,4.566-.007-.01-1.385,1.72-1.018,2.709-.515,1.053.535.628.354,1.409,1.223.37.412.175,2.586,1.357,2.364,1.25-.232-.342-2.915-.316-3.349.106-1.78.667-1.576,1.751-2.826.145-.167,2.961-3.21,1.141-3.21a4.7,4.7,0,0,0,.384.844c-1.35,0,2.829-3.423,2.6-3.177.119-.126,1.522-3.331,2.86-2.438.235.156-1.318.638-.515,1.2.215.151,3.422-2.324,2.2-2.407-.873.267-1.677,1.789-2.088-.3.021.1-.9.056-.909.054-.073-.036.947-.281.84-.6-.369-1.085-2.383.923-2.566.738-.568-.558,2.658-1.739,2.717-1.766,1.3-.582,3.371-.294,2.483-2.194-.138-.3-1.609-.644-1.887-.857-1.034-.791-1.8-1.8-2.782-2.689,1.82,1.649-3.4,1.048-1.7-.032-.758.472-1.63-.936-2.591-.591-1.614.579.123,2.054.067,2.878-.01.14-1.585,2.963-1.054,2.931-.553.033-.716-1.01-1.159-1.282a22.421,22.421,0,0,0-2.3-1.325c-3.831-1.849-1.751-3,1.225-4.973-.056.038,2.5-1.779,2.252-1.984.338.28.938,1.244,1.452,1.129,0-.135.4.959.093,1.089a1.382,1.382,0,0,0-1.2.3c.467-.637,3.468,1.854,4.231,1.276a4.987,4.987,0,0,1-1.065-.794c.216.052,1.323.731,1.469.658.605-.3-1.529-1.9-1.48-1.748-.11-.349,3.2,1.138-.457-1.264-.407-.267-2.174-2.055-3.54-2.055-.162,0,.479.506.526.487-1.144.455-.665-.436-1.547.446-.234.234-.5-1.086.1-1.009-2.406-.306-.2,3.167-1.033,2.75-1.321-.845-.354-3.086-.141-2.8-.627-.841-5.757,2.6-5.893,2.589.166-1.125-.9-.215-1.435-.815a.726.726,0,0,0,.538-.326c-.157-.4-1.477-.866-1.381-1.011-.2.087-.2-.212-.279-.387-.2.126-.518.1-.4.07a15.421,15.421,0,0,0-2.054.052c-.359-.36-.344-1.528-.31-1.989-.711-1.3-3.532.854-3.554.832-.3-.292-1.634.381-1.533.521,0,.174.417.458.489.27-.275.708-1.066.382-1,.148-.546-.545-2.659,1.654-2.943,2.042.47.074.472.2.452.418a7.9,7.9,0,0,1-3.155.983c0,.548,4.451-1.108,4.513-1.088a1.772,1.772,0,0,1-.626.492c0,.492,1.444-.318,1.44-.317,1.206-.209-.668,6.7-.7,6.739-.37.432.176,1.452.584,1.623a19.749,19.749,0,0,0-2.6,3.837,7.545,7.545,0,0,0-.691,4.584,25.161,25.161,0,0,0,1.159,2.414,14.785,14.785,0,0,1,.1,3.228c.107.531,2.132,3.841,2.122,3.865.3-.7-2.617-6.105-1.308-6.519.126-.039,3.324,7.471,3.587,8.106s-.664.475-.291,1.167a7.185,7.185,0,0,0,1.524,1.43c1.395,1.241,3.343,1.46,4.884,2.091a33.269,33.269,0,0,1,5.1,2.208c1.156.774,1.164,2.029,2.034,2.823a12.5,12.5,0,0,0,1.992.979c1.65.628,1.723,1.5,1.705.125-.033-1.5,2.28,1.095,2.233,2.3-.08,2.039-1.564,2.2-2.194,4-1.26,3.612.164,5.669,2.909,9.123,1.375,1.73,3.812,2.038,4.128,4.474a11.1,11.1,0,0,1-.726,3.363c-.714,2.334-1.605,5.615-3.081,7.43-.134.167,1-.552.986-.562.121.119-.682,1.5-.773,1.469a2.978,2.978,0,0,0,.1-.535c.156.362-1.969.6-.564.958-.34-.089-.871,1.053-.766,1.2.142-.051.286-.094.432-.131,0,1.218-.364-.442.281.317.032.037-.581.143-.519.2a4.7,4.7,0,0,0,.5.159,1.865,1.865,0,0,1-.4,0c-.16.164,3.872.94,3.872.286,0,.024-1.5-.334-1.5-.487a3.168,3.168,0,0,1,.477-.027,8.358,8.358,0,0,1,1.918-1.573s-.919-.149-.811-.353a11.55,11.55,0,0,1,2.438-1.595q-.368.378-.669-.011c.034.344,5.615-3.382,5.554-3.342,2.252-1.49,3.725-1.982,5.517-4.036,2.124-2.434,5.421-3.647,6.667-6.857C160.3,325.552,164.286,318.274,162.988,317.715Z" transform="translate(-0.738 -0.219)" fill="#48d597"/>
  </g>
</svg>
