<svg height="118.69" viewBox="0 0 118.689 118.69" width="118.689" xmlns="http://www.w3.org/2000/svg" xmlns:xlink="http://www.w3.org/1999/xlink"><clipPath id="a"><path d="m0 0h118.69v118.69h-118.69z"/></clipPath><g clip-path="url(#a)"><path d="m0 0h29.092v115.69h-29.092z" fill="none" stroke="#48d597" stroke-miterlimit="10" stroke-width="3" transform="translate(88.098 1.5)"/><path d="m0 .228 66.064-.228" fill="#48d597" stroke="#48d597" stroke-miterlimit="10" stroke-width="3" transform="translate(31.921 89.361)"/><path d="m744.117 318.3 11.895-7.957-12.065-7.043z" fill="#48d597" transform="translate(-648.519 -220.999)"/><path d="m0 0h29.092v115.69h-29.092z" fill="none" stroke="#48d597" stroke-miterlimit="10" stroke-width="3" transform="translate(1.5 1.5)"/><g fill="#48d597"><circle cx="3.588" cy="3.588" r="3.588" transform="translate(12.74 11.274)"/><circle cx="3.588" cy="3.588" r="3.588" transform="translate(12.74 24.805)"/><circle cx="3.588" cy="3.588" r="3.588" transform="translate(12.74 38.336)"/><circle cx="3.588" cy="3.588" r="3.588" transform="translate(99.338 11.274)"/><circle cx="3.588" cy="3.588" r="3.588" transform="translate(99.338 24.805)"/><circle cx="3.588" cy="3.588" r="3.588" transform="translate(99.338 38.336)"/><path d="m66.064 0-66.064.228" stroke="#48d597" stroke-miterlimit="10" stroke-width="3" transform="translate(20.702 67.061)"/><path d="m713.3 292.577-11.9 7.957 12.065 7.043z" transform="translate(-692.533 -232.6)"/></g><path d="m0 0h29.092v115.69h-29.092z" fill="none" stroke="#48d597" stroke-miterlimit="10" stroke-width="3" transform="translate(44.799 1.5)"/><circle cx="3.588" cy="3.588" fill="#48d597" r="3.588" transform="translate(56.039 11.274)"/><circle cx="3.588" cy="3.588" fill="#48d597" r="3.588" transform="translate(56.039 24.805)"/><circle cx="3.588" cy="3.588" fill="#48d597" r="3.588" transform="translate(56.039 38.336)"/></g></svg>