<?xml version="1.0" encoding="utf-8"?>
<!-- Generator: Adobe Illustrator 23.0.4, SVG Export Plug-In . SVG Version: 6.00 Build 0)  -->
<svg version="1.1" id="Layer_1" xmlns="http://www.w3.org/2000/svg" xmlns:xlink="http://www.w3.org/1999/xlink" x="0px" y="0px"
	 viewBox="0 0 111.2 117.5" style="enable-background:new 0 0 111.2 117.5;" xml:space="preserve">
<style type="text/css">
	.st0{fill:none;stroke:#60C091;stroke-width:3;stroke-miterlimit:10;}
	.st1{fill:#60C091;}
</style>
<title>server</title>
<g id="server_o_m">
	<rect id="Rectangle_314" x="1.5" y="1.5" class="st0" width="108.2" height="31.6"/>
	<rect id="Rectangle_315" x="1.5" y="43" class="st0" width="108.2" height="31.6"/>
	<rect id="Rectangle_316" x="1.5" y="84.4" class="st0" width="108.2" height="31.6"/>
	<g id="Group_1403">
		<path id="Path_158" class="st1" d="M39,100.1L39,100.1c0.1-2.1,1.9-3.8,4-3.8c2.2,0,3.9,1.7,4,3.9s-1.7,3.9-3.9,4H43
			C40.8,104.1,39.1,102.3,39,100.1z"/>
		<path id="Path_159" class="st1" d="M27.3,100.1L27.3,100.1c0.1-2.1,1.9-3.8,4-3.8c2.2,0,3.9,1.7,4,3.9s-1.7,3.9-3.9,4h-0.1
			C29.1,104.2,27.3,102.4,27.3,100.1C27.3,100.1,27.3,100.1,27.3,100.1z"/>
		<path id="Path_160" class="st1" d="M15.6,100.1L15.6,100.1c0-2.2,1.8-3.9,4-3.8h0.1c2.2,0,3.9,1.7,4,3.9c0,2.2-1.7,3.9-3.9,4h-0.1
			c-2.2,0-3.9-1.7-4-3.8C15.6,100.3,15.6,100.2,15.6,100.1z"/>
	</g>
	<g id="Group_1404">
		<path id="Path_161" class="st1" d="M39,58.7L39,58.7c0.1-2.1,1.9-3.8,4-3.8c2.1,0,3.8,1.7,3.8,3.8c0.1,2.1-1.6,3.9-3.8,4H43
			C40.9,62.6,39.1,60.8,39,58.7z"/>
		<path id="Path_162" class="st1" d="M27.3,58.7L27.3,58.7c0.1-2.1,1.9-3.8,4-3.8c2.1,0,3.8,1.7,3.8,3.8c0.1,2.1-1.6,3.9-3.8,4h-0.1
			C29.1,62.7,27.3,60.9,27.3,58.7z"/>
		<path id="Path_163" class="st1" d="M15.6,58.7L15.6,58.7c0-2.1,1.8-3.9,3.9-3.8c0,0,0,0,0,0h0.1c2.1,0,3.8,1.7,3.8,3.8
			c0.1,2.1-1.6,3.9-3.8,4h-0.1c-2.2,0-3.9-1.7-4-3.8C15.6,58.8,15.6,58.7,15.6,58.7z"/>
	</g>
	<g id="Group_1405">
		<path id="Path_164" class="st1" d="M39,17.2L39,17.2c0.1-2.1,1.9-3.8,4-3.8c2.1,0,3.8,1.7,3.8,3.8c0.1,2.1-1.6,3.9-3.8,4H43
			C40.9,21.1,39.1,19.4,39,17.2z"/>
		<path id="Path_165" class="st1" d="M27.3,17.2L27.3,17.2c0.1-2.1,1.9-3.8,4-3.8c2.1,0,3.8,1.7,3.8,3.8c0.1,2.1-1.6,3.9-3.8,4h-0.1
			C29.1,21.2,27.3,19.4,27.3,17.2z"/>
		<path id="Path_166" class="st1" d="M15.6,17.2L15.6,17.2c0-2.1,1.8-3.9,3.9-3.8c0,0,0,0,0,0h0.1c2.1,0,3.8,1.7,3.8,3.8
			c0.1,2.1-1.6,3.9-3.8,4h-0.1c-2.2,0-4-1.7-4-3.8C15.6,17.3,15.6,17.2,15.6,17.2z"/>
	</g>
</g>
</svg>
