<svg enable-background="new 0 0 112 84.8" viewBox="0 0 112 84.8" xmlns="http://www.w3.org/2000/svg"><path d="m88.9 77.1-23.1-19.2c1.5-5.4-1.6-11.1-7.1-12.6-2.7-.8-5.6-.4-8 1.1-5.2-4-9.9-7.5-9.9-7.5l-5 2.8-.1 6s4.6 2.9 10 6.3c-.7 5.5 3.3 10.7 8.9 11.3 2.4.3 4.8-.3 6.9-1.6z" fill="#60c091"/><g fill="none" stroke="#60c091" stroke-miterlimit="10" stroke-width="3"><path d="m1.5 54.3v1.7c0 9.9 2.7 19.7 7.8 28.1"/><path d="m16.6 18.3c-7.7 8-12.7 18.2-14.4 29.2"/><path d="m51.6 1.6c-11.3.9-22 5.3-30.6 12.6"/><path d="m91 14.2c-9.1-7.7-20.4-12.1-32.2-12.7"/><path d="m109.8 47.5c-1.7-11.1-6.8-21.3-14.6-29.4"/><path d="m103 83.5c4.9-8.4 7.5-17.9 7.5-27.6 0-.6 0-1.1 0-1.7"/></g></svg>