<?xml version="1.0" encoding="utf-8"?>
<!-- Generator: Adobe Illustrator 23.0.4, SVG Export Plug-In . SVG Version: 6.00 Build 0)  -->
<svg version="1.1" id="Layer_1" xmlns="http://www.w3.org/2000/svg" xmlns:xlink="http://www.w3.org/1999/xlink" x="0px" y="0px"
	 viewBox="0 0 112 84.8" style="enable-background:new 0 0 112 84.8;" xml:space="preserve">
<style type="text/css">
	.st0{fill:#60C091;}
	.st1{fill:none;stroke:#60C091;stroke-width:3;stroke-miterlimit:10;}
</style>
<title>speed</title>
<g>
	<g id="Layer_1-2">
		<g id="speed_o_m">
			<path vector-effect="non-scaling-stroke" id="Path_194" class="st0" d="M88.9,77.1L65.8,57.9c1.5-5.4-1.6-11.1-7.1-12.6c-2.7-0.8-5.6-0.4-8,1.1
				c-5.2-4-9.9-7.5-9.9-7.5l-5,2.8l-0.1,6c0,0,4.6,2.9,10,6.3C45,59.5,49,64.7,54.6,65.3c2.4,0.3,4.8-0.3,6.9-1.6L88.9,77.1z"/>
			<path vector-effect="non-scaling-stroke" id="Path_195" class="st1" d="M1.5,54.3c0,0.5,0,1.1,0,1.7c0,9.9,2.7,19.7,7.8,28.1"/>
			<path vector-effect="non-scaling-stroke" id="Path_196" class="st1" d="M16.6,18.3c-7.7,8-12.7,18.2-14.4,29.2"/>
			<path vector-effect="non-scaling-stroke" id="Path_197" class="st1" d="M51.6,1.6C40.3,2.5,29.6,6.9,21,14.2"/>
			<path vector-effect="non-scaling-stroke" id="Path_198" class="st1" d="M91,14.2C81.9,6.5,70.6,2.1,58.8,1.5"/>
			<path vector-effect="non-scaling-stroke" id="Path_199" class="st1" d="M109.8,47.5c-1.7-11.1-6.8-21.3-14.6-29.4"/>
			<path vector-effect="non-scaling-stroke" id="Path_200" class="st1" d="M103,83.5c4.9-8.4,7.5-17.9,7.5-27.6c0-0.6,0-1.1,0-1.7"/>
		</g>
	</g>
</g>
</svg>
