<svg xmlns="http://www.w3.org/2000/svg" viewBox="0 0 112 84.85"><defs><style>.cls-1{fill:#60c091;}.cls-2{fill:none;stroke:#60c091;stroke-miterlimit:10;stroke-width:3px;}</style></defs><title>speed</title><g id="Layer_2" data-name="Layer 2"><g id="Layer_1-2" data-name="Layer 1"><g id="speed_o_m" data-name="speed o m"><path id="Path_194" data-name="Path 194" class="cls-1" d="M88.9,77.07,65.77,57.87A10.25,10.25,0,0,0,50.64,46.3c-5.2-4-9.92-7.53-9.92-7.53l-5,2.85-.07,6s4.63,2.93,10,6.3a10.25,10.25,0,0,0,15.8,9.82Z"/><path id="Path_195" data-name="Path 195" class="cls-2" d="M1.53,54.27c0,.55,0,1.1,0,1.66A54.09,54.09,0,0,0,9.33,84.07"/><path id="Path_196" data-name="Path 196" class="cls-2" d="M16.56,18.32A54.37,54.37,0,0,0,2.14,47.53"/><path id="Path_197" data-name="Path 197" class="cls-2" d="M51.58,1.61A54.24,54.24,0,0,0,21,14.17"/><path id="Path_198" data-name="Path 198" class="cls-2" d="M91,14.18A54.23,54.23,0,0,0,58.76,1.5"/><path id="Path_199" data-name="Path 199" class="cls-2" d="M109.85,47.53A54.22,54.22,0,0,0,95.28,18.16"/><path id="Path_200" data-name="Path 200" class="cls-2" d="M103,83.51a54.26,54.26,0,0,0,7.5-27.58c0-.56,0-1.11,0-1.66"/></g></g></g></svg>