<svg enable-background="new 0 0 138.6 136.2" viewBox="0 0 138.6 136.2" xmlns="http://www.w3.org/2000/svg" xmlns:xlink="http://www.w3.org/1999/xlink"><clipPath id="a"><path d="m0 0h138.6v136.2h-138.6z"/></clipPath><g clip-path="url(#a)" fill="none" stroke="#48d597" stroke-miterlimit="10" stroke-width="3"><path d="m127.9 103.8-60.7-60.5c-1.1-1.1-2.4-2.1-3.8-2.9 2.2-10.3-1-21-8.5-28.4-9.2-9.1-23-11.7-34.8-6.5l20.1 20c2.8 2.8 2.9 7.4 0 10.2l-6.6 6.5c-2.9 2.8-7.5 2.8-10.3 0l-19.7-19.5c-6.2 16.1 1.8 34.1 17.9 40.3 5.6 2.2 11.8 2.7 17.7 1.4l8.4 9.3 55.3 55.1c6.9 6.9 18.1 6.9 25 0 6.9-6.8 6.9-18 0-25"/><path d="m85.8 33.6c3.6-3.6 22.5-23.4 28.7-29 6.3-5.7 16.4-2 18.9.4 2.1 2.1 6.7 12.9.7 18.9s-28.7 28.2-28.7 28.2"/><path d="m38.2 93-14.8 14.6-8.2 1.2-13.2 20.1 5.2 5.3 19.8-13.1 1.4-7.8 15.3-14.6"/></g></svg>