<svg enable-background="new 0 0 30 30" height="30" viewBox="0 0 30 30" width="30" xmlns="http://www.w3.org/2000/svg" xmlns:xlink="http://www.w3.org/1999/xlink"><clipPath id="a"><path d="m1.071 6.047h27.857v17.906h-27.857z"/></clipPath><path clip-path="url(#a)" d="m1.799 18.43c0-2.159 1.444-4.035 3.484-4.613-.01-.11-.014-.219-.014-.329 0-1.947 1.584-3.529 3.53-3.529.698 0 1.372.205 1.945.587 1.211-2.309 3.602-3.77 6.239-3.77 3.886 0 7.047 3.162 7.047 7.047v.014c2.336.273 4.169 2.286 4.169 4.678 0 2.597-2.113 4.711-4.71 4.711h-16.894c-2.646 0-4.796-2.151-4.796-4.796" fill="none" stroke="#48d597" stroke-miterlimit="10" stroke-width="1.4568"/></svg>