<?xml version="1.0" encoding="utf-8"?>
<!-- Generator: Adobe Illustrator 23.0.4, SVG Export Plug-In . SVG Version: 6.00 Build 0)  -->
<svg version="1.1" id="Layer_1" xmlns="http://www.w3.org/2000/svg" xmlns:xlink="http://www.w3.org/1999/xlink" x="0px" y="0px"
	 viewBox="0 0 99.5 99.8" style="enable-background:new 0 0 99.5 99.8;" xml:space="preserve">
<style type="text/css">
	.st0{fill:none;stroke:#48D597;stroke-width:3;stroke-miterlimit:10;}
	.st1{fill:#48D597;}
</style>
<title>apps</title>
<g id="businesscontinuity_x5F_m">
	<g>
		<g>
			<g>
				<path vector-effect="non-scaling-stroke" class="st0" d="M91.7,63.8C86.3,81.3,70,94,50.7,94s-35.6-12.7-41-30.2"/>
				<g>
					<polygon class="st1" points="17.5,63.7 6.5,53.5 3.2,68.1 					"/>
				</g>
			</g>
		</g>
		<g>
			<g>
				<path vector-effect="non-scaling-stroke" class="st0" d="M9.5,39C14.7,21.2,31.2,8.1,50.7,8.1c19.2,0,35.4,12.6,40.9,29.9"/>
				<g>
					<polygon class="st1" points="83.9,38.2 94.9,48.3 98.1,33.7 					"/>
				</g>
			</g>
		</g>
	</g>
	<g>
		<path class="st1" d="M52.1,73.1v6.3h-3.2V73c-9.6-0.9-16.1-6.3-17-16.2l5.4-0.9c1.1,7.5,5,11.2,11.6,12v-18
			c-7.7-2.2-15.3-4.8-15.3-12.7c0-7.2,6.5-12.2,15.3-12.4v-5.7h3.2V25c8.5,0.9,14.1,6.1,15.4,13.3l-5.4,1.1c-1.3-5.2-4.4-8.5-10-9.3
			v15.5c8.2,2.4,17.1,5.3,17.1,14.8C69.2,67.8,62.4,73.1,52.1,73.1z M48.9,44.7V29.9c-5.8,0.1-10,2.8-10,7.2
			C38.8,41.2,43.3,43.1,48.9,44.7z M63.9,60.5c0-5.5-5.5-7.7-11.8-9.6v17.2C59.5,68.1,63.9,65.1,63.9,60.5z"/>
	</g>
</g>
</svg>
