<svg xmlns="http://www.w3.org/2000/svg" xmlns:xlink="http://www.w3.org/1999/xlink" width="250.422" height="250.422" viewBox="0 0 250.422 250.422">
  <defs>
    <clipPath id="clip-path">
      <rect width="250.422" height="250.422" fill="none"/>
    </clipPath>
  </defs>
  <g id="Component_80_1" data-name="Component 80 – 1" clip-path="url(#clip-path)">
    <g id="Group_1449" data-name="Group 1449">
      <g id="Ellipse_34" data-name="Ellipse 34" transform="translate(0 0)" fill="none" stroke="#fff" stroke-width="3">
        <circle cx="125.211" cy="125.211" r="125.211" stroke="none"/>
        <circle cx="125.211" cy="125.211" r="123.711" fill="none"/>
      </g>
    </g>
    <g id="speed_o_m" transform="translate(-37.856 -30.815)">
      <path id="Path_218" data-name="Path 218" d="M179.138,160.218l-32.329-26.839A14.336,14.336,0,0,0,125.651,117.2c-7.263-5.546-13.871-10.53-13.871-10.53l-6.93,3.992-.1,8.314s6.476,4.095,14.017,8.806a14.32,14.32,0,0,0,22.08,13.728Z" transform="translate(30.111 32.829)" fill="#48d597"/>
      <path id="Path_219" data-name="Path 219" d="M87.1,114.69q-.036,1.151-.035,2.314a75.736,75.736,0,0,0,10.957,39.351" transform="translate(0 46.482)" fill="none" stroke="#48d597" stroke-miterlimit="10" stroke-width="5"/>
      <path id="Path_220" data-name="Path 220" d="M107.547,96.094A75.953,75.953,0,0,0,87.4,136.928" transform="translate(0.567 14.816)" fill="none" stroke="#48d597" stroke-miterlimit="10" stroke-width="5"/>
      <path id="Path_221" data-name="Path 221" d="M139.92,87.449a75.842,75.842,0,0,0-42.778,17.563" transform="translate(17.156 0.095)" fill="none" stroke="#48d597" stroke-miterlimit="10" stroke-width="5"/>
      <path id="Path_222" data-name="Path 222" d="M161.794,105.121a75.863,75.863,0,0,0-45.108-17.728" transform="translate(50.436 0)" fill="none" stroke="#48d597" stroke-miterlimit="10" stroke-width="5"/>
      <path id="Path_223" data-name="Path 223" d="M155.944,137.073a75.968,75.968,0,0,0-20.369-41.064" transform="translate(82.601 14.672)" fill="none" stroke="#48d597" stroke-miterlimit="10" stroke-width="5"/>
      <path id="Path_224" data-name="Path 224" d="M139.565,155.562A75.762,75.762,0,0,0,150.047,117q0-1.164-.035-2.314" transform="translate(89.396 46.482)" fill="none" stroke="#48d597" stroke-miterlimit="10" stroke-width="5"/>
    </g>
  </g>
</svg>
