<svg viewBox="0 0 250.42 250.42" xmlns="http://www.w3.org/2000/svg"><circle cx="125.21" cy="125.21" fill="none" r="125.21"/><circle cx="125.21" cy="125.21" fill="none" r="123.71" stroke="#60c091" stroke-width="3"/><path d="m171.39 162.23-32.33-26.84a14.34 14.34 0 0 0 -21.15-16.18c-7.27-5.54-13.87-10.53-13.87-10.53l-6.93 4-.11 8.32s6.47 4.09 14 8.81a14.32 14.32 0 0 0 22.08 13.72z" fill="#60c091"/><g fill="none" stroke="#60c091" stroke-miterlimit="10" stroke-width="3"><path d="m49.24 130.36v2.31a75.71 75.71 0 0 0 11 39.35"/><path d="m70.26 80.09a76 76 0 0 0 -20.15 40.84"/><path d="m119.22 56.73a75.91 75.91 0 0 0 -42.78 17.56"/><path d="m174.37 74.31a75.8 75.8 0 0 0 -45.1-17.73"/><path d="m200.69 120.93a75.91 75.91 0 0 0 -20.37-41.06"/><path d="m191.11 171.23a75.79 75.79 0 0 0 10.48-38.56c0-.78 0-1.55 0-2.32"/></g></svg>