<svg xmlns="http://www.w3.org/2000/svg" viewBox="0 0 94.23 99.55"><defs><style>.cls-1{fill:none;stroke:#60c091;stroke-miterlimit:10;stroke-width:3px;}.cls-2{fill:#60c091;}</style></defs><title>server</title><g id="Layer_2" data-name="Layer 2"><g id="Layer_1-2" data-name="Layer 1"><g id="server_o_m" data-name="server o m"><rect id="Rectangle_314" data-name="Rectangle 314" class="cls-1" x="1.5" y="1.5" width="91.23" height="26.61"/><rect id="Rectangle_315" data-name="Rectangle 315" class="cls-1" x="1.5" y="36.47" width="91.23" height="26.61"/><rect id="Rectangle_316" data-name="Rectangle 316" class="cls-1" x="1.5" y="71.44" width="91.23" height="26.61"/><g id="Group_1403" data-name="Group 1403"><path id="Path_158" data-name="Path 158" class="cls-2" d="M33.16,84.66h0a3.4,3.4,0,0,1,3.41-3.23,3.32,3.32,0,0,1,.06,6.63h-.06A3.43,3.43,0,0,1,33.16,84.66Z"/><path id="Path_159" data-name="Path 159" class="cls-2" d="M23.27,84.66h0a3.38,3.38,0,0,1,3.4-3.23,3.25,3.25,0,0,1,3.24,3.23,3.29,3.29,0,0,1-3.17,3.4h-.07A3.42,3.42,0,0,1,23.27,84.66Z"/><path id="Path_160" data-name="Path 160" class="cls-2" d="M13.38,84.66h0a3.28,3.28,0,0,1,3.33-3.23h.07a3.32,3.32,0,0,1,.07,6.63h-.07a3.31,3.31,0,0,1-3.4-3.23Z"/></g><g id="Group_1404" data-name="Group 1404"><path id="Path_161" data-name="Path 161" class="cls-2" d="M33.16,49.69h0a3.4,3.4,0,0,1,3.41-3.23,3.32,3.32,0,0,1,.06,6.63h-.06A3.43,3.43,0,0,1,33.16,49.69Z"/><path id="Path_162" data-name="Path 162" class="cls-2" d="M23.27,49.69h0a3.38,3.38,0,0,1,3.4-3.23,3.25,3.25,0,0,1,3.24,3.23,3.29,3.29,0,0,1-3.17,3.4h-.07A3.42,3.42,0,0,1,23.27,49.69Z"/><path id="Path_163" data-name="Path 163" class="cls-2" d="M13.38,49.69h0a3.28,3.28,0,0,1,3.33-3.23h.07a3.32,3.32,0,0,1,.07,6.63h-.07a3.31,3.31,0,0,1-3.4-3.23Z"/></g><g id="Group_1405" data-name="Group 1405"><path id="Path_164" data-name="Path 164" class="cls-2" d="M33.16,14.72h0a3.4,3.4,0,0,1,3.41-3.23,3.25,3.25,0,0,1,3.24,3.23,3.29,3.29,0,0,1-3.18,3.4h-.06A3.43,3.43,0,0,1,33.16,14.72Z"/><path id="Path_165" data-name="Path 165" class="cls-2" d="M23.27,14.72h0a3.38,3.38,0,0,1,3.4-3.23,3.24,3.24,0,0,1,3.24,3.23,3.29,3.29,0,0,1-3.17,3.4h-.07A3.42,3.42,0,0,1,23.27,14.72Z"/><path id="Path_166" data-name="Path 166" class="cls-2" d="M13.38,14.72h0a3.28,3.28,0,0,1,3.33-3.23h.07A3.25,3.25,0,0,1,20,14.72a3.29,3.29,0,0,1-3.17,3.4h-.07a3.32,3.32,0,0,1-3.4-3.23Z"/></g></g></g></g></svg>