<svg enable-background="new 0 0 139.9 135.5" viewBox="0 0 139.9 135.5" xmlns="http://www.w3.org/2000/svg"><g fill="none"><g stroke="#48d597" stroke-miterlimit="10" stroke-width="3"><g transform="translate(1.5 1.5)"><path d="m78.1 123.1h-78.1v-123.1h88.9v67.6"/><path d="m57.4 121.1v-25.3h-23.2v25.2"/></g><path d="m20.4 54.9h51.3"/><path d="m20.4 71h51.3"/><path d="m20.4 38.7h51.3"/><path d="m20.4 22.6h51.3"/></g><g transform="translate(-685.438 -29.054)"><g stroke="#48d597" stroke-miterlimit="10" stroke-width="3"><path d="m765.6 135.9v15.4c.6 6.6 11.6 11.8 28.4 11.8s29.2-5.3 29.8-11.8v-16.8"/><path d="m765.6 118.1v18.2c.6 6.6 12.7 11.8 29.1 11.8s28.5-5.3 29.1-11.8v-16.8"/><path d="m767.6 106.8-2 3.3v9.7c.6 6.6 13.4 11.8 29.1 11.8s28.5-5.3 29.1-11.8v-9.7l-1.7-3.3"/></g><ellipse cx="794.738" cy="106.796" rx="29.8" ry="11.7"/><ellipse cx="794.738" cy="106.796" rx="28.3" ry="10.2" stroke="#48d597" stroke-miterlimit="10" stroke-width="3"/></g></g></svg>