<?xml version="1.0" encoding="utf-8"?>
<!-- Generator: Adobe Illustrator 23.0.4, SVG Export Plug-In . SVG Version: 6.00 Build 0)  -->
<svg version="1.1" id="Layer_1" xmlns="http://www.w3.org/2000/svg" xmlns:xlink="http://www.w3.org/1999/xlink" x="0px" y="0px"
	 viewBox="0 0 225 160" style="enable-background:new 0 0 225 160;" xml:space="preserve">
<style type="text/css">
	.st0{fill:none;stroke:#48D597;stroke-width:4;stroke-linejoin:round;stroke-dasharray:2,3;}
	.st1{fill:none;stroke:#48D597;stroke-width:3;stroke-linejoin:round;}
	.st2{fill:#48D597;}
</style>
<g id="data2_m" transform="translate(-779.688 -460.17)">
	<line vector-effect="non-scaling-stroke" id="Line_396" class="st0" x1="817.2" y1="543.2" x2="966.7" y2="543.2"/>
	<circle  id="Ellipse_93" class="st1" cx="809.3" cy="542.7" r="10.7"/>
	<circle  id="Ellipse_94" class="st1" cx="975.1" cy="542.7" r="10.7"/>
	<circle  id="Ellipse_95" class="st1" cx="926.7" cy="502.7" r="10.7"/>
	<circle  id="Ellipse_96" class="st1" cx="898.4" cy="577.7" r="10.7"/>
	<circle  id="Ellipse_97" class="st2" cx="874.9" cy="543.2" r="3.9"/>
	<circle  id="Ellipse_98" class="st2" cx="849.9" cy="543.2" r="3.9"/>
	<circle  id="Ellipse_99" class="st2" cx="834.3" cy="543.2" r="3.9"/>
	<circle  id="Ellipse_100" class="st2" cx="908.3" cy="543.2" r="3.9"/>
	<circle  id="Ellipse_101" class="st2" cx="917.6" cy="543.2" r="3.9"/>
	<circle  id="Ellipse_102" class="st2" cx="941.6" cy="543.2" r="3.9"/>
	<circle  id="Ellipse_103" class="st2" cx="941.6" cy="577.7" r="3.9"/>
	<circle  id="Ellipse_104" class="st2" cx="941.6" cy="559.9" r="3.9"/>
	<circle  id="Ellipse_105" class="st2" cx="917.6" cy="577.7" r="3.9"/>
	<circle  id="Ellipse_106" class="st2" cx="874.9" cy="503.2" r="3.9"/>
	<circle  id="Ellipse_107" class="st2" cx="874.9" cy="519.9" r="3.9"/>
	<circle  id="Ellipse_108" class="st2" cx="899.9" cy="503.2" r="3.9"/>
	<line  id="Line_397" class="st0" x1="874.9" y1="509.3" x2="874.9" y2="541"/>
	<line  id="Line_398" class="st0" x1="917.7" y1="502.7" x2="876.6" y2="502.7"/>
	<line  id="Line_399" class="st0" x1="941.6" y1="569.7" x2="941.6" y2="545.6"/>
	<line  id="Line_400" class="st0" x1="907.4" y1="577.7" x2="938.3" y2="577.7"/>
</g>
</svg>
