<?xml version="1.0" encoding="utf-8"?>
<!-- Generator: Adobe Illustrator 23.0.4, SVG Export Plug-In . SVG Version: 6.00 Build 0)  -->
<svg version="1.1" id="Layer_1" xmlns="http://www.w3.org/2000/svg" xmlns:xlink="http://www.w3.org/1999/xlink" x="0px" y="0px"
	 viewBox="0 0 225 160" style="enable-background:new 0 0 225 160;" xml:space="preserve">
<style type="text/css">
	.st0{fill:none;stroke:#48D597;stroke-width:3;stroke-miterlimit:10;}
</style>
<g id="handshake_m" transform="translate(-456.786 -454.049)">
	<path vector-effect="non-scaling-stroke" id="Path_441" class="st0" d="M475,537.3c1.4,0.5,10.3,6.1,10.3,6.1l5.2-7.8l15.2,10.2l23.3-42.8l-14.9-9.3l2.2-5.1
		l-20.6-13.8"/>
	<line vector-effect="non-scaling-stroke" id="Line_401" class="st0" x1="514" y1="493.6" x2="490.5" y2="535.6"/>
	<path vector-effect="non-scaling-stroke" id="Path_442" class="st0" d="M663.6,537.3c-1.4,0.5-10.3,6.1-10.3,6.1l-5.2-7.8L633,545.7l-23.3-42.8l14.9-9.3l-2.2-5.1
		l20.6-13.8"/>
	<line vector-effect="non-scaling-stroke" id="Line_402" class="st0" x1="624.6" y1="493.6" x2="648.1" y2="535.6"/>
	<path vector-effect="non-scaling-stroke" id="Path_443" class="st0" d="M610.8,505.8c0,0-4.2,2.8-12.5,0.9s-10.7-4.6-21.8-3.7c-11.1,0.9-15.3,1.9-15.3,1.9
		c-4.4,0.6-8.4,2.9-11.1,6.5c-4.6,6-9.3,15.8-9.3,15.8s-5.6,8.8,8.4,5.6s12.1-10.2,12.1-10.2l8.8-2.3c17.7,9,34.3,19.9,49.7,32.5
		c0,0,9.7,11.6-6.5,12.1l-26.5-15.3"/>
	<path vector-effect="non-scaling-stroke" id="Path_444" class="st0" d="M529.5,506.6c6.7,2.1,13.5,3.7,20.5,4.8"/>
	<path vector-effect="non-scaling-stroke" id="Path_445" class="st0" d="M611.2,566.3c0,0,0.9,8.7-9.7,8.7l-22.7-13"/>
	<path vector-effect="non-scaling-stroke" id="Path_446" class="st0" d="M601.5,577.3c0,0-1.9,8.4-8.8,7.4l-20.4-9.7"/>
	<path vector-effect="non-scaling-stroke" id="Path_447" class="st0" d="M589,586.1c0,0-3.7,7.4-15.3,4.6l-8.8-2.8"/>
	<line vector-effect="non-scaling-stroke" id="Line_403" class="st0" x1="509.1" y1="542" x2="516.6" y2="551.8"/>
	<path vector-effect="non-scaling-stroke" id="Path_448" class="st0" d="M515.6,557.8c0,0-2.8,8.8,8.4,9.7l7.8-10c0,0-0.4-9.7-8-8.5c-1.5,0.3-2.8,1.2-3.6,2.4
		L515.6,557.8z"/>
	<path vector-effect="non-scaling-stroke" id="Path_449" class="st0" d="M524,567.6c0,0-2.8,11.1,10.7,10.7l14.9-19.5c0,0,1.4-11.1-11.6-9.3l-6.1,8.1"/>
	<path vector-effect="non-scaling-stroke" id="Path_450" class="st0" d="M534.7,578.2c0,0,1.5,8.9,10.6,7.6l12.6-16.2c0,0,3-7.4-8.4-10.9"/>
	<path vector-effect="non-scaling-stroke" id="Path_451" class="st0" d="M547.3,583.5c0.2,0.5,1.4,11.9,11.4,9l6-8.1c1.9-2.5,2-6,0.3-8.7c-1.4-2.3-3.8-3.9-6.5-4.3"/>
	<path vector-effect="non-scaling-stroke" id="Path_452" class="st0" d="M630.3,544.2c0,0-7,7.1-10.8,8.5"/>
</g>
</svg>
