<?xml version="1.0" encoding="utf-8"?>
<!-- Generator: Adobe Illustrator 23.0.4, SVG Export Plug-In . SVG Version: 6.00 Build 0)  -->
<svg version="1.1" id="Layer_1" xmlns="http://www.w3.org/2000/svg" xmlns:xlink="http://www.w3.org/1999/xlink" x="0px" y="0px"
	 viewBox="0 0 100 100" style="enable-background:new 0 0 100 100;" xml:space="preserve">
<style type="text/css">
	.st0{fill:none;stroke:#48D597;stroke-width:3;stroke-miterlimit:10;}
	.st1{fill:#48D597;}
</style>
<g id="help_o_m" transform="translate(-386.217 -50.568)">
	<circle vector-effect="non-scaling-stroke" id="Ellipse_85" class="st0" cx="436.2" cy="100.6" r="37.7"/>
	<g id="Group_1538" transform="translate(409.885 63.296)">
		<path vector-effect="non-scaling-stroke" id="Path_426" class="st1" d="M22.7,46.2c0-4.7,2.3-8,7.6-11c5.7-3.4,8-6.1,8-10.4c0-4.8-4.1-8-9.1-8
			c-7.8,0-11.5,4.5-12,11.5L10.8,28c0.2-9.9,7.1-17.2,18.3-17.2c8.3,0,15.5,5.7,15.5,14c0,6.6-3.6,10.6-10.8,14.7
			c-3.8,2.3-5,3.9-5,7.2v4.4h-6.1L22.7,46.2z M21.4,56.8h9.1v8.9h-9.1V56.8z"/>
	</g>
</g>
</svg>
