<?xml version="1.0" encoding="utf-8"?>
<!-- Generator: Adobe Illustrator 23.0.4, SVG Export Plug-In . SVG Version: 6.00 Build 0)  -->
<svg version="1.1" id="Layer_1" xmlns="http://www.w3.org/2000/svg" xmlns:xlink="http://www.w3.org/1999/xlink" x="0px" y="0px"
	 viewBox="0 0 100 100" style="enable-background:new 0 0 100 100;" xml:space="preserve">
<style type="text/css">
	.st0{fill:none;stroke:#48D597;stroke-width:3;stroke-linecap:round;stroke-linejoin:round;}
	.st1{fill:none;stroke:#48D597;stroke-width:3;}
	.st2{fill:#48D597;}
</style>
<g id="SAP_o_m" transform="translate(-84.805 -443.454)">
	<path id="Path_458" class="st0" d="M127.2,530.5c0,4.3,3.4,7.7,7.7,7.7c4.3,0,7.7-3.4,7.7-7.7c0-4.3-3.4-7.7-7.7-7.7
		C130.6,522.8,127.2,526.2,127.2,530.5z"/>
	<path id="Path_459" class="st0" d="M142.6,456.4c0-4.3-3.4-7.7-7.7-7.7s-7.7,3.4-7.7,7.7s3.4,7.7,7.7,7.7
		C139.1,464.1,142.6,460.7,142.6,456.4z"/>
	<path id="Path_460" class="st0" d="M171.8,501.6c4.3,0,7.7-3.4,7.7-7.7c0-4.3-3.4-7.7-7.7-7.7c-4.3,0-7.7,3.4-7.7,7.7
		C164.1,498.1,167.6,501.6,171.8,501.6z"/>
	<circle id="Ellipse_115" class="st0" cx="97.8" cy="494" r="7.7"/>
	<path id="Path_461" class="st0" d="M154.6,520.7c0,4.3,3.4,7.7,7.7,7.7s7.7-3.4,7.7-7.7c0-2-0.8-4-2.3-5.4l0,0c-3-3-7.9-3-10.9,0
		C155.4,516.7,154.6,518.6,154.6,520.7L154.6,520.7z"/>
	<path id="Path_462" class="st0" d="M156.7,472.2c3,3,7.9,3,10.9,0c3-3,3-7.9,0-10.9s-7.9-3-10.9,0c0,0,0,0,0,0l0,0
		C153.7,464.3,153.7,469.2,156.7,472.2z"/>
	<path id="Path_463" class="st0" d="M115.2,466.8c0-4.3-3.4-7.7-7.7-7.7c-4.3,0-7.7,3.4-7.7,7.7c0,2,0.8,4,2.3,5.5l0,0
		c3,3,7.9,3,10.9,0C114.4,470.8,115.2,468.8,115.2,466.8L115.2,466.8z"/>
	<path id="Path_464" class="st0" d="M102,527.3c3,3,7.9,3,10.9,0l0,0c3-3,3-7.9,0-10.9s-7.9-3-10.9,0C99,519.4,99,524.3,102,527.3
		C102,527.3,102,527.3,102,527.3z"/>
	<path id="Path_465" class="st1" d="M117.5,513.4h33.9v-15.9h-33.9V513.4L117.5,513.4z"/>
	<path id="Path_466" class="st1" d="M117.5,491.7h33.9v-15.9h-33.9V491.7L117.5,491.7z"/>
	<path id="Path_467" class="st2" d="M143.8,485c0-1-0.8-1.8-1.8-1.8s-1.8,0.8-1.8,1.8c0,1,0.8,1.8,1.8,1.8c0,0,0,0,0,0
		C143,486.8,143.8,486,143.8,485z"/>
	<path id="Path_468" class="st2" d="M140.2,505.5c0,1,0.8,1.8,1.8,1.8c1,0,1.8-0.8,1.8-1.8c0-1-0.8-1.8-1.8-1.8c0,0,0,0,0,0
		C141,503.7,140.2,504.5,140.2,505.5C140.2,505.5,140.2,505.5,140.2,505.5z"/>
</g>
</svg>
