<svg height="78.748" viewBox="0 0 64.581 78.748" width="64.581" xmlns="http://www.w3.org/2000/svg"><g fill="none" stroke="#48d597" stroke-miterlimit="10" stroke-width="3" transform="translate(-716.586 -261.752)"><path d="m726.234 290.678h-8.149v-7.836h8.149v-9.795l-8.149-.979v-8.815h40.163v8.815h-6.985v11.1h6.985v7.183h-14.548v17.957h-25.614v-7.57l8.44-.254"/><path d="m779.667 339h-17.753v-19.916h17.753v9.016"/><path d="m752.978 300.147h9.604v10.774h-9.604z"/><path d="m751.609 334.284h-13.97v-15.672h13.97v7.836"/><path d="m726.234 290.678h-8.149v-7.836h8.149v-9.795l-8.149-.979v-8.815h40.163v8.815h-6.985v11.1h6.985v7.183h-14.548v17.957h-25.614v-7.57l8.44-.254z"/><path d="m752.978 300.147h9.604v10.774h-9.604z"/><path d="m751.609 334.284h-13.97v-15.672h13.97z"/><path d="m779.667 339h-17.753v-19.916h17.753z"/></g></svg>