<svg height="250.422" viewBox="0 0 250.422 250.422" width="250.422" xmlns="http://www.w3.org/2000/svg" xmlns:xlink="http://www.w3.org/1999/xlink"><clipPath id="a"><path d="m0 0h250.422v250.422h-250.422z"/></clipPath><clipPath id="b"><path d="m0 0h150.578v150.578h-150.578z"/></clipPath><g clip-path="url(#a)" fill="none" stroke-width="3"><g stroke="#fff"><circle cx="125.211" cy="125.211" r="125.211" stroke="none"/><circle cx="125.211" cy="125.211" fill="none" r="123.711"/></g><g clip-path="url(#b)" stroke="#48d597" stroke-miterlimit="10" transform="translate(49.5 49.5)"><path d="m114.578 517.034v-9.924l15.033-8.07 7.241-4.049 13.181 4.7 12.974-4.805 7.316 4.114 15.165 8.11v9.926" transform="translate(-74.743 -403.235)"/><ellipse cx="17.667" cy="22.35" rx="17.667" ry="22.35" transform="translate(57.627 40.066)"/><path d="m95.662 512.836v22.418l16.288.028a57.763 57.763 0 0 0 8.994 21.356l-11.7 11.7 15.856 15.852 11.785-11.79a57.792 57.792 0 0 0 21.21 8.656v16.924h22.418v-17.029a57.91 57.91 0 0 0 20.969-8.661l12.118 12.11 15.852-15.852-12.166-12.166a57.8 57.8 0 0 0 8.714-20.915l17.238.081v-22.418l-17.119-.018a57.787 57.787 0 0 0 -8.5-21.026l12.04-12.04-15.85-15.852-11.859 11.857a59.336 59.336 0 0 0 -21.141-8.98v-16.669h-22.418v16.448a57.8 57.8 0 0 0 -21.261 8.55l-.243.164-11.58-11.58-15.852 15.852 11.5 11.5a57.455 57.455 0 0 0 -9 21.4z" transform="translate(-94.162 -448.903)"/></g></g></svg>