<svg height="250.422" viewBox="0 0 250.422 250.422" width="250.422" xmlns="http://www.w3.org/2000/svg" xmlns:xlink="http://www.w3.org/1999/xlink"><clipPath id="a"><path d="m0 0h250.422v250.422h-250.422z"/></clipPath><g clip-path="url(#a)"><g fill="none" stroke-width="3"><g stroke="#fff"><circle cx="125.211" cy="125.211" r="125.211" stroke="none"/><circle cx="125.211" cy="125.211" fill="none" r="123.711"/></g><circle cx="81.343" cy="81.343" r="81.343" stroke="#48d597" stroke-miterlimit="10" transform="translate(43.999 44)"/><path d="m179.729 96.893c-25.835 0-53.751 24.749-66.357 61.144-8.845 25.531-8.441 52.2 1.084 71.342 5.638 11.332 14.069 19.145 24.39 22.6 28.676 9.591 63.914-16.964 78.541-59.185 8.845-25.533 8.441-52.2-1.084-71.344-5.638-11.332-14.069-19.145-24.39-22.6a38.257 38.257 0 0 0 -12.184-1.957z" stroke="#48d597" stroke-linecap="round" stroke-linejoin="round" transform="translate(-39.792 -49.571)"/><path d="m178.5 97.8c-10.515 0-30.914 27.023-45.708 69.514-11.886 34.129-15.836 66.655-9.616 79.1 1.077 2.151 2.406 3.5 3.952 4.016 9.876 3.285 31.768-24.343 47.4-69.25 11.886-34.127 15.836-66.653 9.616-79.1-1.077-2.149-2.406-3.5-3.952-4.014a5.319 5.319 0 0 0 -1.692-.266z" stroke="#48d597" stroke-linecap="round" stroke-linejoin="round" transform="translate(-28.07 -48.767)"/><path d="m114.929 103.333c12.248 15.891 31.665 29.132 53.909 36.652 22.273 7.527 45.819 8.79 65.3 3.6" stroke="#48d597" stroke-linecap="round" stroke-linejoin="round" transform="translate(-32.784 -43.869)"/><path d="m216.984 195.018c-12.248-15.885-31.661-29.123-53.9-36.64-22.267-7.525-45.811-8.788-65.3-3.6" stroke="#48d597" stroke-linecap="round" stroke-linejoin="round" transform="translate(-47.963 -1.097)"/><path d="m0 0 152.033 51.384" stroke="#48d597" stroke-linecap="round" stroke-linejoin="round" transform="translate(47.835 106.064)"/></g><ellipse cx="8.666" cy="8.607" fill="#48d597" rx="8.666" ry="8.607" transform="translate(85.195 63.766)"/><ellipse cx="10.405" cy="10.333" fill="#48d597" rx="10.405" ry="10.333" transform="translate(60.46 103.687)"/><ellipse cx="7.434" cy="7.383" fill="#48d597" rx="7.434" ry="7.383" transform="translate(167.886 142.682)"/><ellipse cx="9.724" cy="9.657" fill="#48d597" rx="9.724" ry="9.657" transform="translate(173.891 92.629)"/><ellipse cx="6.519" cy="6.474" fill="#48d597" rx="6.519" ry="6.474" transform="translate(149.814 94.112)"/><ellipse cx="7.188" cy="7.138" fill="#48d597" rx="7.188" ry="7.138" transform="translate(89.64 144.595)"/></g></svg>