<svg height="250.422" viewBox="0 0 250.422 250.422" width="250.422" xmlns="http://www.w3.org/2000/svg" xmlns:xlink="http://www.w3.org/1999/xlink"><clipPath id="a"><path d="m0 0h250.422v250.422h-250.422z"/></clipPath><clipPath id="b"><path d="m0 0h138.621v136.18h-138.621z"/></clipPath><g clip-path="url(#a)" fill="none" stroke-width="3"><g stroke="#fff"><circle cx="125.211" cy="125.211" r="125.211" stroke="none"/><circle cx="125.211" cy="125.211" fill="none" r="123.711"/></g><g clip-path="url(#b)" stroke="#48d597" stroke-miterlimit="10" transform="translate(55.476 57.486)"><path d="m213.428 337.867-60.756-60.544a17.736 17.736 0 0 0 -3.842-2.892 31.032 31.032 0 0 0 -8.474-28.438 31.344 31.344 0 0 0 -34.712-6.468l20.064 20.019a7.235 7.235 0 0 1 0 10.281l-6.566 6.542a7.3 7.3 0 0 1 -10.321 0l-19.688-19.6a31.168 31.168 0 0 0 35.582 41.708l8.377 9.3 55.268 55.079a17.694 17.694 0 1 0 25.068-24.979" transform="translate(-85.509 -234.038)"/><path d="m119.618 268.266c3.573-3.573 22.545-23.386 28.742-29.048 6.266-5.725 16.418-1.989 18.867.381 2.138 2.07 6.665 12.9.657 18.868s-28.655 28.153-28.655 28.153" transform="translate(-33.779 -234.681)"/><path d="m123.423 272.69-14.754 14.576-8.191 1.246-13.178 20.12 5.164 5.342 19.766-13.174 1.425-7.834 15.283-14.566" transform="translate(-85.257 -179.736)"/></g></g></svg>