<svg enable-background="new 0 152.708 1024 206.584" height="206.584" viewBox="0 152.708 1024 206.584" width="1024" xmlns="http://www.w3.org/2000/svg"><g fill="#fff"><g transform="translate(-240.48753 -383.04713)"><path d="m258.994 698.768c6.864 9.72 15.338 18.195 25.057 25.061l34.228-59.292z"/><path d="m284.051 554.257c-9.727 6.856-18.203 15.333-25.057 25.062l59.285 34.215z"/><path d="m387.345 544.915c-10.792-5.015-22.375-8.115-34.23-9.161v68.453z"/><path d="m300.206 733.166c10.798 5.013 22.383 8.116 34.241 9.173v-68.469z"/><path d="m428.57 579.319c-6.854-9.729-15.331-18.206-25.058-25.062l-34.226 59.276z"/><path d="m403.508 723.828c9.721-6.861 18.195-15.338 25.054-25.061l-59.28-34.231z"/><path d="m447.068 629.703c-1.062-11.852-4.157-23.433-9.149-34.234l-59.307 34.234z"/><path d="m240.488 648.367c1.051 11.851 4.148 23.43 9.153 34.223l59.311-34.223z"/><path d="m249.641 595.469c-5.003 10.798-8.1 22.381-9.153 34.234h68.464z"/><path d="m378.612 648.367 59.307 34.223c5.007-10.792 8.104-22.371 9.149-34.223z"/><path d="m334.448 535.755c-11.859 1.042-23.446 4.142-34.241 9.161l34.241 59.292z"/><path d="m353.115 742.339c11.854-1.057 23.436-4.16 34.23-9.173l-34.23-59.295z"/><path d="m422.102 548.208c.018-6.894 5.621-12.468 12.515-12.451 6.894.018 12.469 5.622 12.451 12.516-.018 6.869-5.582 12.432-12.45 12.451-6.909.004-12.512-5.594-12.516-12.502 0-.004 0-.009 0-.014zm22.979 0c-.014-5.796-4.724-10.484-10.521-10.47-5.796.014-10.484 4.725-10.47 10.521.014 5.797 4.724 10.484 10.521 10.471h.008c5.572.208 10.257-4.142 10.464-9.714.01-.269.01-.538-.002-.808zm-13.322 7.071h-1.829v-14.271h6.147c3.72 0 4.984 1.387 4.984 3.946 0 2.751-1.933 3.785-4.415 3.981l4.242 6.344h-2.048l-4.024-6.344h-3.058v6.344zm2.521-8.007c1.998 0 4.788.333 4.788-2.353 0-1.99-1.657-2.263-3.385-2.263h-3.923v4.616z"/><path d="m566.041 615.973c-1.917-9.435-10.582-15.95-20.178-15.174-23.486 0-27.836 21.5-27.836 38.257 0 19.651 5.956 38.212 26.656 38.212 9.828 1.057 18.867-5.478 20.946-15.141h13.841c-1.31 15.959-17.403 26.473-35.975 26.473-28.093 0-39.28-22.918-39.28-49.544 0-23.336 10.256-50.507 42.158-49.585 18.322.53 32.052 9.499 33.489 26.502z"/><path d="m602.656 655.918c-.915 11.612 3.839 23.598 16.608 23.598 7.6 1.202 14.735-3.985 15.937-11.585.097-.613.153-1.232.167-1.854h13.177c-1.987 15.028-13.573 22.522-29.401 22.522-21.223 0-29.657-15.006-29.657-34.516 0-19.378 9.741-35.602 30.698-35.602 19.787.384 29.131 12.915 29.131 31.222v6.213zm33.497-8.673c.254-11.102-4.764-19.674-16.888-19.674-9.688.455-17.173 8.676-16.718 18.364.021.438.057.875.11 1.311h33.496z"/><path d="m674.43 630.21h.258c4.064-7.244 11.725-11.729 20.031-11.728 4.623 0 25.074 1.195 25.074 22.418v45.717h-12.539v-41.647c0-10.943-4.601-16.868-15.175-16.868-4.523-.033-8.878 1.721-12.116 4.88-1.84 1.833-5.276 4.757-5.276 17.672v35.964h-12.53v-66.159h12.273z"/><path d="m739.586 620.435v-14.071l12.53-3.969v18.041h15.294v9.092h-15.294v42.484c0 4.727 3.692 6.971 8.181 6.971 2.212-.004 4.416-.265 6.567-.776v9.618c-2.878.146-5.672.776-8.538.776-2.826.048-5.65-.163-8.438-.63-2.92-.482-5.555-2.04-7.386-4.365-2.243-3.163-2.917-3.417-2.917-12.25v-41.828h-11.32v-9.092h11.321z"/><path d="m822.46 620.458h12.512v66.159h-12.246v-9.73h-.265c-4.867 7.74-13.553 12.226-22.681 11.713-11.975.104-21.768-9.518-21.872-21.493-.007-.788.029-1.575.108-2.358v-44.29h12.538v39.146c0 11.485 2.629 19.912 14.633 19.912 6.399.135 12.242-3.621 14.775-9.499 1.663-5.014 2.506-10.262 2.498-15.544z"/><path d="m864.23 686.616h-12.52v-66.158h12.52v12.772h.276c2.231-8.692 10.428-14.49 19.367-13.699 1.579 0 2.917.146 4.346.146v11.859c-1.746-.532-3.572-.751-5.395-.646-15.832.507-18.595 8.945-18.595 22.933v32.793"/></g><path d="m684.785 328.911h-12.819l10.026-25.585-27.528-65.917h13.938l20.713 52.208 21.122-52.208h13.426z"/><path d="m733.051 303.57v-95.176h20.438v79.381h41.262v15.795z"/><path d="m806.468 208.396h21.097v17.015h-21.097zm.661 29.015h19.774v66.159h-19.774z"/><path d="m865.498 245.054.262.403c4.48-6.741 12.229-10.565 20.305-10.021 6.586 0 19.379 4.857 21.742 14.499.863 3.453 1.313 6.997 1.341 10.556v43.079h-19.786v-39.787c-.119-7.131-2.117-15.151-11.862-15.151-6.206 0-11.601 5.534-11.87 15.151v39.787h-19.766v-66.158h19.636z"/><path d="m948.053 264.198.251.236 19.51-27.804h22.011l-22.806 28.993 24.254 37.947h-23.058l-19.911-36.232-.251.268v35.965h-19.77v-95.176h19.77z"/><path d="m999.035 249.077c.026-6.894 5.637-12.461 12.53-12.435 6.895.027 12.461 5.637 12.435 12.531-.026 6.861-5.585 12.414-12.446 12.435-6.907.007-12.512-5.587-12.519-12.494 0-.011 0-.024 0-.037zm22.979 0c-.021-5.796-4.737-10.477-10.533-10.456s-10.477 4.737-10.455 10.533c.021 5.794 4.734 10.475 10.528 10.456 5.572.206 10.257-4.144 10.463-9.715.009-.273.008-.545-.003-.818zm-13.315 7.078h-1.833v-14.283h6.155c3.712 0 4.969 1.398 4.969 3.954 0 2.755-1.926 3.796-4.411 3.985l4.246 6.344h-2.057l-4.019-6.344h-3.051v6.344zm2.517-8.008c2.002 0 4.787.338 4.787-2.351 0-1.99-1.663-2.26-3.385-2.26h-3.92v4.611z"/></g></svg>