<?xml version="1.0" encoding="utf-8"?>
<!-- Generator: Adobe Illustrator 23.0.4, SVG Export Plug-In . SVG Version: 6.00 Build 0)  -->
<svg version="1.1" id="Layer_1" xmlns="http://www.w3.org/2000/svg" xmlns:xlink="http://www.w3.org/1999/xlink" x="0px" y="0px"
	 viewBox="0 0 100 100" style="enable-background:new 0 0 100 100;" xml:space="preserve">
<style type="text/css">
	.st0{fill:none;stroke:#48D597;stroke-width:3;stroke-miterlimit:10;}
	.st1{fill:#48D597;stroke:#48D597;stroke-width:0.5;stroke-miterlimit:10;}
</style>
<g id="billing_o_m" transform="translate(-92.937 -467.59)">
	<path vector-effect="non-scaling-stroke" id="Path_427" class="st0" d="M171.7,500.3v55.3h-57.5v-76h35.9L171.7,500.3z"/>
	<g id="Group_1539" transform="translate(110.118 487.83)">
		<path vector-effect="non-scaling-stroke" id="Path_428" class="st1" d="M28.9,32.9c-4.3-1.1-7.9-4.1-7.9-8.8c0-4.4,3.7-7.7,7.9-8.4v-5.2h4.4v5.2
			c3.6,0.3,6.6,2.7,8.7,5.4L39,23.8c-2.8-3.1-4.1-3.9-5.7-4.2v10.2c5.1,0.8,9.5,3.8,9.5,9.4c0,5.2-4.6,8.8-9.5,8.9v5.2h-4.4v-5.2
			c-3.9-0.2-7.1-3-9.1-6.2l3.4-2.5c1.4,2.1,2.9,4.4,5.7,4.7L28.9,32.9z M28.9,19.6c-2.5,0.7-4,3.2-3.3,5.7c0.4,1.6,1.7,2.9,3.3,3.3
			V19.6z M33.3,44.2c2.8,0,5.1-2.2,5.1-5c0-2.7-2.5-4.7-5.1-5.1V44.2z"/>
	</g>
</g>
</svg>
