<svg enable-background="new 0 0 100 100" viewBox="0 0 100 100" xmlns="http://www.w3.org/2000/svg"><g stroke="#48d597" stroke-miterlimit="10" transform="translate(-92.937 -467.59)"><path d="m171.7 500.3v55.3h-57.5v-76h35.9z" fill="none" stroke-width="3"/><path d="m28.9 32.9c-4.3-1.1-7.9-4.1-7.9-8.8 0-4.4 3.7-7.7 7.9-8.4v-5.2h4.4v5.2c3.6.3 6.6 2.7 8.7 5.4l-3 2.7c-2.8-3.1-4.1-3.9-5.7-4.2v10.2c5.1.8 9.5 3.8 9.5 9.4 0 5.2-4.6 8.8-9.5 8.9v5.2h-4.4v-5.2c-3.9-.2-7.1-3-9.1-6.2l3.4-2.5c1.4 2.1 2.9 4.4 5.7 4.7zm0-13.3c-2.5.7-4 3.2-3.3 5.7.4 1.6 1.7 2.9 3.3 3.3zm4.4 24.6c2.8 0 5.1-2.2 5.1-5 0-2.7-2.5-4.7-5.1-5.1z" fill="#48d597" stroke-width=".5" transform="translate(110.118 487.83)"/></g></svg>