<?xml version="1.0" encoding="utf-8"?>
<!-- Generator: Adobe Illustrator 23.0.4, SVG Export Plug-In . SVG Version: 6.00 Build 0)  -->
<svg version="1.1" id="Layer_1" xmlns="http://www.w3.org/2000/svg" xmlns:xlink="http://www.w3.org/1999/xlink" x="0px" y="0px"
	 viewBox="0 0 150 150" style="enable-background:new 0 0 150 150;" xml:space="preserve">
<style type="text/css">
	.st0{fill:none;stroke:#48D597;stroke-width:3.3;stroke-miterlimit:10;}
</style>
<g id="cloud_o_m" transform="translate(-372.443 -247.915)">
	<path id="Path_438" class="st0" d="M383.7,339.5c0-10.3,6.9-19.4,16.8-22.3c-0.1-0.5-0.1-1.1-0.1-1.6c0-9.4,7.6-17,17-17
		c3.3,0,6.6,1,9.4,2.8c8.7-16.6,29.3-23,45.9-14.3C484,293,491,304.6,491,317.2v0.1c12.5,1.4,21.4,12.7,20,25.2
		c-1.3,11.5-11,20.1-22.6,20.1h-81.6C394.1,362.6,383.7,352.2,383.7,339.5"/>
</g>
</svg>
