<svg enable-background="new 0 0 225 160" viewBox="0 0 225 160" xmlns="http://www.w3.org/2000/svg"><g fill="none" stroke="#48d597" stroke-linejoin="round"><path d="m37.512 83.03h149.5" stroke-dasharray="2 3" stroke-width="4"/><circle cx="29.612" cy="82.53" r="10.7" stroke-width="3"/><circle cx="195.412" cy="82.53" r="10.7" stroke-width="3"/><circle cx="147.012" cy="42.53" r="10.7" stroke-width="3"/><circle cx="118.712" cy="117.53" r="10.7" stroke-width="3"/></g><g fill="#48d597"><circle cx="95.212" cy="83.03" r="3.9"/><circle cx="70.212" cy="83.03" r="3.9"/><circle cx="54.612" cy="83.03" r="3.9"/><circle cx="128.612" cy="83.03" r="3.9"/><circle cx="137.912" cy="83.03" r="3.9"/><circle cx="161.912" cy="83.03" r="3.9"/><circle cx="161.912" cy="117.53" r="3.9"/><circle cx="161.912" cy="99.73" r="3.9"/><circle cx="137.912" cy="117.53" r="3.9"/><circle cx="95.212" cy="43.03" r="3.9"/><circle cx="95.212" cy="59.73" r="3.9"/><circle cx="120.212" cy="43.03" r="3.9"/></g><path d="m95.212 49.13v31.7" fill="none" stroke="#48d597" stroke-dasharray="2 3" stroke-linejoin="round" stroke-width="4"/><path d="m138.012 42.53h-41.1" fill="none" stroke="#48d597" stroke-dasharray="2 3" stroke-linejoin="round" stroke-width="4"/><path d="m161.912 109.53v-24.1" fill="none" stroke="#48d597" stroke-dasharray="2 3" stroke-linejoin="round" stroke-width="4"/><path d="m127.712 117.53h30.9" fill="none" stroke="#48d597" stroke-dasharray="2 3" stroke-linejoin="round" stroke-width="4"/></svg>