<?xml version="1.0" encoding="utf-8"?>
<!-- Generator: Adobe Illustrator 23.0.4, SVG Export Plug-In . SVG Version: 6.00 Build 0)  -->
<svg version="1.1" id="Layer_1" xmlns="http://www.w3.org/2000/svg" xmlns:xlink="http://www.w3.org/1999/xlink" x="0px" y="0px"
	 viewBox="0 0 150 150" style="enable-background:new 0 0 150 150;" xml:space="preserve">
<style type="text/css">
	.st0{fill:none;stroke:#48D597;stroke-width:3;stroke-miterlimit:10;}
	.st1{fill:#48D597;}
	.st2{fill:none;stroke:#48D597;stroke-width:2.975;stroke-miterlimit:10;}
	.st3{fill:none;stroke:#48D597;stroke-width:3;stroke-linecap:square;stroke-miterlimit:10;}
</style>
<g id="efficiency_o_m" transform="translate(-707.264 -50.647)">
	<path vector-effect="non-scaling-stroke" id="Path_430" class="st0" d="M766,76c27.4-14.2,61.1-3.5,75.3,23.9c14.2,27.4,3.5,61.1-23.9,75.3c-18.6,9.6-41,8.1-58.1-4.1"
		/>
	<circle vector-effect="non-scaling-stroke" id="Ellipse_87" class="st1" cx="791.9" cy="91.2" r="4.7"/>
	<circle vector-effect="non-scaling-stroke" id="Ellipse_88" class="st1" cx="791.9" cy="154.2" r="4.7"/>
	<circle vector-effect="non-scaling-stroke" id="Ellipse_89" class="st1" cx="823.4" cy="122.7" r="4.7"/>
	<path vector-effect="non-scaling-stroke" id="Path_431" class="st2" d="M757.5,130.7l2.5-49.3l-41.5,27l10.6,5.6c-3.3,13,27.7,54.3,27.7,54.3s-14.3-16.1-9.1-43
		L757.5,130.7z"/>
	<line vector-effect="non-scaling-stroke" id="Line_387" class="st0" x1="812.9" y1="95.9" x2="791.7" y2="125.6"/>
	<line vector-effect="non-scaling-stroke" id="Line_388" class="st3" x1="824.9" y1="150.5" x2="791.7" y2="125.6"/>
</g>
</svg>
