<svg enable-background="new 0 0 225 160" viewBox="0 0 225 160" xmlns="http://www.w3.org/2000/svg"><g fill="none" stroke="#48d597" stroke-miterlimit="10" stroke-width="3" transform="translate(-456.786 -454.049)"><path d="m475 537.3c1.4.5 10.3 6.1 10.3 6.1l5.2-7.8 15.2 10.2 23.3-42.8-14.9-9.3 2.2-5.1-20.6-13.8"/><path d="m514 493.6-23.5 42"/><path d="m663.6 537.3c-1.4.5-10.3 6.1-10.3 6.1l-5.2-7.8-15.1 10.1-23.3-42.8 14.9-9.3-2.2-5.1 20.6-13.8"/><path d="m624.6 493.6 23.5 42"/><path d="m610.8 505.8s-4.2 2.8-12.5.9-10.7-4.6-21.8-3.7-15.3 1.9-15.3 1.9c-4.4.6-8.4 2.9-11.1 6.5-4.6 6-9.3 15.8-9.3 15.8s-5.6 8.8 8.4 5.6 12.1-10.2 12.1-10.2l8.8-2.3c17.7 9 34.3 19.9 49.7 32.5 0 0 9.7 11.6-6.5 12.1l-26.5-15.3"/><path d="m529.5 506.6c6.7 2.1 13.5 3.7 20.5 4.8"/><path d="m611.2 566.3s.9 8.7-9.7 8.7l-22.7-13"/><path d="m601.5 577.3s-1.9 8.4-8.8 7.4l-20.4-9.7"/><path d="m589 586.1s-3.7 7.4-15.3 4.6l-8.8-2.8"/><path d="m509.1 542 7.5 9.8"/><path d="m515.6 557.8s-2.8 8.8 8.4 9.7l7.8-10s-.4-9.7-8-8.5c-1.5.3-2.8 1.2-3.6 2.4z"/><path d="m524 567.6s-2.8 11.1 10.7 10.7l14.9-19.5s1.4-11.1-11.6-9.3l-6.1 8.1"/><path d="m534.7 578.2s1.5 8.9 10.6 7.6l12.6-16.2s3-7.4-8.4-10.9"/><path d="m547.3 583.5c.2.5 1.4 11.9 11.4 9l6-8.1c1.9-2.5 2-6 .3-8.7-1.4-2.3-3.8-3.9-6.5-4.3"/><path d="m630.3 544.2s-7 7.1-10.8 8.5"/></g></svg>