<svg enable-background="new 0 0 100 100" viewBox="0 0 100 100" xmlns="http://www.w3.org/2000/svg"><circle cx="49.983" cy="50.032" fill="none" r="37.7" stroke="#48d597" stroke-miterlimit="10" stroke-width="3"/><path d="m22.7 46.2c0-4.7 2.3-8 7.6-11 5.7-3.4 8-6.1 8-10.4 0-4.8-4.1-8-9.1-8-7.8 0-11.5 4.5-12 11.5l-6.4-.3c.2-9.9 7.1-17.2 18.3-17.2 8.3 0 15.5 5.7 15.5 14 0 6.6-3.6 10.6-10.8 14.7-3.8 2.3-5 3.9-5 7.2v4.4h-6.1zm-1.3 10.6h9.1v8.9h-9.1z" fill="#48d597" transform="translate(23.668 12.728)"/></svg>