<?xml version="1.0" encoding="utf-8"?>
<!-- Generator: Adobe Illustrator 23.0.4, SVG Export Plug-In . SVG Version: 6.00 Build 0)  -->
<svg version="1.1" id="Layer_1" xmlns="http://www.w3.org/2000/svg" xmlns:xlink="http://www.w3.org/1999/xlink" x="0px" y="0px"
	 viewBox="0 0 150 150" style="enable-background:new 0 0 150 150;" xml:space="preserve">
<style type="text/css">
	.st0{fill:none;stroke:#48D597;stroke-width:3;stroke-miterlimit:10;}
</style>
<g id="network_alt_o_m" transform="translate(-399.301 -102.438)">
	<g id="Group_1542" transform="translate(401.268 105.023)">
		<g id="Group_1541" transform="translate(44.61 65.064)">
			<circle vector-effect="non-scaling-stroke" id="Ellipse_91" class="st0" cx="32.9" cy="23.7" r="22.4"/>
		</g>
		<line vector-effect="non-scaling-stroke" id="Line_389" class="st0" x1="70.5" y1="6.7" x2="77.5" y2="66.3"/>
		<line vector-effect="non-scaling-stroke" id="Line_390" class="st0" x1="16.9" y1="52.2" x2="55.1" y2="77.5"/>
		<line vector-effect="non-scaling-stroke" id="Line_391" class="st0" x1="60.1" y1="102.9" x2="14.2" y2="139"/>
		<line vector-effect="non-scaling-stroke" id="Line_392" class="st0" x1="100" y1="77.5" x2="131.4" y2="64.3"/>
		<line vector-effect="non-scaling-stroke" id="Line_393" class="st0" x1="117.6" y1="125.7" x2="92.6" y2="105.3"/>
	</g>
	<path vector-effect="non-scaling-stroke" id="Path_433" class="st0" d="M421.5,219.7l-6,24.3l22.8-2.3"/>
	<path vector-effect="non-scaling-stroke" id="Path_434" class="st0" d="M493.8,229.4l25,1.3l-6.6-21.9"/>
	<path vector-effect="non-scaling-stroke" id="Path_435" class="st0" d="M443.2,157.9l-25.1-0.6l7.1,21.7"/>
	<path vector-effect="non-scaling-stroke" id="Path_436" class="st0" d="M518.1,189.8l14.5-20.4l-22-6.2"/>
	<path vector-effect="non-scaling-stroke" id="Path_437" class="st0" d="M488.5,130.3l-16.8-18.6l-10.9,20.1"/>
</g>
</svg>
