<svg enable-background="new 0 0 100 100" viewBox="0 0 100 100" xmlns="http://www.w3.org/2000/svg"><g transform="translate(-84.805 -443.454)"><g fill="none" stroke="#48d597" stroke-width="3"><g stroke-linecap="round" stroke-linejoin="round"><path d="m127.2 530.5c0 4.3 3.4 7.7 7.7 7.7s7.7-3.4 7.7-7.7-3.4-7.7-7.7-7.7-7.7 3.4-7.7 7.7z"/><path d="m142.6 456.4c0-4.3-3.4-7.7-7.7-7.7s-7.7 3.4-7.7 7.7 3.4 7.7 7.7 7.7c4.2 0 7.7-3.4 7.7-7.7z"/><path d="m171.8 501.6c4.3 0 7.7-3.4 7.7-7.7s-3.4-7.7-7.7-7.7-7.7 3.4-7.7 7.7c0 4.2 3.5 7.7 7.7 7.7z"/><circle cx="97.8" cy="494" r="7.7"/><path d="m154.6 520.7c0 4.3 3.4 7.7 7.7 7.7s7.7-3.4 7.7-7.7c0-2-.8-4-2.3-5.4-3-3-7.9-3-10.9 0-1.4 1.4-2.2 3.3-2.2 5.4z"/><path d="m156.7 472.2c3 3 7.9 3 10.9 0s3-7.9 0-10.9-7.9-3-10.9 0-3 7.9 0 10.9z"/><path d="m115.2 466.8c0-4.3-3.4-7.7-7.7-7.7s-7.7 3.4-7.7 7.7c0 2 .8 4 2.3 5.5 3 3 7.9 3 10.9 0 1.4-1.5 2.2-3.5 2.2-5.5z"/><path d="m102 527.3c3 3 7.9 3 10.9 0s3-7.9 0-10.9-7.9-3-10.9 0-3 7.9 0 10.9z"/></g><path d="m117.5 513.4h33.9v-15.9h-33.9z"/><path d="m117.5 491.7h33.9v-15.9h-33.9z"/></g><g fill="#48d597"><path d="m143.8 485c0-1-.8-1.8-1.8-1.8s-1.8.8-1.8 1.8.8 1.8 1.8 1.8 1.8-.8 1.8-1.8z"/><path d="m140.2 505.5c0 1 .8 1.8 1.8 1.8s1.8-.8 1.8-1.8-.8-1.8-1.8-1.8-1.8.8-1.8 1.8z"/></g></g></svg>