<svg viewBox="0 0 185 185" xmlns="http://www.w3.org/2000/svg"><g fill="none" stroke="#fff" stroke-miterlimit="10"><circle cx="98.83" cy="80.51" r="3.24"/><circle cx="82.28" cy="50.74" r="3.24"/><circle cx="136.29" cy="86.75" r="3.24"/><circle cx="93.86" cy="134.26" r="3.24"/><circle cx="48.71" cy="97.7" r="3.24"/><path d="m49.76 94.27 30.4-40.54"/><path d="m85.05 51.56 48.5 32.93"/><path d="m134.63 89.56-37.82 43.07"/><path d="m90.48 132.99-39.82-32.75"/><path d="m51.75 96.8 43.43-15.38"/><path d="m83.42 53.55 14.3 23.52"/><path d="m101.88 80.33 30.76 6.34"/><path d="m98.26 83.59-4.16 47.23"/></g><path d="m92.5 1a91.5 91.5 0 1 1 -91.5 91.5 91.61 91.61 0 0 1 91.5-91.5m0-1a92.5 92.5 0 1 0 92.5 92.5 92.5 92.5 0 0 0 -92.5-92.5z" fill="#054acc"/></svg>