<svg viewBox="0 0 100 100" xmlns="http://www.w3.org/2000/svg"><circle cx="50" cy="50" fill="#3d3d3d" r="50"/><path d="m36.25 69.64a4.91 4.91 0 0 1 -4.91-4.91m14.73-34.37a3.93 3.93 0 0 0 -7.86 0m3.93 12.76a3.93 3.93 0 1 0 0-7.85m-5.08 10a3.82 3.82 0 0 0 -2.77-1.14 3.72 3.72 0 0 0 -3.93 3.87 3.9 3.9 0 0 0 1.15 2.77m10.63 7a3.93 3.93 0 1 0 0 7.85m0 7.86a3.93 3.93 0 0 0 3.93-3.93m3.93-29.37h17.68a3.93 3.93 0 0 0 3.93-3.93v-3.93m0 35.36v-3.93a3.93 3.93 0 0 0 -3.93-3.93h-17.68m0-13.75h23.57m0-15.71a2 2 0 1 0 -2 2 2 2 0 0 0 2-2zm0 39.28a2 2 0 1 0 -2 2 2 2 0 0 0 2-2zm3.93-23.57a2 2 0 1 0 -2 2 2 2 0 0 0 2-2zm-27.5 7.86h23.57m3.93 0a2 2 0 1 0 -2 2 2 2 0 0 0 2-2zm-27.5-23.57a7.83 7.83 0 0 0 -14.63-3.92h-.1a8.84 8.84 0 0 0 -8.84 8.84 8.75 8.75 0 0 0 1.74 5.22 10.81 10.81 0 0 0 0 19 8.75 8.75 0 0 0 -1.74 5.22 8.84 8.84 0 0 0 8.84 8.84h.1a7.83 7.83 0 0 0 14.63-3.92zm-14.73-3.81a7.89 7.89 0 0 0 .07 7.74m-.07 21.6a8.81 8.81 0 0 0 -6.88 3.29" fill="none" stroke="#fff" stroke-linejoin="round"/></svg>