<svg viewBox="0 0 185 185" xmlns="http://www.w3.org/2000/svg"><path d="m92.5 1a91.5 91.5 0 1 1 -91.5 91.5 91.61 91.61 0 0 1 91.5-91.5m0-1a92.5 92.5 0 1 0 92.5 92.5 92.5 92.5 0 0 0 -92.5-92.5z" fill="#054acc"/><g fill="none" stroke="#fff" stroke-miterlimit="10"><path d="m42.38 91.63a17 17 0 0 0 12.25 16.37 12.75 12.75 0 0 0 -3.73 8.58c-.14 7.91 6.19 12.95 14.09 13.09h2.41a10.74 10.74 0 0 0 20.93-3.21l1.18-68a10.74 10.74 0 0 0 -20.8-4h-2.4c-7.91-.16-14.41 4.67-14.55 12.54a12.73 12.73 0 0 0 3.43 8.7 17 17 0 0 0 -12.81 15.93z"/><circle cx="78.71" cy="61.82" r="3.58"/><circle cx="67.72" cy="75.95" r="3.58"/><circle cx="78.02" cy="101.2" r="3.58"/><circle cx="56.67" cy="93.67" r="3.58"/><circle cx="66.97" cy="118.91" r="3.58"/><path d="m78.65 65.4-.38 21.48"/><path d="m77.96 104.78-.56 32.22"/><path d="m89 87.07-17.9-.31a3.58 3.58 0 0 0 -3.64 3.51l-.46 25.06"/><path d="m64.14 75.89-10.11-.18"/><path d="m67.41 93.85-7.16-.12"/><path d="m142.62 93.37a17 17 0 0 0 -12.25-16.32 12.75 12.75 0 0 0 3.73-8.58c.14-7.91-6.19-12.95-14.1-13.09h-2.4a10.74 10.74 0 0 0 -20.93 3.21l-1.18 68a10.74 10.74 0 0 0 20.8 4h2.4c7.91.14 14.41-4.69 14.55-12.59a12.73 12.73 0 0 0 -3.43-8.7 17 17 0 0 0 12.81-15.93z"/><circle cx="106.29" cy="123.18" r="3.58"/><circle cx="117.28" cy="109.05" r="3.58"/><circle cx="106.98" cy="83.8" r="3.58"/><circle cx="128.33" cy="91.33" r="3.58"/><circle cx="118.03" cy="66.09" r="3.58"/><path d="m106.35 119.6.38-21.48"/><path d="m107.04 80.22.56-32.22"/><path d="m96 97.93 17.9.31a3.58 3.58 0 0 0 3.64-3.51l.46-25.06"/><path d="m120.86 109.11 10.11.18"/><path d="m117.59 91.15 7.16.12"/></g></svg>