<svg viewBox="0 0 185 185" xmlns="http://www.w3.org/2000/svg"><path d="m92.5 1a91.5 91.5 0 1 1 -91.5 91.5 91.61 91.61 0 0 1 91.5-91.5m0-1a92.5 92.5 0 1 0 92.5 92.5 92.5 92.5 0 0 0 -92.5-92.5z" fill="#054acc"/><g fill="none" stroke="#fff" stroke-miterlimit="10"><path d="m92.5 47.5c15.24 0 27 12.44 27 27.79a29.81 29.81 0 0 1 -8.58 20.51c-6.33 6.59-6.42 14.15-6.42 19.34v4.36h-24v-4.36c0-5.19-.09-12.75-6.43-19.34a29.84 29.84 0 0 1 -8.57-20.51c0-15.35 11.76-27.79 27-27.79m-12 78h24m-24 6h24m-21 6h18"/><path d="m100 76a7.5 7.5 0 1 1 -7.5-7.5 7.5 7.5 0 0 1 7.5 7.5zm10.5 3.55v-7.1h-4.66l-1.39-3.38 3.29-3.29-5-5-3.3 3.3-3.37-1.41v-4.67h-7.07v4.66l-3.38 1.39-3.29-3.29-5 5 3.3 3.3-1.41 3.37h-4.72v7.1h4.66l1.39 3.38-3.29 3.29 5 5 3.3-3.3 3.44 1.45v4.65h7.1v-4.66l3.33-1.34 3.29 3.29 5-5-3.3-3.3 1.41-3.37z"/></g></svg>