<svg height="250.422" viewBox="0 0 250.422 250.422" width="250.422" xmlns="http://www.w3.org/2000/svg" xmlns:xlink="http://www.w3.org/1999/xlink"><clipPath id="a"><path d="m0 0h250.422v250.422h-250.422z"/></clipPath><g clip-path="url(#a)" fill="none" stroke-width="3"><g stroke="#fff"><circle cx="125.211" cy="125.211" r="125.211" stroke="none"/><circle cx="125.211" cy="125.211" fill="none" r="123.711"/></g><g stroke="#48d597" stroke-miterlimit="10"><circle cx="12.07" cy="12.07" r="12.07" transform="translate(62.5 84.054)"/><circle cx="12.07" cy="12.07" r="12.07" transform="translate(114.282 48.546)"/><circle cx="12.07" cy="12.07" r="12.07" transform="translate(162.88 100.601)"/><circle cx="12.07" cy="12.07" r="12.07" transform="translate(149.825 148.411)"/><circle cx="12.07" cy="12.07" r="12.07" transform="translate(62.5 162.797)"/><circle cx="20.014" cy="20.014" r="20.014" transform="translate(109.797 108.382)"/><path d="m0 0 3.458 35.696" transform="translate(126.352 72.686)"/><path d="m0 0 27.095 17.819" transform="translate(82.701 100.601)"/><path d="m31.581 0-31.581 24.951" transform="translate(82.701 141.014)"/><path d="m0 3.182 12.07-3.182" transform="translate(149.825 115.238)"/><path d="m10.724 7.908-10.724-7.908" transform="translate(141.951 144.792)"/></g></g></svg>