<?xml version="1.0" encoding="utf-8"?>
<!-- Generator: Adobe Illustrator 16.0.4, SVG Export Plug-In . SVG Version: 6.00 Build 0)  -->
<!DOCTYPE svg PUBLIC "-//W3C//DTD SVG 1.1//EN" "http://www.w3.org/Graphics/SVG/1.1/DTD/svg11.dtd">
<svg version="1.1" id="Layer_1" xmlns="http://www.w3.org/2000/svg" xmlns:xlink="http://www.w3.org/1999/xlink" x="0px" y="0px"
	 width="1024px" height="206.584px" viewBox="0 152.708 1024 206.584" enable-background="new 0 152.708 1024 206.584"
	 xml:space="preserve">
<g transform="translate(-240.48753 -383.04713)">
	<path fill="#FFFFFF" d="M258.994,698.768c6.864,9.72,15.338,18.195,25.057,25.061l34.228-59.292L258.994,698.768z"/>
	<path fill="#FFFFFF" d="M284.051,554.257c-9.727,6.856-18.203,15.333-25.057,25.062l59.285,34.215L284.051,554.257z"/>
	<path fill="#FFFFFF" d="M387.345,544.915c-10.792-5.015-22.375-8.115-34.23-9.161v68.453L387.345,544.915z"/>
	<path fill="#FFFFFF" d="M300.206,733.166c10.798,5.013,22.383,8.116,34.241,9.173V673.87L300.206,733.166z"/>
	<path fill="#FFFFFF" d="M428.57,579.319c-6.854-9.729-15.331-18.206-25.058-25.062l-34.226,59.276L428.57,579.319z"/>
	<path fill="#FFFFFF" d="M403.508,723.828c9.721-6.861,18.195-15.338,25.054-25.061l-59.28-34.231L403.508,723.828z"/>
	<path fill="#FFFFFF" d="M447.068,629.703c-1.062-11.852-4.157-23.433-9.149-34.234l-59.307,34.234H447.068z"/>
	<path fill="#FFFFFF" d="M240.488,648.367c1.051,11.851,4.148,23.43,9.153,34.223l59.311-34.223H240.488z"/>
	<path fill="#FFFFFF" d="M249.641,595.469c-5.003,10.798-8.1,22.381-9.153,34.234h68.464L249.641,595.469z"/>
	<path fill="#FFFFFF" d="M378.612,648.367l59.307,34.223c5.007-10.792,8.104-22.371,9.149-34.223H378.612z"/>
	<path fill="#FFFFFF" d="M334.448,535.755c-11.859,1.042-23.446,4.142-34.241,9.161l34.241,59.292V535.755z"/>
	<path fill="#FFFFFF" d="M353.115,742.339c11.854-1.057,23.436-4.16,34.23-9.173l-34.23-59.295V742.339z"/>
	<path fill="#FFFFFF" d="M422.102,548.208c0.018-6.894,5.621-12.468,12.515-12.451c6.894,0.018,12.469,5.622,12.451,12.516
		c-0.018,6.869-5.582,12.432-12.45,12.451c-6.909,0.004-12.512-5.594-12.516-12.502
		C422.102,548.218,422.102,548.213,422.102,548.208z M445.081,548.208c-0.014-5.796-4.724-10.484-10.521-10.47
		c-5.796,0.014-10.484,4.725-10.47,10.521c0.014,5.797,4.724,10.484,10.521,10.471c0.002,0,0.005,0,0.008,0
		c5.572,0.208,10.257-4.142,10.464-9.714C445.093,548.747,445.093,548.478,445.081,548.208L445.081,548.208z M431.759,555.279
		h-1.829v-14.271h6.147c3.72,0,4.984,1.387,4.984,3.946c0,2.751-1.933,3.785-4.415,3.981l4.242,6.344h-2.048l-4.024-6.344h-3.058
		V555.279z M434.28,547.272c1.998,0,4.788,0.333,4.788-2.353c0-1.99-1.657-2.263-3.385-2.263h-3.923v4.616H434.28z"/>
	<path fill="#FFFFFF" d="M566.041,615.973c-1.917-9.435-10.582-15.95-20.178-15.174c-23.486,0-27.836,21.5-27.836,38.257
		c0,19.651,5.956,38.212,26.656,38.212c9.828,1.057,18.867-5.478,20.946-15.141h13.841c-1.31,15.959-17.403,26.473-35.975,26.473
		c-28.093,0-39.28-22.918-39.28-49.544c0-23.336,10.256-50.507,42.158-49.585c18.322,0.53,32.052,9.499,33.489,26.502
		L566.041,615.973z"/>
	<path fill="#FFFFFF" d="M602.656,655.918c-0.915,11.612,3.839,23.598,16.608,23.598c7.6,1.202,14.735-3.985,15.937-11.585
		c0.097-0.613,0.153-1.232,0.167-1.854h13.177c-1.987,15.028-13.573,22.522-29.401,22.522c-21.223,0-29.657-15.006-29.657-34.516
		c0-19.378,9.741-35.602,30.698-35.602c19.787,0.384,29.131,12.915,29.131,31.222v6.213L602.656,655.918z M636.153,647.245
		c0.254-11.102-4.764-19.674-16.888-19.674c-9.688,0.455-17.173,8.676-16.718,18.364c0.021,0.438,0.057,0.875,0.11,1.311H636.153z"
		/>
	<path fill="#FFFFFF" d="M674.43,630.21h0.258c4.064-7.244,11.725-11.729,20.031-11.728c4.623,0,25.074,1.195,25.074,22.418v45.717
		h-12.539V644.97c0-10.943-4.601-16.868-15.175-16.868c-4.523-0.033-8.878,1.721-12.116,4.88c-1.84,1.833-5.276,4.757-5.276,17.672
		v35.964h-12.53v-66.159h12.273V630.21"/>
	<path fill="#FFFFFF" d="M739.586,620.435v-14.071l12.53-3.969v18.041h15.294v9.092h-15.294v42.484c0,4.727,3.692,6.971,8.181,6.971
		c2.212-0.004,4.416-0.265,6.567-0.776v9.618c-2.878,0.146-5.672,0.776-8.538,0.776c-2.826,0.048-5.65-0.163-8.438-0.63
		c-2.92-0.482-5.555-2.04-7.386-4.365c-2.243-3.163-2.917-3.417-2.917-12.25v-41.828h-11.32v-9.092H739.586z"/>
	<path fill="#FFFFFF" d="M822.46,620.458h12.512v66.159h-12.246v-9.73h-0.265c-4.867,7.74-13.553,12.226-22.681,11.713
		c-11.975,0.104-21.768-9.518-21.872-21.493c-0.007-0.788,0.029-1.575,0.108-2.358v-44.29h12.538v39.146
		c0,11.485,2.629,19.912,14.633,19.912c6.399,0.135,12.242-3.621,14.775-9.499c1.663-5.014,2.506-10.262,2.498-15.544
		L822.46,620.458z"/>
	<path fill="#FFFFFF" d="M864.23,686.616h-12.52v-66.158h12.52v12.772h0.276c2.231-8.692,10.428-14.49,19.367-13.699
		c1.579,0,2.917,0.146,4.346,0.146v11.859c-1.746-0.532-3.572-0.751-5.395-0.646c-15.832,0.507-18.595,8.945-18.595,22.933V686.616"
		/>
</g>
<path fill="#FFFFFF" d="M684.785,328.911h-12.819l10.026-25.585l-27.528-65.917h13.938l20.713,52.208l21.122-52.208h13.426
	L684.785,328.911z"/>
<path fill="#FFFFFF" d="M733.051,303.57v-95.176h20.438v79.381h41.262v15.795H733.051z"/>
<path fill="#FFFFFF" d="M806.468,208.396h21.097v17.015h-21.097V208.396z M807.129,237.411h19.774v66.159h-19.774V237.411z"/>
<path fill="#FFFFFF" d="M865.498,245.054l0.262,0.403c4.48-6.741,12.229-10.565,20.305-10.021c6.586,0,19.379,4.857,21.742,14.499
	c0.863,3.453,1.313,6.997,1.341,10.556v43.079h-19.786v-39.787c-0.119-7.131-2.117-15.151-11.862-15.151
	c-6.206,0-11.601,5.534-11.87,15.151v39.787h-19.766v-66.158h19.636L865.498,245.054z"/>
<path fill="#FFFFFF" d="M948.053,264.198l0.251,0.236l19.51-27.804h22.011l-22.806,28.993l24.254,37.947h-23.058l-19.911-36.232
	l-0.251,0.268v35.965h-19.77v-95.176h19.77V264.198z"/>
<path fill="#FFFFFF" d="M999.035,249.077c0.026-6.894,5.637-12.461,12.53-12.435c6.895,0.027,12.461,5.637,12.435,12.531
	c-0.026,6.861-5.585,12.414-12.446,12.435c-6.907,0.007-12.512-5.587-12.519-12.494C999.035,249.103,999.035,249.09,999.035,249.077
	z M1022.014,249.077c-0.021-5.796-4.737-10.477-10.533-10.456c-5.796,0.021-10.477,4.737-10.455,10.533
	c0.021,5.794,4.734,10.475,10.528,10.456c5.572,0.206,10.257-4.144,10.463-9.715C1022.026,249.622,1022.025,249.35,1022.014,249.077
	z M1008.699,256.155h-1.833v-14.283h6.155c3.712,0,4.969,1.398,4.969,3.954c0,2.755-1.926,3.796-4.411,3.985l4.246,6.344h-2.057
	l-4.019-6.344h-3.051V256.155z M1011.216,248.147c2.002,0,4.787,0.338,4.787-2.351c0-1.99-1.663-2.26-3.385-2.26h-3.92v4.611
	H1011.216z"/>
</svg>
