<svg xmlns="http://www.w3.org/2000/svg" viewBox="0 0 1164.89 255.29"><defs><style>.cls-1,.cls-2,.cls-3,.cls-4,.cls-5{fill:none;stroke:#b0b0b0;stroke-miterlimit:10;}.cls-2{stroke-dasharray:5.77 5.77;}.cls-3{stroke-dasharray:5.98 5.98;}.cls-4{stroke-dasharray:6 6;}.cls-5{stroke-dasharray:5.74 5.74;}.cls-6{fill:#3d3d3d;}</style></defs><title>dash-background</title><g id="Layer_2" data-name="Layer 2"><g id="DESIGN_2" data-name="DESIGN 2"><line class="cls-1" x1="1048.67" y1="8.02" x2="1051.67" y2="8.02"/><line class="cls-2" x1="1057.44" y1="8.02" x2="1158.51" y2="8.02"/><polyline class="cls-1" points="1161.39 8.02 1164.39 8.02 1164.39 11.02"/><line class="cls-3" x1="1164.39" y1="17" x2="1164.39" y2="241.33"/><polyline class="cls-1" points="1164.39 244.33 1164.39 247.33 1161.39 247.33"/><line class="cls-4" x1="1155.39" y1="247.33" x2="6.5" y2="247.33"/><polyline class="cls-1" points="3.5 247.33 0.5 247.33 0.5 244.33"/><line class="cls-3" x1="0.5" y1="238.34" x2="0.5" y2="14.01"/><polyline class="cls-1" points="0.5 11.02 0.5 8.02 3.5 8.02"/><line class="cls-5" x1="9.24" y1="8.02" x2="109.69" y2="8.02"/><line class="cls-1" x1="112.56" y1="8.02" x2="115.56" y2="8.02"/><polygon class="cls-6" points="1047.22 0 1055.22 8 1047.22 16 1047.22 0"/><path class="cls-6" d="M109.45,0l8,8-8,8Z"/><polygon class="cls-6" points="935.23 255.29 927.23 247.29 935.23 239.29 935.23 255.29"/><polygon class="cls-6" points="584.06 255.29 576.06 247.29 584.06 239.29 584.06 255.29"/><polygon class="cls-6" points="236.23 255.29 228.23 247.29 236.23 239.29 236.23 255.29"/></g></g></svg>