<svg viewBox="0 0 1164.89 255.29" xmlns="http://www.w3.org/2000/svg"><g fill="none" stroke="#b0b0b0" stroke-miterlimit="10"><path d="m1048.67 8.02h3"/><path d="m1057.44 8.02h101.07" stroke-dasharray="5.77 5.77"/><path d="m1161.39 8.02h3v3"/><path d="m1164.39 17v224.33" stroke-dasharray="5.98 5.98"/><path d="m1164.39 244.33v3h-3"/><path d="m1155.39 247.33h-1148.89" stroke-dasharray="6 6"/><path d="m3.5 247.33h-3v-3"/><path d="m.5 238.34v-224.33" stroke-dasharray="5.98 5.98"/><path d="m.5 11.02v-3h3"/><path d="m9.24 8.02h100.45" stroke-dasharray="5.74 5.74"/><path d="m112.56 8.02h3"/></g><g fill="#3d3d3d"><path d="m1047.22 0 8 8-8 8z"/><path d="m109.45 0 8 8-8 8z"/><path d="m935.23 255.29-8-8 8-8z"/><path d="m584.06 255.29-8-8 8-8z"/><path d="m236.23 255.29-8-8 8-8z"/></g></svg>