<?xml version="1.0" encoding="utf-8"?>
<!-- Generator: Adobe Illustrator 23.0.4, SVG Export Plug-In . SVG Version: 6.00 Build 0)  -->
<svg version="1.1" id="Layer_1" xmlns="http://www.w3.org/2000/svg" xmlns:xlink="http://www.w3.org/1999/xlink" x="0px" y="0px"
	 viewBox="0 0 294 595.5" style="enable-background:new 0 0 294 595.5;" xml:space="preserve">
<style type="text/css">
	.st0{fill:none;}
	.st1{fill:none;stroke:#707070;stroke-width:3;}
	.st2{fill:none;stroke:#48D597;stroke-width:3;}
</style>
<g id="Group_1400" transform="translate(-1341.832 -329)">
	<g id="Group_1399" transform="translate(0 -27)">
		<g id="Ellipse_17" transform="translate(1363.674 474.674)">
			<ellipse class="st0" cx="124.9" cy="178.8" rx="144.3" ry="144.3"/>
			<ellipse class="st1" cx="124.9" cy="178.8" rx="142.8" ry="142.8"/>
		</g>
	</g>
	<g id="Group_1397">
		<line id="Line_246" class="st1" x1="1489.1" y1="483" x2="1489.1" y2="366"/>
		<line id="Line_248" class="st1" x1="1448.1" y1="365" x2="1530.1" y2="365"/>
	</g>
	<g id="Group_1398" transform="translate(1467.5 735.5)">
		<line id="Line_246-2" class="st1" x1="21.6" y1="34.5" x2="21.6" y2="151.5"/>
		<line id="Line_248-2" class="st1" x1="-19.4" y1="152.5" x2="62.6" y2="152.5"/>
	</g>
</g>
<g id="Group_1401" transform="translate(-1355 -817)">
	<g id="Ellipse_18" transform="translate(1355 817)">
		<circle class="st0" cx="37.5" cy="37.5" r="37.5"/>
		<circle class="st2" cx="37.5" cy="37.5" r="36"/>
	</g>
	<g id="Ellipse_19" transform="translate(1574 817)">
		<circle class="st0" cx="37.5" cy="37.5" r="37.5"/>
		<circle class="st2" cx="37.5" cy="37.5" r="36"/>
	</g>
</g>
<g id="Group_1401_1_" transform="translate(-1355 -817)">
	<g id="Ellipse_18_1_" transform="translate(1355 817)">
		<circle class="st0" cx="37.5" cy="558" r="37.5"/>
		<circle class="st2" cx="37.5" cy="558" r="36"/>
	</g>
	<g id="Ellipse_19_1_" transform="translate(1574 817)">
		<circle class="st0" cx="37.5" cy="558" r="37.5"/>
		<circle class="st2" cx="37.5" cy="558" r="36"/>
	</g>
</g>
</svg>
