<?xml version="1.0" encoding="utf-8"?>
<!-- Generator: Adobe Illustrator 23.0.4, SVG Export Plug-In . SVG Version: 6.00 Build 0)  -->
<svg version="1.1" id="Layer_1" xmlns="http://www.w3.org/2000/svg" xmlns:xlink="http://www.w3.org/1999/xlink" x="0px" y="0px"
	 viewBox="0 0 100 100" style="enable-background:new 0 0 100 100;" xml:space="preserve">
<style type="text/css">
	.st0{fill:none;stroke:#48D597;stroke-width:2;stroke-miterlimit:10;}
</style>
<g>
	<path class="st0" d="M67,40.2H33l-7.2,8.4c0,0,0,5.5,0,6v17.7c0,12.8,11,23.2,24.4,23.2S74.5,85,74.5,72.3V54.6c0-0.5,0-6,0-6
		L67,40.2z"/>
	<path class="st0" d="M63.3,33.6v-4.4c0-6.4-6.5-11.1-13.3-11.1s-13.3,4.6-13.3,11.1v4.4"/>
	<path class="st0" d="M41.1,20.3L32.3,0.4"/>
	<path class="st0" d="M58.9,20.3l8.9-19.9"/>
	<path class="st0" d="M25.6,49.1l-8.9-6.6l-4.4-15.5"/>
	<path class="st0" d="M25.6,80.1l-8.9,6.6L14.6,100"/>
	<path class="st0" d="M25.6,60.1l-13.3,4.4L7.9,80.1"/>
	<path class="st0" d="M74.4,49.1l8.9-6.6l4.4-15.5"/>
	<path class="st0" d="M74.4,80.1l8.9,6.6l2.2,13.3"/>
	<path class="st0" d="M74.4,60.1l13.3,4.4l4.4,15.5"/>
	<path class="st0" d="M50,49.1v46.5"/>
</g>
</svg>
