<?xml version="1.0" encoding="utf-8"?>
<!-- Generator: Adobe Illustrator 23.0.4, SVG Export Plug-In . SVG Version: 6.00 Build 0)  -->
<svg version="1.1" id="Layer_1" xmlns="http://www.w3.org/2000/svg" xmlns:xlink="http://www.w3.org/1999/xlink" x="0px" y="0px"
	 viewBox="0 0 100 100" style="enable-background:new 0 0 100 100;" xml:space="preserve">
<style type="text/css">
	.st0{fill:none;stroke:#48D597;stroke-width:2;stroke-miterlimit:10;}
</style>
<g>
	<path class="st0" d="M3.5,42.8V57h10.2c1,4.8,2.9,9.4,5.7,13.5L12,77.9l10,10l7.4-7.4c4,2.7,8.6,4.5,13.4,5.4v10.7h14.1V85.8
		c4.7-0.9,9.2-2.8,13.2-5.5l7.6,7.6l10-10L80,70.3c2.7-4,4.6-8.5,5.6-13.2h10.9V43H85.7c-0.9-4.7-2.7-9.2-5.4-13.3l7.6-7.6l-10-9.9
		l-7.4,7.4c-4-2.7-8.6-4.6-13.3-5.6V3.5H43.1v10.4c-4.8,0.9-9.4,2.7-13.4,5.4h-0.1l-7.3-7.2l-10,10l7.2,7.2
		c-2.8,4.1-4.8,8.7-5.7,13.5L3.5,42.8z"/>
	<circle class="st0" cx="50" cy="50" r="16.9"/>
</g>
</svg>
