<svg viewBox="0 0 53.04 53.04" xmlns="http://www.w3.org/2000/svg"><g fill="none" stroke="#48d597" stroke-miterlimit="10" stroke-width="3"><path d="m1.5 22.67v7.6h5.5a19.7 19.7 0 0 0 3.05 7.24l-4 4 5.37 5.38 4-4a19.56 19.56 0 0 0 7.19 2.93v5.74h7.6v-5.79a19.63 19.63 0 0 0 7.11-2.94l4.11 4.11 5.37-5.38-4.12-4.12a19.63 19.63 0 0 0 3-7.1h5.84v-7.6h-5.8a19.69 19.69 0 0 0 -2.89-7.13l4.09-4.08-5.36-5.35-4 4a20.15 20.15 0 0 0 -7.17-3v-5.68h-7.6v5.58a19.49 19.49 0 0 0 -7.23 2.92h-.08l-3.93-3.89-5.37 5.37 3.9 3.9a19.41 19.41 0 0 0 -3.08 7.26z"/><circle cx="26.52" cy="26.52" r="9.08"/></g></svg>