<svg viewBox="0 0 111.19 117.5" xmlns="http://www.w3.org/2000/svg"><path d="m1.5 1.5h108.19v31.56h-108.19z" fill="none" stroke="#60c091" stroke-miterlimit="10" stroke-width="3"/><path d="m1.5 42.97h108.19v31.56h-108.19z" fill="none" stroke="#60c091" stroke-miterlimit="10" stroke-width="3"/><path d="m1.5 84.45h108.19v31.56h-108.19z" fill="none" stroke="#60c091" stroke-miterlimit="10" stroke-width="3"/><g fill="#60c091"><path d="m39.05 100.13a4 4 0 0 1 4-3.84 3.93 3.93 0 0 1 .08 7.86h-.08a4.05 4.05 0 0 1 -4-4.02z"/><path d="m27.32 100.13a4 4 0 0 1 4-3.84 3.93 3.93 0 0 1 .08 7.86h-.08a4 4 0 0 1 -4-4.02z"/><path d="m15.59 100.13a3.9 3.9 0 0 1 3.95-3.84h.08a3.93 3.93 0 0 1 .08 7.86h-.08a3.93 3.93 0 0 1 -4-3.83.61.61 0 0 1 -.03-.19z"/><path d="m39.05 58.65a4 4 0 0 1 4-3.83 3.86 3.86 0 0 1 3.84 3.83 3.9 3.9 0 0 1 -3.76 4h-.08a4.05 4.05 0 0 1 -4-4z"/><path d="m27.32 58.65a4 4 0 0 1 4-3.83 3.85 3.85 0 0 1 3.84 3.83 3.89 3.89 0 0 1 -3.76 4h-.08a4 4 0 0 1 -4-4z"/><path d="m15.59 58.65a3.89 3.89 0 0 1 3.95-3.83h.08a3.85 3.85 0 0 1 3.84 3.83 3.89 3.89 0 0 1 -3.76 4h-.08a3.93 3.93 0 0 1 -4-3.83.67.67 0 0 1 -.03-.17z"/><path d="m39.05 17.18a4 4 0 0 1 4-3.83 3.85 3.85 0 0 1 3.84 3.83 3.91 3.91 0 0 1 -3.76 4h-.08a4.06 4.06 0 0 1 -4-4z"/><path d="m27.32 17.18a4 4 0 0 1 4-3.83 3.85 3.85 0 0 1 3.84 3.83 3.9 3.9 0 0 1 -3.76 4h-.08a4.05 4.05 0 0 1 -4-4z"/><path d="m15.59 17.18a3.89 3.89 0 0 1 3.95-3.83h.08a3.85 3.85 0 0 1 3.84 3.83 3.9 3.9 0 0 1 -3.76 4h-.08a3.93 3.93 0 0 1 -4-3.84.6.6 0 0 1 -.03-.16z"/></g></svg>