<svg xmlns="http://www.w3.org/2000/svg" viewBox="0 0 250.42 250.42"><defs><style>.cls-1,.cls-2,.cls-4{fill:none;}.cls-2,.cls-4{stroke:#60c091;stroke-width:3px;}.cls-3{fill:#60c091;}.cls-4{stroke-miterlimit:10;}</style></defs><title>Group 1459</title><g id="Layer_2" data-name="Layer 2"><g id="Layer_1-2" data-name="Layer 1"><g id="Group_1459" data-name="Group 1459"><g id="Group_1449" data-name="Group 1449"><g id="Ellipse_34-3" data-name="Ellipse 34-3"><circle class="cls-1" cx="125.21" cy="125.21" r="125.21"/><circle class="cls-2" cx="125.21" cy="125.21" r="123.71"/></g></g><g id="speed_o_m-2" data-name="speed o m-2"><path id="Path_218" data-name="Path 218" class="cls-3" d="M171.39,162.23l-32.33-26.84a14.34,14.34,0,0,0-21.15-16.18c-7.27-5.54-13.87-10.53-13.87-10.53l-6.93,4L97,121s6.47,4.09,14,8.81a14.32,14.32,0,0,0,22.08,13.72Z"/><path id="Path_219" data-name="Path 219" class="cls-4" d="M49.24,130.36c0,.76,0,1.54,0,2.31a75.71,75.71,0,0,0,11,39.35"/><path id="Path_220" data-name="Path 220" class="cls-4" d="M70.26,80.09a76,76,0,0,0-20.15,40.84"/><path id="Path_221" data-name="Path 221" class="cls-4" d="M119.22,56.73A75.91,75.91,0,0,0,76.44,74.29"/><path id="Path_222" data-name="Path 222" class="cls-4" d="M174.37,74.31a75.8,75.8,0,0,0-45.1-17.73"/><path id="Path_223" data-name="Path 223" class="cls-4" d="M200.69,120.93a75.91,75.91,0,0,0-20.37-41.06"/><path id="Path_224" data-name="Path 224" class="cls-4" d="M191.11,171.23a75.79,75.79,0,0,0,10.48-38.56c0-.78,0-1.55,0-2.32"/></g></g></g></g></svg>