<svg viewBox="0 0 87.01 100.49" xmlns="http://www.w3.org/2000/svg"><g fill="none" stroke="#48d597" stroke-miterlimit="10" stroke-width="3"><path d="m60.49 40.46h-34l-7.18 8.4v23.7c0 12.78 11 23.18 24.35 23.18s24.34-10.46 24.34-23.18v-23.7z"/><path d="m56.8 33.82v-4.44c0-6.44-6.52-11.06-13.29-11.06s-13.28 4.68-13.28 11.06v4.44"/><path d="m34.65 20.53-8.85-19.92"/><path d="m52.36 20.53 8.86-19.92"/><path d="m19.15 49.32-8.85-6.65-4.42-15.5"/><path d="m19.15 80.3-8.85 6.7-2.21 13.24"/><path d="m19.15 60.38-13.27 4.44-4.44 15.48"/><path d="m67.86 49.32 8.86-6.65 4.43-15.5"/><path d="m67.86 80.3 8.86 6.7 2.22 13.29"/><path d="m67.86 60.38 13.29 4.44 4.42 15.48"/><path d="m43.51 49.32v46.48"/></g></svg>