<svg xmlns="http://www.w3.org/2000/svg" viewBox="0 0 95.98 96.05"><defs><style>.cls-1{fill:none;stroke:#48d597;stroke-miterlimit:10;stroke-width:3px;}</style></defs><title>gear</title><g id="Layer_2" data-name="Layer 2"><g id="Layer_1-2" data-name="Layer 1"><path class="cls-1" d="M1.5,40.85V55H11.72a36.76,36.76,0,0,0,5.67,13.46L10,75.87l10,10,7.44-7.43a36.24,36.24,0,0,0,13.36,5.44V94.55H54.87V83.79a36.52,36.52,0,0,0,13.21-5.46L75.72,86l10-10-7.66-7.66a36.44,36.44,0,0,0,5.57-13.2H94.48V41H83.7a36.61,36.61,0,0,0-5.37-13.25l7.6-7.59L76,10.2l-7.44,7.43A37.48,37.48,0,0,0,55.2,12.06V1.5H41.08V11.87A36.18,36.18,0,0,0,27.64,17.3h-.15l-7.31-7.23-10,10,7.25,7.25a36.18,36.18,0,0,0-5.73,13.5Z"/><circle class="cls-1" cx="48.01" cy="48.01" r="16.88"/></g></g></svg>