<svg viewBox="0 0 183.26 162.51" xmlns="http://www.w3.org/2000/svg"><g fill="none" stroke="#60c091" stroke-miterlimit="10" stroke-width="3"><path d="m35.75 92.13a74 74 0 1 1 103.06 50.47"/><path d="m177.5 50.72-80.97 28.44"/><path d="m158.29 22.2-124.43 43.72"/><path d="m179.98 85.24-63.15 22.19"/><path d="m78 75.45c-9-35.45-5.44-66.17 9-70.65 15.71-4.8 38.19 22.87 50.25 61.88 10 32.47 10.52 62.53 1.1 74.5"/><path d="m1.5 136.06a25 25 0 0 1 18.12-24c-.05-.57-.07-1.14-.07-1.71a18.33 18.33 0 0 1 28.45-15.29 36.65 36.65 0 0 1 69.1 17v.07a24.5 24.5 0 0 1 -2.79 48.87h-87.87a25 25 0 0 1 -24.94-24.93"/></g></svg>