<svg xmlns="http://www.w3.org/2000/svg" viewBox="0 0 117.28 117.28"><defs><style>.cls-1,.cls-2{fill:none;stroke:#60c091;stroke-width:3px;}.cls-1{stroke-miterlimit:10;}.cls-2{stroke-linecap:round;stroke-linejoin:round;}.cls-3{fill:#60c091;}</style></defs><title>networkglobe</title><g id="Layer_2" data-name="Layer 2"><g id="Layer_1-2" data-name="Layer 1"><g id="networkglobe_o_m" data-name="networkglobe o m"><circle id="Ellipse_32" data-name="Ellipse 32" class="cls-1" cx="58.64" cy="58.64" r="57.14"/><path id="Path_190" data-name="Path 190" class="cls-2" d="M68.9,3.83c-18.15,0-37.76,17.39-46.61,43-6.22,17.93-5.93,36.67.76,50.11,4,8,9.88,13.45,17.13,15.88,20.14,6.74,44.9-11.92,55.17-41.58,6.22-17.94,5.93-36.67-.76-50.12-4-8-9.88-13.45-17.13-15.87A27.06,27.06,0,0,0,68.9,3.83Z"/><path id="Path_191" data-name="Path 191" class="cls-2" d="M76.26,5C68.88,5,54.55,24,44.15,53.87c-8.35,24-11.12,46.82-6.75,55.56a5.13,5.13,0,0,0,2.78,2.82c6.93,2.31,22.31-17.1,33.3-48.65h0C81.83,39.63,84.6,16.78,80.23,8a5.13,5.13,0,0,0-2.78-2.82A3.41,3.41,0,0,0,76.26,5Z"/><path id="Path_192" data-name="Path 192" class="cls-2" d="M28.3,12.36c8.6,11.17,22.24,20.47,37.87,25.75S98.35,44.29,112,40.64"/><path id="Path_193" data-name="Path 193" class="cls-2" d="M89.33,106.82C80.72,95.66,67.08,86.36,51.46,81.08S19.28,74.9,5.59,78.55"/><line id="Line_268" data-name="Line 268" class="cls-2" x1="4.19" y1="45.1" x2="111" y2="81.19"/><ellipse id="Ellipse_33" data-name="Ellipse 33" class="cls-3" cx="36.49" cy="21.39" rx="7.05" ry="7"/><ellipse id="Ellipse_34" data-name="Ellipse 34" class="cls-3" cx="21.12" cy="50.43" rx="8.06" ry="8"/><ellipse id="Ellipse_35" data-name="Ellipse 35" class="cls-3" cx="93.57" cy="75.82" rx="6.04" ry="6"/><ellipse id="Ellipse_36" data-name="Ellipse 36" class="cls-3" cx="99.3" cy="43.16" rx="7.55" ry="7.5"/><ellipse id="Ellipse_37" data-name="Ellipse 37" class="cls-3" cx="79.88" cy="41.7" rx="6.04" ry="6"/><ellipse id="Ellipse_38" data-name="Ellipse 38" class="cls-3" cx="37.6" cy="78.17" rx="6.04" ry="6"/></g></g></g></svg>