<svg height="102.34" viewBox="0 0 102.34 102.34" width="102.34" xmlns="http://www.w3.org/2000/svg" xmlns:xlink="http://www.w3.org/1999/xlink"><clipPath id="a"><path d="m0 0h102.34v102.34h-102.34z"/></clipPath><g clip-path="url(#a)" stroke-miterlimit="10" stroke-width="3"><circle cx="49.67" cy="49.67" r="49.67" stroke="#fff" transform="translate(1.5 1.5)"/><g fill="none" stroke="#48d597" transform="translate(34.653 16.054)"><path d="m0 0h32.737v70.539h-32.737z"/><path d="m0 0h10.4v10.4h-10.4z" transform="translate(11.098 60.139)"/><path d="m0 0v8.509" transform="translate(6.973 6.393)"/><path d="m0 0v8.509" transform="translate(24.937 6.393)"/><path d="m0 0v8.509" transform="translate(18.949 6.393)"/><path d="m0 0v8.509" transform="translate(12.961 6.393)"/><path d="m0 0v8.509" transform="translate(6.973 19.63)"/><path d="m0 0v8.509" transform="translate(24.937 19.63)"/><path d="m0 0v8.509" transform="translate(18.949 19.63)"/><path d="m0 0v8.509" transform="translate(12.961 19.63)"/><path d="m0 0v8.509" transform="translate(6.973 32.867)"/><path d="m0 0v8.509" transform="translate(24.937 32.867)"/><path d="m0 0v8.509" transform="translate(18.949 32.867)"/><path d="m0 0v8.509" transform="translate(12.961 32.867)"/><path d="m0 0v8.509" transform="translate(6.973 47.049)"/><path d="m0 0v8.509" transform="translate(24.937 47.049)"/><path d="m0 0v8.509" transform="translate(18.949 47.049)"/><path d="m0 0v8.509" transform="translate(12.961 47.049)"/></g></g></svg>