<svg xmlns="http://www.w3.org/2000/svg" xmlns:xlink="http://www.w3.org/1999/xlink" width="103" height="103" viewBox="0 0 103 103">
  <defs>
    <clipPath id="clip-path">
      <rect width="103" height="103" fill="none"/>
    </clipPath>
  </defs>
  <g id="Component_25_1" data-name="Component 25 – 1" clip-path="url(#clip-path)">
    <circle id="Ellipse_79" data-name="Ellipse 79" cx="50" cy="50" r="50" transform="translate(1.5 1.5)" stroke="#fff" stroke-miterlimit="10" stroke-width="3"/>
    <g id="datacenter_o_m" transform="translate(25.604 22.858)">
      <g id="Group_1525" data-name="Group 1525">
        <g id="Group_1524" data-name="Group 1524">
          <g id="Group_1523" data-name="Group 1523">
            <g id="Building_o_g">
              <path id="Path_411" data-name="Path 411" d="M362.766,552.46H332.891V498.277H372.03v28.469" transform="translate(-332.891 -498.277)" fill="none" stroke="#48d597" stroke-miterlimit="10" stroke-width="3.681"/>
              <path id="Path_412" data-name="Path 412" d="M363.921,567.778v-11.1H353.7v11.1" transform="translate(-338.666 -514.486)" fill="none" stroke="#48d597" stroke-miterlimit="10" stroke-width="3.41"/>
            </g>
          </g>
        </g>
      </g>
      <g id="Group_1526" data-name="Group 1526" transform="translate(28.748 27.091)">
        <path id="Path_413" data-name="Path 413" d="M373.08,560.61v6.817c.277,2.924,5.135,5.26,12.615,5.26s12.949-2.337,13.226-5.26l0-7.442" transform="translate(-372.793 -542.494)" fill="none" stroke="#48d597" stroke-miterlimit="10" stroke-width="3.5"/>
        <path id="Path_414" data-name="Path 414" d="M373.08,549.907v8.066c.27,2.924,5.624,5.26,12.928,5.26s12.645-2.337,12.915-5.26v-7.442" transform="translate(-372.793 -539.697)" fill="none" stroke="#48d597" stroke-miterlimit="10" stroke-width="3.5"/>
        <path id="Path_415" data-name="Path 415" d="M373.971,542.985l-.889,1.467v4.319c.258,2.924,5.952,5.26,12.926,5.26s12.657-2.337,12.914-5.26v-4.319l-.746-1.467" transform="translate(-372.793 -537.776)" fill="none" stroke="#48d597" stroke-miterlimit="10" stroke-width="3.5"/>
        <g id="Ellipse_80" data-name="Ellipse 80" fill="none" stroke="#48d597" stroke-miterlimit="10" stroke-width="3.5">
          <ellipse cx="13.209" cy="5.209" rx="13.209" ry="5.209" stroke="none"/>
          <ellipse cx="13.209" cy="5.209" rx="11.459" ry="3.459" fill="none"/>
        </g>
      </g>
      <line id="Line_356" data-name="Line 356" x2="22.565" transform="translate(8.318 23.491)" fill="none" stroke="#48d597" stroke-miterlimit="10" stroke-width="3.681"/>
      <line id="Line_357" data-name="Line 357" x2="22.565" transform="translate(8.318 30.588)" fill="none" stroke="#48d597" stroke-miterlimit="10" stroke-width="3.681"/>
      <line id="Line_358" data-name="Line 358" x2="22.565" transform="translate(8.318 16.395)" fill="none" stroke="#48d597" stroke-miterlimit="10" stroke-width="3.681"/>
      <line id="Line_359" data-name="Line 359" x2="22.565" transform="translate(8.318 9.298)" fill="none" stroke="#48d597" stroke-miterlimit="10" stroke-width="3.681"/>
    </g>
  </g>
</svg>
