<svg height="103" viewBox="0 0 103 103" width="103" xmlns="http://www.w3.org/2000/svg" xmlns:xlink="http://www.w3.org/1999/xlink"><clipPath id="a"><path d="m0 0h103v103h-103z"/></clipPath><g clip-path="url(#a)" stroke-miterlimit="10"><circle cx="50" cy="50" r="50" stroke="#fff" stroke-width="3" transform="translate(1.5 1.5)"/><g fill="none" stroke="#48d597"><path d="m362.766 552.46h-29.875v-54.183h39.139v28.469" stroke-width="3.681" transform="translate(-307.287 -475.419)"/><path d="m363.921 567.778v-11.1h-10.221v11.1" stroke-width="3.41" transform="translate(-313.062 -491.628)"/><g stroke-width="3.5" transform="translate(54.352 49.949)"><path d="m373.08 560.61v6.817c.277 2.924 5.135 5.26 12.615 5.26s12.949-2.337 13.226-5.26v-7.442" transform="translate(-372.793 -542.494)"/><path d="m373.08 549.907v8.066c.27 2.924 5.624 5.26 12.928 5.26s12.645-2.337 12.915-5.26v-7.442" transform="translate(-372.793 -539.697)"/><path d="m373.971 542.985-.889 1.467v4.319c.258 2.924 5.952 5.26 12.926 5.26s12.657-2.337 12.914-5.26v-4.319l-.746-1.467" transform="translate(-372.793 -537.776)"/><ellipse cx="13.209" cy="5.209" rx="13.209" ry="5.209" stroke="none"/><ellipse cx="13.209" cy="5.209" fill="none" rx="11.459" ry="3.459"/></g><g stroke-width="3.681"><path d="m0 0h22.565" transform="translate(33.922 46.349)"/><path d="m0 0h22.565" transform="translate(33.922 53.446)"/><path d="m0 0h22.565" transform="translate(33.922 39.253)"/><path d="m0 0h22.565" transform="translate(33.922 32.156)"/></g></g></g></svg>