<svg enable-background="new 0 0 103.7 38.4" viewBox="0 0 103.7 38.4" xmlns="http://www.w3.org/2000/svg"><g fill="#fff"><path d="m0 0h18.9v2.5h-18.9z"/><path d="m0 5.2h18.9v2.4h-18.9z"/><path d="m5.4 10.3h8.1v2.5h-8.1z"/><path d="m5.4 15.4h8.1v2.4h-8.1z"/><path d="m5.4 20.6h8.1v2.5h-8.1z"/><path d="m5.4 25.7h8.1v2.5h-8.1z"/><path d="m0 30.8h18.9v2.5h-18.9z"/><path d="m0 36h18.9v2.4h-18.9z"/><path d="m21.5 5.2h29c.4.8.6 1.6.8 2.4h-29.8z"/><path d="m26.9 10.3h8.1v2.5h-8.1z"/><path d="m43.1 10.3h8.6c0 .8-.2 1.7-.4 2.5h-8.2z"/><path d="m26.9 20.6h20.7c.8.7 1.6 1.5 2.2 2.5h-23z"/><path d="m26.9 25.7h8.1v2.5h-8.1z"/><path d="m43.1 25.7h8.2c.2.8.4 1.6.5 2.5h-8.7z"/><path d="m21.5 30.8h29.9c-.1.8-.4 1.7-.8 2.5h-29.1z"/><path d="m21.5 36h27c-2.4 2-4.5 2.4-8.2 2.4h-18.8z"/><path d="m53.8 0h15.4l.8 2.5h-16.2z"/><path d="m53.8 5.2h17.1l.8 2.4h-17.9z"/><path d="m59.2 10.3h13.4l.8 2.5h-14.2z"/><path d="m76.4 15.4h15.1v2.4h-8.1v-2.2l-.7 2.2h-7.1z"/><path d="m75.2 17.9h-7.2l-.7-2.2v2.2h-8.1v-2.4h15.1z"/><path d="m59.2 20.6h8.1v2.5h-8.1z"/><path d="m59.2 25.7h8.1v2.5h-8.1z"/><path d="m53.8 30.8h13.5v2.5h-13.5z"/><path d="m53.8 36h13.5v2.4h-13.5z"/><path d="m81.5 0h15.4v2.5h-16.2z"/><path d="m79.8 5.2h17.1v2.4h-17.9z"/><path d="m78.1 10.3h13.4v2.5h-14.2z"/><path d="m83.5 20.6h8.1v2.5h-8.1z"/><path d="m83.5 25.7h8.1v2.5h-8.1z"/><path d="m83.5 30.8h13.5v2.5h-13.5z"/><path d="m83.5 36h13.5v2.4h-13.5z"/><path d="m69 20.6h12.9l-.9 2.4h-11.2z"/><path d="m70.7 25.7h9.4l-.8 2.5h-7.7z"/><path d="m72.4 30.8h5.9l-.8 2.5h-4.2z"/><path d="m74.2 36h2.4l-.8 2.4h-.8z"/><path d="m26.9 17.9h20.7c.9-.7 1.7-1.5 2.4-2.4h-23.1z"/><path d="m21.5 2.5h27c-2.4-2.1-4.5-2.5-8.2-2.5h-18.8z"/><path d="m99.5 35.9c0-1 .9-1.9 1.9-1.8s1.9.9 1.8 1.9c0 1-.9 1.8-1.9 1.8-.9 0-1.8-.8-1.8-1.9zm1.9 2.3c1.3 0 2.3-1.1 2.3-2.3 0-1.3-1.1-2.3-2.3-2.3-1.3 0-2.3 1-2.3 2.3 0 1.2 1 2.3 2.3 2.3zm-.5-2.2h.5l.7 1.2h.5l-.8-1.2c.4 0 .7-.3.7-.7 0-.5-.3-.8-.9-.8h-1v2.7h.4zm0-.3v-.8h.6c.3 0 .6.1.6.4 0 .4-.3.4-.6.4z"/></g></svg>