<?xml version="1.0" encoding="utf-8"?>
<!-- Generator: Adobe Illustrator 23.0.4, SVG Export Plug-In . SVG Version: 6.00 Build 0)  -->
<svg version="1.1" id="Group_1520" xmlns="http://www.w3.org/2000/svg" xmlns:xlink="http://www.w3.org/1999/xlink" x="0px" y="0px"
	 viewBox="0 0 103.7 38.4" style="enable-background:new 0 0 103.7 38.4;" xml:space="preserve">
<style type="text/css">
	.st0{fill:#FFFFFF;}
</style>
<g id="Group_1519">
	<g id="Group_1518">
		<rect id="Rectangle_351" class="st0" width="18.9" height="2.5"/>
		<rect id="Rectangle_352" y="5.2" class="st0" width="18.9" height="2.4"/>
		<rect id="Rectangle_353" x="5.4" y="10.3" class="st0" width="8.1" height="2.5"/>
		<rect id="Rectangle_354" x="5.4" y="15.4" class="st0" width="8.1" height="2.4"/>
		<rect id="Rectangle_355" x="5.4" y="20.6" class="st0" width="8.1" height="2.5"/>
		<rect id="Rectangle_356" x="5.4" y="25.7" class="st0" width="8.1" height="2.5"/>
		<rect id="Rectangle_357" y="30.8" class="st0" width="18.9" height="2.5"/>
		<rect id="Rectangle_358" y="36" class="st0" width="18.9" height="2.4"/>
		<path id="Path_389" class="st0" d="M21.5,5.2h29c0.4,0.8,0.6,1.6,0.8,2.4H21.5L21.5,5.2z"/>
		<rect id="Rectangle_359" x="26.9" y="10.3" class="st0" width="8.1" height="2.5"/>
		<path id="Path_390" class="st0" d="M43.1,10.3h8.6c0,0.8-0.2,1.7-0.4,2.5h-8.2L43.1,10.3z"/>
		<path id="Path_391" class="st0" d="M26.9,20.6h20.7c0.8,0.7,1.6,1.5,2.2,2.5h-23L26.9,20.6z"/>
		<rect id="Rectangle_360" x="26.9" y="25.7" class="st0" width="8.1" height="2.5"/>
		<path id="Path_392" class="st0" d="M43.1,25.7h8.2c0.2,0.8,0.4,1.6,0.5,2.5h-8.7L43.1,25.7z"/>
		<path id="Path_393" class="st0" d="M21.5,30.8h29.9c-0.1,0.8-0.4,1.7-0.8,2.5H21.5V30.8z"/>
		<path id="Path_394" class="st0" d="M21.5,36h27c-2.4,2-4.5,2.4-8.2,2.4H21.5L21.5,36z"/>
		<path id="Path_395" class="st0" d="M53.8,0h15.4l0.8,2.5H53.8L53.8,0z"/>
		<path id="Path_396" class="st0" d="M53.8,5.2h17.1l0.8,2.4H53.8L53.8,5.2z"/>
		<path id="Path_397" class="st0" d="M59.2,10.3h13.4l0.8,2.5H59.2L59.2,10.3z"/>
		<path id="Path_398" class="st0" d="M76.4,15.4h15.1v2.4h-8.1v-2.2l-0.7,2.2h-7.1L76.4,15.4z"/>
		<path id="Path_399" class="st0" d="M75.2,17.9H68l-0.7-2.2v2.2h-8.1v-2.4h15.1L75.2,17.9z"/>
		<rect id="Rectangle_361" x="59.2" y="20.6" class="st0" width="8.1" height="2.5"/>
		<rect id="Rectangle_362" x="59.2" y="25.7" class="st0" width="8.1" height="2.5"/>
		<rect id="Rectangle_363" x="53.8" y="30.8" class="st0" width="13.5" height="2.5"/>
		<rect id="Rectangle_364" x="53.8" y="36" class="st0" width="13.5" height="2.4"/>
		<path id="Path_400" class="st0" d="M81.5,0h15.4v2.5H80.7L81.5,0z"/>
		<path id="Path_401" class="st0" d="M79.8,5.2h17.1v2.4H79L79.8,5.2z"/>
		<path id="Path_402" class="st0" d="M78.1,10.3h13.4v2.5H77.3L78.1,10.3z"/>
		<rect id="Rectangle_365" x="83.5" y="20.6" class="st0" width="8.1" height="2.5"/>
		<rect id="Rectangle_366" x="83.5" y="25.7" class="st0" width="8.1" height="2.5"/>
		<rect id="Rectangle_367" x="83.5" y="30.8" class="st0" width="13.5" height="2.5"/>
		<rect id="Rectangle_368" x="83.5" y="36" class="st0" width="13.5" height="2.4"/>
		<path id="Path_403" class="st0" d="M69,20.6h12.9L81,23H69.8L69,20.6z"/>
		<path id="Path_404" class="st0" d="M70.7,25.7h9.4l-0.8,2.5h-7.7L70.7,25.7z"/>
		<path id="Path_405" class="st0" d="M72.4,30.8h5.9l-0.8,2.5h-4.2L72.4,30.8z"/>
		<path id="Path_406" class="st0" d="M74.2,36h2.4l-0.8,2.4H75L74.2,36z"/>
		<path id="Path_407" class="st0" d="M26.9,17.9h20.7c0.9-0.7,1.7-1.5,2.4-2.4H26.9V17.9z"/>
		<path id="Path_408" class="st0" d="M21.5,2.5h27C46.1,0.4,44,0,40.3,0H21.5L21.5,2.5z"/>
	</g>
</g>
<path id="Path_409" class="st0" d="M99.5,35.9c0-1,0.9-1.9,1.9-1.8s1.9,0.9,1.8,1.9c0,1-0.9,1.8-1.9,1.8
	C100.4,37.8,99.5,37,99.5,35.9C99.5,35.9,99.5,35.9,99.5,35.9z M101.4,38.2c1.3,0,2.3-1.1,2.3-2.3c0-1.3-1.1-2.3-2.3-2.3
	c-1.3,0-2.3,1-2.3,2.3C99.1,37.1,100.1,38.2,101.4,38.2C101.4,38.2,101.4,38.2,101.4,38.2L101.4,38.2z M100.9,36h0.5l0.7,1.2h0.5
	l-0.8-1.2c0.4,0,0.7-0.3,0.7-0.7c0,0,0,0,0,0c0-0.5-0.3-0.8-0.9-0.8h-1v2.7h0.4L100.9,36z M100.9,35.7v-0.8h0.6
	c0.3,0,0.6,0.1,0.6,0.4c0,0.4-0.3,0.4-0.6,0.4L100.9,35.7z"/>
</svg>
