<svg viewBox="0 0 57.32 65.32" xmlns="http://www.w3.org/2000/svg"><g fill="none" stroke="#48d597" stroke-miterlimit="10" stroke-width="3"><path d="m39.65 26.4h-22l-4.65 5.43s0 3.58 0 3.88v11.46c0 8.27 7.09 15 15.76 15s15.76-6.77 15.76-15v-11.46c0-.3 0-3.88 0-3.88z"/><path d="m37.26 22.1v-2.87c0-4.17-4.22-7.16-8.6-7.16s-8.59 3-8.59 7.16v2.87"/><path d="m22.93 13.5-5.73-12.89"/><path d="m34.39 13.5 5.73-12.89"/><path d="m12.9 32.13-5.73-4.3-2.86-10.03"/><path d="m12.9 52.18-5.73 4.3-1.43 8.6"/><path d="m12.9 39.29-8.59 2.87-2.87 10.02"/><path d="m44.42 32.13 5.73-4.3 2.87-10.03"/><path d="m44.42 52.18 5.73 4.3 1.44 8.6"/><path d="m44.42 39.29 8.6 2.87 2.86 10.02"/><path d="m28.66 32.13v30.08"/></g></svg>