<svg viewBox="0 0 100 100" xmlns="http://www.w3.org/2000/svg"><circle cx="50" cy="50" fill="#054acc" r="45"/><path d="m50 10a40 40 0 1 1 -40 40 40 40 0 0 1 40-40m0-10a50 50 0 1 0 50 50 50 50 0 0 0 -50-50z" fill="#0062ff"/><path d="m39.62 52.59a2.59 2.59 0 1 1 2.59-2.59 2.59 2.59 0 0 1 -2.59 2.59zm2.59-2.59a2.59 2.59 0 1 0 -2.59 2.59 2.59 2.59 0 0 0 2.59-2.59zm-11.65-19.42v38.84h38.89m-5.23-29.78h5.18m-38.84 10.36h6.44m11.16 8.48-6.66-6.69m19.11-9.79-9.31 16.13m1.27 2.23a2.59 2.59 0 1 0 -2.57 2.64 2.59 2.59 0 0 0 2.57-2.64zm11.65-20.72a2.59 2.59 0 1 0 -2.59 2.59 2.59 2.59 0 0 0 2.59-2.59z" fill="none" stroke="#fff" stroke-linejoin="round"/></svg>