<svg height="115.653" viewBox="0 0 115.652 115.653" width="115.652" xmlns="http://www.w3.org/2000/svg"><g fill="none" stroke="#48d597" stroke-width="3"><circle cx="57.826" cy="57.825" r="56.326" stroke-miterlimit="10"/><path d="m157.366 96.893c-17.889 0-37.22 17.137-45.949 42.339-6.125 17.679-5.845 36.147.751 49.4 3.9 7.847 9.742 13.257 16.889 15.646 19.857 6.642 44.257-11.746 54.386-40.983 6.125-17.68 5.845-36.148-.751-49.4-3.9-7.847-9.742-13.257-16.889-15.646a26.491 26.491 0 0 0 -8.437-1.356z" stroke-linecap="round" stroke-linejoin="round" transform="translate(-89.433 -93.094)"/><path d="m160.583 97.8c-7.281 0-21.407 18.712-31.65 48.135-8.23 23.633-10.966 46.155-6.659 54.771a5.078 5.078 0 0 0 2.737 2.781c6.839 2.274 22-16.857 32.824-47.952 8.23-23.631 10.966-46.154 6.659-54.772a5.075 5.075 0 0 0 -2.737-2.78 3.683 3.683 0 0 0 -1.174-.183z" stroke-linecap="round" stroke-linejoin="round" transform="translate(-85.388 -92.816)"/><path d="m114.929 103.333c8.481 11 21.926 20.173 37.33 25.379 15.423 5.212 31.727 6.087 45.215 2.492" stroke-linecap="round" stroke-linejoin="round" transform="translate(-87.014 -91.126)"/><path d="m180.324 181.676c-8.481-11-21.924-20.166-37.323-25.372-15.419-5.211-31.722-6.085-45.215-2.492" stroke-linecap="round" stroke-linejoin="round" transform="translate(-92.253 -76.364)"/><path d="m4.156 44.476 105.275 35.581" stroke-linecap="round" stroke-linejoin="round"/></g><ellipse cx="36.027" cy="21.146" fill="#48d597" rx="6.001" ry="5.96"/><ellipse cx="20.103" cy="49.985" fill="#48d597" rx="7.205" ry="7.155"/><ellipse cx="92.434" cy="74.944" fill="#48d597" rx="5.148" ry="5.112"/><ellipse cx="98.177" cy="41.859" fill="#48d597" rx="6.733" ry="6.687"/><ellipse cx="79.286" cy="40.682" fill="#48d597" rx="4.514" ry="4.483"/><ellipse cx="38.081" cy="76.099" fill="#48d597" rx="4.977" ry="4.943"/></svg>