<svg xmlns="http://www.w3.org/2000/svg" width="115.652" height="115.653" viewBox="0 0 115.652 115.653">
  <g id="networkglobe_o_m" transform="translate(-93.197 -93.632)">
    <circle id="Ellipse_22" data-name="Ellipse 22" cx="56.326" cy="56.326" r="56.326" transform="translate(94.697 95.131)" fill="none" stroke="#48d597" stroke-miterlimit="10" stroke-width="3"/>
    <path id="Path_167" data-name="Path 167" d="M157.366,96.893c-17.889,0-37.22,17.137-45.949,42.339-6.125,17.679-5.845,36.147.751,49.4,3.9,7.847,9.742,13.257,16.889,15.646,19.857,6.642,44.257-11.746,54.386-40.983,6.125-17.68,5.845-36.148-.751-49.4-3.9-7.847-9.742-13.257-16.889-15.646A26.491,26.491,0,0,0,157.366,96.893Z" transform="translate(3.764 0.538)" fill="none" stroke="#48d597" stroke-linecap="round" stroke-linejoin="round" stroke-width="3"/>
    <path id="Path_168" data-name="Path 168" d="M160.583,97.8c-7.281,0-21.407,18.712-31.65,48.135-8.23,23.633-10.966,46.155-6.659,54.771a5.078,5.078,0,0,0,2.737,2.781c6.839,2.274,22-16.857,32.824-47.952h0c8.23-23.631,10.966-46.154,6.659-54.772a5.075,5.075,0,0,0-2.737-2.78A3.683,3.683,0,0,0,160.583,97.8Z" transform="translate(7.809 0.816)" fill="none" stroke="#48d597" stroke-linecap="round" stroke-linejoin="round" stroke-width="3"/>
    <path id="Path_169" data-name="Path 169" d="M114.929,103.333c8.481,11,21.926,20.173,37.33,25.379,15.423,5.212,31.727,6.087,45.215,2.492" transform="translate(6.183 2.506)" fill="none" stroke="#48d597" stroke-linecap="round" stroke-linejoin="round" stroke-width="3"/>
    <path id="Path_170" data-name="Path 170" d="M180.324,181.676c-8.481-11-21.924-20.166-37.323-25.372-15.419-5.211-31.722-6.085-45.215-2.492" transform="translate(0.944 17.268)" fill="none" stroke="#48d597" stroke-linecap="round" stroke-linejoin="round" stroke-width="3"/>
    <line id="Line_249" data-name="Line 249" x2="105.275" y2="35.581" transform="translate(97.353 138.108)" fill="none" stroke="#48d597" stroke-linecap="round" stroke-linejoin="round" stroke-width="3"/>
    <ellipse id="Ellipse_23" data-name="Ellipse 23" cx="6.001" cy="5.96" rx="6.001" ry="5.96" transform="translate(123.223 108.818)" fill="#48d597"/>
    <ellipse id="Ellipse_24" data-name="Ellipse 24" cx="7.205" cy="7.155" rx="7.205" ry="7.155" transform="translate(106.095 136.462)" fill="#48d597"/>
    <ellipse id="Ellipse_25" data-name="Ellipse 25" cx="5.148" cy="5.112" rx="5.148" ry="5.112" transform="translate(180.483 163.464)" fill="#48d597"/>
    <ellipse id="Ellipse_26" data-name="Ellipse 26" cx="6.733" cy="6.687" rx="6.733" ry="6.687" transform="translate(184.641 128.804)" fill="#48d597"/>
    <ellipse id="Ellipse_27" data-name="Ellipse 27" cx="4.514" cy="4.483" rx="4.514" ry="4.483" transform="translate(167.969 129.831)" fill="#48d597"/>
    <ellipse id="Ellipse_28" data-name="Ellipse 28" cx="4.977" cy="4.943" rx="4.977" ry="4.943" transform="translate(126.301 164.788)" fill="#48d597"/>
  </g>
</svg>
