<svg viewBox="0 0 59.29 44.92" xmlns="http://www.w3.org/2000/svg"><path d="m46.66 40.55-12-9.93a5.31 5.31 0 0 0 -7.83-6c-2.68-2.05-5.13-3.9-5.13-3.9l-2.56 1.48v3.08l5.19 3.26a5.29 5.29 0 0 0 8.17 5.07z" fill="#48d597"/><g fill="none" stroke="#48d597" stroke-miterlimit="10" stroke-width="2.92"><path d="m1.47 28.75v.86a28 28 0 0 0 4.04 14.56"/><path d="m9.24 10.16a28.17 28.17 0 0 0 -7.45 15.1"/><path d="m27.36 1.51a28.09 28.09 0 0 0 -15.83 6.49"/><path d="m47.77 8a28 28 0 0 0 -16.69-6.54"/><path d="m57.5 25.27a28.09 28.09 0 0 0 -7.5-15.2"/><path d="m54 43.87a28 28 0 0 0 3.87-14.26c0-.29 0-.57 0-.86"/></g></svg>