<svg xmlns="http://www.w3.org/2000/svg" viewBox="0 0 59.29 44.92"><defs><style>.cls-1{fill:#48d597;}.cls-2{fill:none;stroke:#48d597;stroke-miterlimit:10;stroke-width:2.92px;}</style></defs><title>speed</title><g id="Layer_2" data-name="Layer 2"><g id="Products_Concepts" data-name="Products/Concepts"><g id="speed_o_m"><path class="cls-1" d="M46.66,40.55l-12-9.93a5.31,5.31,0,0,0-7.83-6c-2.68-2.05-5.13-3.9-5.13-3.9l-2.56,1.48,0,3.08,5.19,3.26a5.29,5.29,0,0,0,8.17,5.07Z"/><path class="cls-2" d="M1.47,28.75c0,.29,0,.57,0,.86A28,28,0,0,0,5.51,44.17"/><path class="cls-2" d="M9.24,10.16a28.17,28.17,0,0,0-7.45,15.1"/><path class="cls-2" d="M27.36,1.51A28.09,28.09,0,0,0,11.53,8"/><path class="cls-2" d="M47.77,8A28,28,0,0,0,31.08,1.46"/><path class="cls-2" d="M57.5,25.27A28.09,28.09,0,0,0,50,10.07"/><path class="cls-2" d="M54,43.87a28,28,0,0,0,3.87-14.26c0-.29,0-.57,0-.86"/></g></g></g></svg>