<?xml version="1.0" encoding="utf-8"?>
<!-- Generator: Adobe Illustrator 23.0.4, SVG Export Plug-In . SVG Version: 6.00 Build 0)  -->
<svg version="1.1" id="Layer_1" xmlns="http://www.w3.org/2000/svg" xmlns:xlink="http://www.w3.org/1999/xlink" x="0px" y="0px"
	 viewBox="0 0 139.9 135.5" style="enable-background:new 0 0 139.9 135.5;" xml:space="preserve">
<style type="text/css">
	.st0{fill:none;stroke:#48D597;stroke-width:3;stroke-miterlimit:10;}
	.st1{fill:none;}
</style>
<g id="securityOpsCenter_o_m" transform="translate(-102.672 -421.429)">
	<g id="Group_1445" transform="translate(104.172 422.929)">
		<g id="PTSN_o_gry">
			<g id="Group_1444">
				<g id="Group_1443">
					<g id="Group_1442">
						<g id="Building_o_g">
							<path id="Path_192" class="st0" d="M78.1,123.1H0V0h88.9v67.6"/>
							<path id="Path_193" class="st0" d="M57.4,121.1V95.8H34.2v25.2"/>
						</g>
					</g>
				</g>
			</g>
			<line id="Line_283" class="st0" x1="18.9" y1="53.4" x2="70.2" y2="53.4"/>
			<line id="Line_284" class="st0" x1="18.9" y1="69.5" x2="70.2" y2="69.5"/>
			<line id="Line_285" class="st0" x1="18.9" y1="37.2" x2="70.2" y2="37.2"/>
			<line id="Line_286" class="st0" x1="18.9" y1="21.1" x2="70.2" y2="21.1"/>
		</g>
	</g>
</g>
<g id="database_o_m" transform="translate(-685.438 -29.054)">
	<path id="Path_194" class="st0" d="M765.6,135.9v15.4c0.6,6.6,11.6,11.8,28.4,11.8s29.2-5.3,29.8-11.8l0-16.8"/>
	<path id="Path_195" class="st0" d="M765.6,118.1v18.2c0.6,6.6,12.7,11.8,29.1,11.8s28.5-5.3,29.1-11.8v-16.8"/>
	<path id="Path_196" class="st0" d="M767.6,106.8l-2,3.3v9.7c0.6,6.6,13.4,11.8,29.1,11.8s28.5-5.3,29.1-11.8v-9.7l-1.7-3.3"/>
	<g id="Ellipse_35" transform="translate(764.938 95.096)">
		<ellipse class="st1" cx="29.8" cy="11.7" rx="29.8" ry="11.7"/>
		<ellipse class="st0" cx="29.8" cy="11.7" rx="28.3" ry="10.2"/>
	</g>
</g>
</svg>
