<svg xmlns="http://www.w3.org/2000/svg" width="64.581" height="78.748" viewBox="0 0 64.581 78.748">
  <g id="Packets_o_m" transform="translate(-716.586 -261.752)">
    <path id="Path_197" data-name="Path 197" d="M726.234,290.678h-8.149v-7.836h8.149v-9.795l-8.149-.979v-8.815h40.163v8.815h-6.985v11.1h6.985v7.183H743.7v17.957H718.086v-7.57l8.44-.254" fill="none" stroke="#48d597" stroke-miterlimit="10" stroke-width="3"/>
    <path id="Path_198" data-name="Path 198" d="M779.667,339H761.914V319.084h17.753V328.1" fill="none" stroke="#48d597" stroke-miterlimit="10" stroke-width="3"/>
    <rect id="Rectangle_328" data-name="Rectangle 328" width="9.604" height="10.774" transform="translate(752.978 300.147)" fill="none" stroke="#48d597" stroke-miterlimit="10" stroke-width="3"/>
    <path id="Path_199" data-name="Path 199" d="M751.609,334.284h-13.97V318.612h13.97v7.836" fill="none" stroke="#48d597" stroke-miterlimit="10" stroke-width="3"/>
    <path id="Path_200" data-name="Path 200" d="M726.234,290.678h-8.149v-7.836h8.149v-9.795l-8.149-.979v-8.815h40.163v8.815h-6.985v11.1h6.985v7.183H743.7v17.957H718.086v-7.57l8.44-.254Z" fill="none" stroke="#48d597" stroke-miterlimit="10" stroke-width="3"/>
    <rect id="Rectangle_329" data-name="Rectangle 329" width="9.604" height="10.774" transform="translate(752.978 300.147)" fill="none" stroke="#48d597" stroke-miterlimit="10" stroke-width="3"/>
    <path id="Path_201" data-name="Path 201" d="M751.609,334.284h-13.97V318.612h13.97v15.672Z" fill="none" stroke="#48d597" stroke-miterlimit="10" stroke-width="3"/>
    <path id="Path_202" data-name="Path 202" d="M779.667,339H761.914V319.084h17.753V339Z" fill="none" stroke="#48d597" stroke-miterlimit="10" stroke-width="3"/>
  </g>
</svg>
