<svg xmlns="http://www.w3.org/2000/svg" viewBox="0 0 57.32 65.32"><defs><style>.cls-1{fill:none;stroke:#48d597;stroke-miterlimit:10;stroke-width:3px;}</style></defs><title>bug</title><g id="Layer_2" data-name="Layer 2"><g id="Products_Concepts" data-name="Products/Concepts"><g id="Bug_o_m"><path class="cls-1" d="M39.65,26.4h-22L13,31.83s0,3.58,0,3.88V47.17c0,8.27,7.09,15,15.76,15s15.76-6.77,15.76-15V35.71c0-.3,0-3.88,0-3.88Z"/><path class="cls-1" d="M37.26,22.1V19.23c0-4.17-4.22-7.16-8.6-7.16s-8.59,3-8.59,7.16V22.1"/><line class="cls-1" x1="22.93" y1="13.5" x2="17.2" y2="0.61"/><line class="cls-1" x1="34.39" y1="13.5" x2="40.12" y2="0.61"/><polyline class="cls-1" points="12.9 32.13 7.17 27.83 4.31 17.8"/><polyline class="cls-1" points="12.9 52.18 7.17 56.48 5.74 65.08"/><polyline class="cls-1" points="12.9 39.29 4.31 42.16 1.44 52.18"/><polyline class="cls-1" points="44.42 32.13 50.15 27.83 53.02 17.8"/><polyline class="cls-1" points="44.42 52.18 50.15 56.48 51.59 65.08"/><polyline class="cls-1" points="44.42 39.29 53.02 42.16 55.88 52.18"/><line class="cls-1" x1="28.66" y1="32.13" x2="28.66" y2="62.21"/></g></g></g></svg>