<svg viewBox="0 0 51 50.94" xmlns="http://www.w3.org/2000/svg"><path d="m9 42 11.5-11.5m-8.39-23.33h8.39m5 13.33v-8.33m20 27.5v-10.84m-13.33 15.84h8.33m-10-24.17h-10v10h10zm-21.34-1.67-8.66 5 5 8.66 8.66-5zm-8.6-15v6.67l5.77 3.33 5.78-3.33v-6.67l-5.78-3.33zm28.27 35.06h-6.66l-3.34 5.78 3.34 5.77h6.66l3.34-5.77zm15.84-36.72-5.78 10h11.55zm-19.17 0a5 5 0 1 0 5 5 5 5 0 0 0 -5-5zm20 37.5a5 5 0 1 0 5 5 5 5 0 0 0 -5-5zm-40 0a5 5 0 1 0 5 5 5 5 0 0 0 -5-4.95zm40-17.56a3.34 3.34 0 1 0 3.33 3.34 3.34 3.34 0 0 0 -3.33-3.29z" fill="none" stroke="#fff" stroke-linejoin="round"/></svg>