<svg viewBox="0 0 100 100" xmlns="http://www.w3.org/2000/svg"><circle cx="50" cy="50" fill="#061f80" r="45"/><path d="m50 10a40 40 0 1 1 -40 40 40 40 0 0 1 40-40m0-10a50 50 0 1 0 50 50 50 50 0 0 0 -50-50z" fill="#05309f"/><path d="m37.19 62.83 8.92-8.92m-6.53-18.15h6.53m3.89 10.37v-6.48m15.56 21.35v-8.39m-10.37 12.32h6.48m-7.78-18.8h-7.78v7.78h7.78zm-16.6-1.29-6.73 3.89 3.88 6.73 6.74-3.89zm-6.69-11.67v5.19l4.49 2.64 4.49-2.59v-5.24l-4.49-2.59zm22 27.27h-5.19l-2.6 4.49 2.6 4.49h5.18l2.6-4.49zm12.31-28.56-4.49 7.77h9zm-14.91 0a3.89 3.89 0 1 0 3.89 3.88 3.89 3.89 0 0 0 -3.89-3.88zm15.56 29.12a3.89 3.89 0 1 0 3.88 3.89 3.89 3.89 0 0 0 -3.88-3.89zm-31.11 0a3.89 3.89 0 1 0 3.89 4 3.89 3.89 0 0 0 -3.89-3.92zm31.11-13.57a2.59 2.59 0 1 0 2.59 2.57 2.59 2.59 0 0 0 -2.59-2.57z" fill="none" stroke="#fff" stroke-linejoin="round"/></svg>