<svg xmlns="http://www.w3.org/2000/svg" viewBox="0 0 50.57 50.5"><defs><style>.cls-1{fill:none;stroke:#fff;stroke-linejoin:round;}</style></defs><title>interence</title><g id="Layer_2" data-name="Layer 2"><g id="DESIGN_2" data-name="DESIGN 2"><path id="chart--bubble-line" class="cls-1" d="M12.17,28.33A3.33,3.33,0,1,1,15.5,25,3.34,3.34,0,0,1,12.17,28.33ZM15.5,25a3.34,3.34,0,1,0-3.33,3.33A3.33,3.33,0,0,0,15.5,25ZM.5,0V50H50.57M43.83,11.67H50.5M.5,25H8.83M23.2,35.92,14.58,27.3m24.6-12.58-12,20.75m1.63,2.86a3.33,3.33,0,1,0-3.33,3.34A3.33,3.33,0,0,0,28.83,38.33Zm15-26.66A3.33,3.33,0,1,0,40.5,15,3.34,3.34,0,0,0,43.83,11.67Z"/></g></g></svg>