<svg xmlns="http://www.w3.org/2000/svg" width="111.189" height="117.5" viewBox="0 0 111.189 117.5">
  <g id="server_o_m" transform="translate(-113.075 -88.432)">
    <rect id="Rectangle_314" data-name="Rectangle 314" width="108.189" height="31.555" transform="translate(114.575 89.931)" fill="none" stroke="#48d597" stroke-miterlimit="10" stroke-width="3"/>
    <rect id="Rectangle_315" data-name="Rectangle 315" width="108.189" height="31.555" transform="translate(114.575 131.404)" fill="none" stroke="#48d597" stroke-miterlimit="10" stroke-width="3"/>
    <rect id="Rectangle_316" data-name="Rectangle 316" width="108.189" height="31.555" transform="translate(114.575 172.877)" fill="none" stroke="#48d597" stroke-miterlimit="10" stroke-width="3"/>
    <g id="Group_1403" data-name="Group 1403" transform="translate(128.66 184.726)">
      <path id="Path_158" data-name="Path 158" d="M135.4,146.335h0a4.019,4.019,0,0,1,4.035-3.832,3.848,3.848,0,0,1,3.843,3.832,3.894,3.894,0,0,1-3.843,4.025,4.053,4.053,0,0,1-4.035-4.025Z" transform="translate(-111.935 -142.503)" fill="#48d597"/>
      <path id="Path_159" data-name="Path 159" d="M128.892,146.335h0a4.019,4.019,0,0,1,4.035-3.832,3.848,3.848,0,0,1,3.842,3.832,3.894,3.894,0,0,1-3.842,4.025,4.053,4.053,0,0,1-4.035-4.025Z" transform="translate(-117.161 -142.503)" fill="#48d597"/>
      <path id="Path_160" data-name="Path 160" d="M122.386,146.335h0a3.894,3.894,0,0,1,4.035-3.832,3.848,3.848,0,0,1,3.843,3.832,3.894,3.894,0,0,1-3.843,4.025,3.935,3.935,0,0,1-4.035-4.025Z" transform="translate(-122.386 -142.503)" fill="#48d597"/>
    </g>
    <g id="Group_1404" data-name="Group 1404" transform="translate(128.66 143.254)">
      <path id="Path_161" data-name="Path 161" d="M135.4,123.335h0a4.019,4.019,0,0,1,4.035-3.832,3.848,3.848,0,0,1,3.843,3.832,3.894,3.894,0,0,1-3.843,4.025,4.053,4.053,0,0,1-4.035-4.025Z" transform="translate(-111.935 -119.503)" fill="#48d597"/>
      <path id="Path_162" data-name="Path 162" d="M128.892,123.335h0a4.019,4.019,0,0,1,4.035-3.832,3.848,3.848,0,0,1,3.842,3.832,3.894,3.894,0,0,1-3.842,4.025,4.053,4.053,0,0,1-4.035-4.025Z" transform="translate(-117.161 -119.503)" fill="#48d597"/>
      <path id="Path_163" data-name="Path 163" d="M122.386,123.335h0a3.894,3.894,0,0,1,4.035-3.832,3.848,3.848,0,0,1,3.843,3.832,3.894,3.894,0,0,1-3.843,4.025,3.935,3.935,0,0,1-4.035-4.025Z" transform="translate(-122.386 -119.503)" fill="#48d597"/>
    </g>
    <g id="Group_1405" data-name="Group 1405" transform="translate(128.66 101.781)">
      <path id="Path_164" data-name="Path 164" d="M135.4,100.335h0a4.019,4.019,0,0,1,4.035-3.832,3.848,3.848,0,0,1,3.843,3.832,3.894,3.894,0,0,1-3.843,4.025,4.053,4.053,0,0,1-4.035-4.025Z" transform="translate(-111.935 -96.503)" fill="#48d597"/>
      <path id="Path_165" data-name="Path 165" d="M128.892,100.335h0a4.019,4.019,0,0,1,4.035-3.832,3.848,3.848,0,0,1,3.842,3.832,3.894,3.894,0,0,1-3.842,4.025,4.053,4.053,0,0,1-4.035-4.025Z" transform="translate(-117.161 -96.503)" fill="#48d597"/>
      <path id="Path_166" data-name="Path 166" d="M122.386,100.335h0a3.894,3.894,0,0,1,4.035-3.832,3.848,3.848,0,0,1,3.843,3.832,3.894,3.894,0,0,1-3.843,4.025,3.935,3.935,0,0,1-4.035-4.025Z" transform="translate(-122.386 -96.503)" fill="#48d597"/>
    </g>
  </g>
</svg>
