<svg viewBox="0 0 112 84.85" xmlns="http://www.w3.org/2000/svg"><path d="m88.9 77.07-23.13-19.2a10.25 10.25 0 0 0 -15.13-11.57c-5.2-4-9.92-7.53-9.92-7.53l-5 2.85-.07 6s4.63 2.93 10 6.3a10.25 10.25 0 0 0 15.8 9.82z" fill="#60c091"/><g fill="none" stroke="#60c091" stroke-miterlimit="10" stroke-width="3"><path d="m1.53 54.27v1.66a54.09 54.09 0 0 0 7.8 28.14"/><path d="m16.56 18.32a54.37 54.37 0 0 0 -14.42 29.21"/><path d="m51.58 1.61a54.24 54.24 0 0 0 -30.58 12.56"/><path d="m91 14.18a54.23 54.23 0 0 0 -32.24-12.68"/><path d="m109.85 47.53a54.22 54.22 0 0 0 -14.57-29.37"/><path d="m103 83.51a54.26 54.26 0 0 0 7.5-27.58c0-.56 0-1.11 0-1.66"/></g></svg>