<svg xmlns="http://www.w3.org/2000/svg" viewBox="0 0 51.77 51"><defs><style>.cls-1{fill:none;stroke:#fff;stroke-linejoin:round;}</style></defs><title>train</title><g id="Layer_2" data-name="Layer 2"><g id="DESIGN_2" data-name="DESIGN 2"><path id="data-insights" class="cls-1" d="M23.83,50.5h-10v-10h10ZM37.17,27.17h-10v10h10ZM5.5.5a5,5,0,1,0,5,5A5,5,0,0,0,5.5.5Zm0,40a5,5,0,1,0,5,5A5,5,0,0,0,5.5,40.5Zm26.67,0a5,5,0,1,0,5,5A5,5,0,0,0,32.17,40.5Zm13.33,0a5,5,0,1,0,5,5A5,5,0,0,0,45.5,40.5ZM18.83,27.17a5,5,0,1,0,5,5A5,5,0,0,0,18.83,27.17Zm26.67,0-5.77,10H51.27Zm-40,0V15.5m-4.71,7L5.5,27.17l4.71-4.72"/></g></g></svg>