<svg viewBox="0 0 100 100" xmlns="http://www.w3.org/2000/svg"><circle cx="50" cy="50" fill="#05309f" r="45"/><path d="m50 10a40 40 0 1 1 -40 40 40 40 0 0 1 40-40m0-10a50 50 0 1 0 50 50 50 50 0 0 0 -50-50z" fill="#054acc"/><path d="m48.68 69.42h-7.77v-7.77h7.77zm10.32-18.13h-7.73v7.77h7.73zm-24.56-20.71a3.89 3.89 0 1 0 3.88 3.88 3.88 3.88 0 0 0 -3.88-3.88zm0 31.07a3.89 3.89 0 1 0 3.88 3.89 3.88 3.88 0 0 0 -3.88-3.89zm20.72 0a3.89 3.89 0 1 0 3.84 3.89 3.89 3.89 0 0 0 -3.84-3.89zm10.35 0a3.89 3.89 0 1 0 3.89 3.89 3.89 3.89 0 0 0 -3.89-3.89zm-20.71-10.36a3.89 3.89 0 1 0 3.88 3.89 3.89 3.89 0 0 0 -3.88-3.89zm20.71 0-4.51 7.77h9zm-31.07 0v-9.06m-3.66 5.4 3.66 3.66 3.66-3.66" fill="none" stroke="#fff" stroke-linejoin="round"/></svg>