<svg enable-background="new 0 0 142.7 133.8" viewBox="0 0 142.7 133.8" xmlns="http://www.w3.org/2000/svg" xmlns:xlink="http://www.w3.org/1999/xlink"><clipPath id="a"><path d="m0 0h142.7v133.8h-142.7z"/></clipPath><g clip-path="url(#a)" fill="none" stroke="#48d597" stroke-miterlimit="10" stroke-width="3"><path d="m22.6 22.4h96.9v88.2h-96.9z"/><path d="m41.5 39.6h59.2v53.9h-59.2z"/><g transform="translate(38.414)"><path d="m0 0v22.9"/><path d="m16.2 0v22.9"/><path d="m32.3 0v22.9"/><path d="m48.5 0v22.9"/><path d="m64.6 0v22.9"/></g><g transform="translate(38.414 110.932)"><path d="m0 0v22.9"/><path d="m16.2 0v22.9"/><path d="m32.3 0v22.9"/><path d="m48.5 0v22.9"/><path d="m64.6 0v22.9"/></g><g transform="translate(119.794 34.6)"><path d="m22.9 0h-22.9"/><path d="m22.9 16.2h-22.9"/><path d="m22.9 32.3h-22.9"/><path d="m22.9 48.5h-22.9"/><path d="m22.9 64.6h-22.9"/></g><g transform="translate(0 34.6)"><path d="m22.9 0h-22.9"/><path d="m22.9 16.2h-22.9"/><path d="m22.9 32.3h-22.9"/><path d="m22.9 48.5h-22.9"/><path d="m22.9 64.6h-22.9"/></g></g></svg>