<svg enable-background="new 0 0 111.2 117.5" viewBox="0 0 111.2 117.5" xmlns="http://www.w3.org/2000/svg"><path d="m1.5 1.5h108.2v31.6h-108.2z" fill="none" stroke="#60c091" stroke-miterlimit="10" stroke-width="3"/><path d="m1.5 43h108.2v31.6h-108.2z" fill="none" stroke="#60c091" stroke-miterlimit="10" stroke-width="3"/><path d="m1.5 84.4h108.2v31.6h-108.2z" fill="none" stroke="#60c091" stroke-miterlimit="10" stroke-width="3"/><g fill="#60c091"><path d="m39 100.1c.1-2.1 1.9-3.8 4-3.8 2.2 0 3.9 1.7 4 3.9s-1.7 3.9-3.9 4h-.1c-2.2-.1-3.9-1.9-4-4.1z"/><path d="m27.3 100.1c.1-2.1 1.9-3.8 4-3.8 2.2 0 3.9 1.7 4 3.9s-1.7 3.9-3.9 4h-.1c-2.2 0-4-1.8-4-4.1z"/><path d="m15.6 100.1c0-2.2 1.8-3.9 4-3.8h.1c2.2 0 3.9 1.7 4 3.9 0 2.2-1.7 3.9-3.9 4h-.1c-2.2 0-3.9-1.7-4-3.8-.1-.1-.1-.2-.1-.3z"/><path d="m39 58.7c.1-2.1 1.9-3.8 4-3.8s3.8 1.7 3.8 3.8c.1 2.1-1.6 3.9-3.8 4-2.1-.1-3.9-1.9-4-4z"/><path d="m27.3 58.7c.1-2.1 1.9-3.8 4-3.8s3.8 1.7 3.8 3.8c.1 2.1-1.6 3.9-3.8 4h-.1c-2.1 0-3.9-1.8-3.9-4z"/><path d="m15.6 58.7c0-2.1 1.8-3.9 3.9-3.8h.1c2.1 0 3.8 1.7 3.8 3.8.1 2.1-1.6 3.9-3.8 4h-.1c-2.2 0-3.9-1.7-4-3.8.1-.1.1-.2.1-.2z"/><path d="m39 17.2c.1-2.1 1.9-3.8 4-3.8s3.8 1.7 3.8 3.8c.1 2.1-1.6 3.9-3.8 4-2.1-.1-3.9-1.8-4-4z"/><path d="m27.3 17.2c.1-2.1 1.9-3.8 4-3.8s3.8 1.7 3.8 3.8c.1 2.1-1.6 3.9-3.8 4h-.1c-2.1 0-3.9-1.8-3.9-4z"/><path d="m15.6 17.2c0-2.1 1.8-3.9 3.9-3.8h.1c2.1 0 3.8 1.7 3.8 3.8.1 2.1-1.6 3.9-3.8 4h-.1c-2.2 0-4-1.7-4-3.8.1-.1.1-.2.1-.2z"/></g></svg>