<svg xmlns="http://www.w3.org/2000/svg" viewBox="0 0 111.19 117.5"><defs><style>.cls-1{fill:none;stroke:#60c091;stroke-miterlimit:10;stroke-width:3px;}.cls-2{fill:#60c091;}</style></defs><title>server</title><g id="Layer_2" data-name="Layer 2"><g id="Layer_1-2" data-name="Layer 1"><g id="server_o_m" data-name="server o m"><rect id="Rectangle_314" data-name="Rectangle 314" class="cls-1" x="1.5" y="1.5" width="108.19" height="31.56"/><rect id="Rectangle_315" data-name="Rectangle 315" class="cls-1" x="1.5" y="42.97" width="108.19" height="31.56"/><rect id="Rectangle_316" data-name="Rectangle 316" class="cls-1" x="1.5" y="84.45" width="108.19" height="31.56"/><g id="Group_1403" data-name="Group 1403"><path id="Path_158" data-name="Path 158" class="cls-2" d="M39.05,100.13h0a4,4,0,0,1,4-3.84,3.93,3.93,0,0,1,.08,7.86h-.08A4.05,4.05,0,0,1,39.05,100.13Z"/><path id="Path_159" data-name="Path 159" class="cls-2" d="M27.32,100.13h0a4,4,0,0,1,4-3.84,3.93,3.93,0,0,1,.08,7.86h-.08A4,4,0,0,1,27.32,100.13Z"/><path id="Path_160" data-name="Path 160" class="cls-2" d="M15.59,100.13h0a3.9,3.9,0,0,1,3.95-3.84h.08a3.93,3.93,0,0,1,.08,7.86h-.08a3.93,3.93,0,0,1-4-3.83A.61.61,0,0,1,15.59,100.13Z"/></g><g id="Group_1404" data-name="Group 1404"><path id="Path_161" data-name="Path 161" class="cls-2" d="M39.05,58.65h0a4,4,0,0,1,4-3.83,3.86,3.86,0,0,1,3.84,3.83,3.9,3.9,0,0,1-3.76,4h-.08A4.05,4.05,0,0,1,39.05,58.65Z"/><path id="Path_162" data-name="Path 162" class="cls-2" d="M27.32,58.65h0a4,4,0,0,1,4-3.83,3.85,3.85,0,0,1,3.84,3.83,3.89,3.89,0,0,1-3.76,4h-.08A4,4,0,0,1,27.32,58.65Z"/><path id="Path_163" data-name="Path 163" class="cls-2" d="M15.59,58.65h0a3.89,3.89,0,0,1,3.95-3.83h.08a3.85,3.85,0,0,1,3.84,3.83,3.89,3.89,0,0,1-3.76,4h-.08a3.93,3.93,0,0,1-4-3.83A.67.67,0,0,1,15.59,58.65Z"/></g><g id="Group_1405" data-name="Group 1405"><path id="Path_164" data-name="Path 164" class="cls-2" d="M39.05,17.18h0a4,4,0,0,1,4-3.83,3.85,3.85,0,0,1,3.84,3.83,3.91,3.91,0,0,1-3.76,4h-.08A4.06,4.06,0,0,1,39.05,17.18Z"/><path id="Path_165" data-name="Path 165" class="cls-2" d="M27.32,17.18h0a4,4,0,0,1,4-3.83,3.85,3.85,0,0,1,3.84,3.83,3.9,3.9,0,0,1-3.76,4h-.08A4.05,4.05,0,0,1,27.32,17.18Z"/><path id="Path_166" data-name="Path 166" class="cls-2" d="M15.59,17.18h0a3.89,3.89,0,0,1,3.95-3.83h.08a3.85,3.85,0,0,1,3.84,3.83,3.9,3.9,0,0,1-3.76,4h-.08a3.93,3.93,0,0,1-4-3.84A.6.6,0,0,1,15.59,17.18Z"/></g></g></g></g></svg>