<?xml version="1.0" encoding="utf-8"?>
<!-- Generator: Adobe Illustrator 23.0.4, SVG Export Plug-In . SVG Version: 6.00 Build 0)  -->
<svg version="1.1" id="Layer_1" xmlns="http://www.w3.org/2000/svg" xmlns:xlink="http://www.w3.org/1999/xlink" x="0px" y="0px"
	 viewBox="0 0 138.6 136.2" style="enable-background:new 0 0 138.6 136.2;" xml:space="preserve">
<style type="text/css">
	.st0{clip-path:url(#SVGID_2_);}
	.st1{fill:none;stroke:#48D597;stroke-width:3;stroke-miterlimit:10;}
</style>
<g>
	<defs>
		<rect id="SVGID_1_" width="138.6" height="136.2"/>
	</defs>
	<clipPath id="SVGID_2_">
		<use xlink:href="#SVGID_1_"  style="overflow:visible;"/>
	</clipPath>
	<g id="tools_o_m" transform="translate(0 0)" class="st0">
		<path id="Path_92" class="st1" d="M127.9,103.8L67.2,43.3c-1.1-1.1-2.4-2.1-3.8-2.9c2.2-10.3-1-21-8.5-28.4
			C45.7,2.9,31.9,0.3,20.1,5.5l20.1,20c2.8,2.8,2.9,7.4,0,10.2c0,0,0,0,0,0l-6.6,6.5c-2.9,2.8-7.5,2.8-10.3,0L3.6,22.7
			C-2.6,38.8,5.4,56.8,21.5,63c5.6,2.2,11.8,2.7,17.7,1.4l8.4,9.3l55.3,55.1c6.9,6.9,18.1,6.9,25,0
			C134.8,122,134.8,110.8,127.9,103.8"/>
		<path id="Path_93" class="st1" d="M85.8,33.6c3.6-3.6,22.5-23.4,28.7-29c6.3-5.7,16.4-2,18.9,0.4c2.1,2.1,6.7,12.9,0.7,18.9
			c-6,6-28.7,28.2-28.7,28.2"/>
		<path id="Path_94" class="st1" d="M38.2,93l-14.8,14.6l-8.2,1.2L2,128.9l5.2,5.3L27,121.1l1.4-7.8l15.3-14.6"/>
	</g>
</g>
</svg>
