<svg viewBox="0 0 185 185" xmlns="http://www.w3.org/2000/svg"><path d="m92.5 1a91.5 91.5 0 1 1 -91.5 91.5 91.61 91.61 0 0 1 91.5-91.5m0-1a92.5 92.5 0 1 0 92.5 92.5 92.5 92.5 0 0 0 -92.5-92.5z" fill="#054acc"/><path d="m70 124.64a8 8 0 0 1 -8-8m24.07-56.28a6.43 6.43 0 1 0 -12.86 0m6.43 20.89a6.43 6.43 0 0 0 0-12.86m-8.31 16.34a6.3 6.3 0 0 0 -4.54-1.87 6.09 6.09 0 0 0 -6.43 6.43 6.43 6.43 0 0 0 1.88 4.54m17.4 11.53a6.43 6.43 0 1 0 0 12.85m0 12.86a6.43 6.43 0 0 0 6.43-6.43m6.43-48.21h28.93a6.43 6.43 0 0 0 6.43-6.43v-6.43m0 57.86v-6.43a6.43 6.43 0 0 0 -6.43-6.43h-28.93m0-22.5h38.57m0-25.71a3.22 3.22 0 1 0 -3.21 3.21 3.22 3.22 0 0 0 3.21-3.21zm0 64.28a3.22 3.22 0 1 0 -3.21 3.22 3.21 3.21 0 0 0 3.21-3.22zm6.43-38.57a3.22 3.22 0 1 0 -3.21 3.22 3.21 3.21 0 0 0 3.21-3.22zm-45 12.86h38.57m6.43 0a3.22 3.22 0 1 0 -3.21 3.21 3.22 3.22 0 0 0 3.21-3.21zm-45-38.57a12.82 12.82 0 0 0 -23.94-6.36h-.17a14.41 14.41 0 0 0 -11.61 23 17.68 17.68 0 0 0 0 31.12 14.41 14.41 0 0 0 11.61 23h.17a12.82 12.82 0 0 0 23.94-6.41zm-24.11-6.23a12.9 12.9 0 0 0 .12 12.66m-.12 35.35a14.44 14.44 0 0 0 -11.25 5.38" fill="none" stroke="#fff" stroke-miterlimit="10"/></svg>