<?xml version="1.0" encoding="utf-8"?>
<!-- Generator: Adobe Illustrator 23.0.6, SVG Export Plug-In . SVG Version: 6.00 Build 0)  -->
<svg version="1.1" id="Layer_1" xmlns="http://www.w3.org/2000/svg" xmlns:xlink="http://www.w3.org/1999/xlink" x="0px" y="0px"
	 viewBox="0 0 100 100" style="enable-background:new 0 0 100 100;" xml:space="preserve">
<style type="text/css">
	.st0{fill:#3D3D3D;}
	.st1{fill:none;stroke:#FFFFFF;stroke-linejoin:round;}
	.st2{fill:#565656;}
</style>
<circle class="st0" cx="50" cy="50" r="50"/>
<path class="st1" d="M36.2,69.6c-2.7,0-4.9-2.2-4.9-4.9l0,0 M46.1,30.4c0-2.2-1.8-3.9-3.9-3.9s-3.9,1.8-3.9,3.9l0,0 M42.1,43.1
	c2.2,0.1,4-1.6,4.1-3.7c0.1-2.2-1.6-4-3.7-4.1c-0.1,0-0.3,0-0.4,0 M37.1,45.3c-0.7-0.7-1.7-1.2-2.8-1.1c-2.1-0.1-3.8,1.4-3.9,3.5
	c0,0.1,0,0.2,0,0.4c0,1,0.4,2,1.1,2.8 M42.1,57.8c-2.2-0.1-4,1.6-4.1,3.7c-0.1,2.2,1.6,4,3.7,4.1c0.1,0,0.3,0,0.4,0 M42.1,73.5
	c2.2,0,3.9-1.8,3.9-3.9l0,0 M50,40.2h17.7c2.2,0,3.9-1.8,3.9-3.9l0,0v-3.9 M71.6,67.7v-3.9c0-2.2-1.8-3.9-3.9-3.9l0,0H50 M50,46.1
	h23.6 M73.6,30.4c0-1.1-0.9-2-2-2s-2,0.9-2,2s0.9,2,2,2S73.6,31.5,73.6,30.4z M73.6,69.6c0-1.1-0.9-2-2-2s-2,0.9-2,2s0.9,2,2,2
	S73.6,70.7,73.6,69.6z M77.5,46.1c0-1.1-0.9-2-2-2s-2,0.9-2,2s0.9,2,2,2S77.5,47.2,77.5,46.1z M50,53.9h23.6 M77.5,53.9
	c0-1.1-0.9-2-2-2s-2,0.9-2,2s0.9,2,2,2S77.5,55,77.5,53.9z M50,30.4c0-4.3-3.5-7.8-7.8-7.9c-2.8,0-5.4,1.5-6.8,3.9h-0.1
	c-4.9,0-8.8,4-8.8,8.8c0,1.9,0.6,3.7,1.7,5.2c-5.2,2.8-7.2,9.4-4.3,14.7c1,1.8,2.5,3.3,4.3,4.3c-1.1,1.5-1.7,3.3-1.7,5.2
	c0,4.9,4,8.8,8.8,8.8h0h0.1c2.1,3.8,6.9,5.1,10.7,2.9c2.5-1.4,4-4,3.9-6.8V30.4z M35.3,26.5c-1.3,2.4-1.3,5.3,0.1,7.7 M35.3,55.9
	c-2.7,0-5.2,1.2-6.9,3.3"/>
<path class="st2" d="M50,10c22.1,0,40,17.9,40,40S72.1,90,50,90S10,72.1,10,50S27.9,10,50,10 M50,0C22.4,0,0,22.4,0,50
	s22.4,50,50,50s50-22.4,50-50S77.6,0,50,0z"/>
</svg>
