<svg viewBox="0 0 185 185" xmlns="http://www.w3.org/2000/svg"><path d="m92.5 1a91.5 91.5 0 1 1 -91.5 91.5 91.61 91.61 0 0 1 91.5-91.5m0-1a92.5 92.5 0 1 0 92.5 92.5 92.5 92.5 0 0 0 -92.5-92.5z" fill="#054acc"/><g fill="none" stroke="#fff" stroke-miterlimit="10"><path d="m70.65 79.69 3.62 3.76 7.11-7.11"/><path d="m89.02 80.76h24.55"/><path d="m70.65 100.61 3.62 3.76 7.11-7.11"/><path d="m89.02 101.69h24.55"/><path d="m70.65 121.27 3.62 3.76 7.11-7.11"/><path d="m89.02 122.34h24.55"/><path d="m101.52 51.79c-1.16-2.48-4.76-4.29-9-4.29s-7.86 1.81-9 4.29h-9.4v12.21h36.76v-12.21z"/><path d="m110.89 55.68h14.81v81.82h-66.4v-81.82h14.83"/></g></svg>