<svg viewBox="0 0 185 185" xmlns="http://www.w3.org/2000/svg"><path d="m92.5 1a91.5 91.5 0 1 1 -91.5 91.5 91.61 91.61 0 0 1 91.5-91.5m0-1a92.5 92.5 0 1 0 92.5 92.5 92.5 92.5 0 0 0 -92.5-92.5z" fill="#054acc"/><path d="m68.47 98.49a6 6 0 1 1 6-6 6 6 0 0 1 -6 6zm6-6a6 6 0 1 0 -6 6 6 6 0 0 0 5.99-5.99zm-27-44.94v89.88h90m-12.07-68.9h12m-89.9 23.97h15m25.8 19.63-15.48-15.49m44.18-22.64-21.5 37.32m2.93 5.15a6 6 0 1 0 -6 6 6 6 0 0 0 6-6zm27-47.94a6 6 0 1 0 -6 6 6 6 0 0 0 5.97-6z" fill="none" stroke="#fff" stroke-miterlimit="10"/></svg>