<svg viewBox="0 0 185 185" xmlns="http://www.w3.org/2000/svg"><path d="m92.5 1a91.5 91.5 0 1 1 -91.5 91.5 91.61 91.61 0 0 1 91.5-91.5m0-1a92.5 92.5 0 1 0 92.5 92.5 92.5 92.5 0 0 0 -92.5-92.5z" fill="#054acc"/><path d="m68.5 137.5v-22.5a24 24 0 0 1 18.5-23.32 13.68 13.68 0 1 1 11.1 0 24 24 0 0 1 18.4 23.32v22.5m18-18v-22.5a24 24 0 0 0 -18.45-23.34 13.67 13.67 0 1 0 -18.05-7.03m-10.9 0a13.68 13.68 0 1 0 -18.1 7.05 24 24 0 0 0 -18.5 23.32v22.5" fill="none" stroke="#fff" stroke-miterlimit="10"/></svg>