<svg xmlns="http://www.w3.org/2000/svg" viewBox="0 0 87.01 100.49"><defs><style>.cls-1{fill:none;stroke:#48d597;stroke-miterlimit:10;stroke-width:3px;}</style></defs><title>bug</title><g id="Layer_2" data-name="Layer 2"><g id="Layer_1-2" data-name="Layer 1"><path class="cls-1" d="M60.49,40.46h-34l-7.18,8.4v23.7c0,12.78,11,23.18,24.35,23.18S68,85.28,68,72.56V48.86Z"/><path class="cls-1" d="M56.8,33.82V29.38c0-6.44-6.52-11.06-13.29-11.06S30.23,23,30.23,29.38v4.44"/><path class="cls-1" d="M34.65,20.53,25.8.61"/><path class="cls-1" d="M52.36,20.53,61.22.61"/><path class="cls-1" d="M19.15,49.32,10.3,42.67,5.88,27.17"/><path class="cls-1" d="M19.15,80.3,10.3,87,8.09,100.24"/><path class="cls-1" d="M19.15,60.38,5.88,64.82,1.44,80.3"/><path class="cls-1" d="M67.86,49.32l8.86-6.65,4.43-15.5"/><path class="cls-1" d="M67.86,80.3,76.72,87l2.22,13.29"/><path class="cls-1" d="M67.86,60.38l13.29,4.44L85.57,80.3"/><path class="cls-1" d="M43.51,49.32V95.8"/></g></g></svg>