<svg viewBox="0 0 117.28 117.28" xmlns="http://www.w3.org/2000/svg"><g fill="none" stroke="#60c091" stroke-width="3"><circle cx="58.64" cy="58.64" r="57.14" stroke-miterlimit="10"/><path d="m68.9 3.83c-18.15 0-37.76 17.39-46.61 43-6.22 17.93-5.93 36.67.76 50.11 4 8 9.88 13.45 17.13 15.88 20.14 6.74 44.9-11.92 55.17-41.58 6.22-17.94 5.93-36.67-.76-50.12-4-8-9.88-13.45-17.13-15.87a27.06 27.06 0 0 0 -8.56-1.42z" stroke-linecap="round" stroke-linejoin="round"/><path d="m76.26 5c-7.38 0-21.71 19-32.11 48.87-8.35 24-11.12 46.82-6.75 55.56a5.13 5.13 0 0 0 2.78 2.82c6.93 2.31 22.31-17.1 33.3-48.65 8.35-23.97 11.12-46.82 6.75-55.6a5.13 5.13 0 0 0 -2.78-2.82 3.41 3.41 0 0 0 -1.19-.18z" stroke-linecap="round" stroke-linejoin="round"/><path d="m28.3 12.36c8.6 11.17 22.24 20.47 37.87 25.75s32.18 6.18 45.83 2.53" stroke-linecap="round" stroke-linejoin="round"/><path d="m89.33 106.82c-8.61-11.16-22.25-20.46-37.87-25.74s-32.18-6.18-45.87-2.53" stroke-linecap="round" stroke-linejoin="round"/><path d="m4.19 45.1 106.81 36.09" stroke-linecap="round" stroke-linejoin="round"/></g><ellipse cx="36.49" cy="21.39" fill="#60c091" rx="7.05" ry="7"/><ellipse cx="21.12" cy="50.43" fill="#60c091" rx="8.06" ry="8"/><ellipse cx="93.57" cy="75.82" fill="#60c091" rx="6.04" ry="6"/><ellipse cx="99.3" cy="43.16" fill="#60c091" rx="7.55" ry="7.5"/><ellipse cx="79.88" cy="41.7" fill="#60c091" rx="6.04" ry="6"/><ellipse cx="37.6" cy="78.17" fill="#60c091" rx="6.04" ry="6"/></svg>