<svg viewBox="0 0 97.64 86.74" xmlns="http://www.w3.org/2000/svg"><g fill="none" stroke="#60c091" stroke-miterlimit="10" stroke-width="3"><path d="m19.48 49.08a38.82 38.82 0 1 1 54.11 26.5"/><path d="m93.9 27.34-42.51 14.93"/><path d="m83.81 12.37-65.32 22.95"/><path d="m95.2 45.47-33.15 11.64"/><path d="m41.68 40.32c-4.76-18.6-2.87-34.74 4.73-37.09 8.23-2.54 20 12 26.36 32.49 5.27 17 5.52 32.83.58 39.11"/><path d="m1.5 72.15a13.1 13.1 0 0 1 9.5-12.6q0-.45 0-.9a9.62 9.62 0 0 1 15-8 19.24 19.24 0 0 1 36.27 9 12.86 12.86 0 0 1 -1.48 25.64h-46.19a13.11 13.11 0 0 1 -13.1-13.14"/></g></svg>