<svg xmlns="http://www.w3.org/2000/svg" viewBox="0 0 97.64 86.74"><defs><style>.cls-1{fill:none;stroke:#60c091;stroke-miterlimit:10;stroke-width:3px;}</style></defs><title>hybridcloud</title><g id="Layer_2" data-name="Layer 2"><g id="Layer_1-2" data-name="Layer 1"><g id="hybridcloud_o_m" data-name="hybridcloud o m"><path id="Path_205" data-name="Path 205" class="cls-1" d="M19.48,49.08a38.82,38.82,0,1,1,54.11,26.5"/><line id="Line_272" data-name="Line 272" class="cls-1" x1="93.9" y1="27.34" x2="51.39" y2="42.27"/><line id="Line_273" data-name="Line 273" class="cls-1" x1="83.81" y1="12.37" x2="18.49" y2="35.32"/><line id="Line_274" data-name="Line 274" class="cls-1" x1="95.2" y1="45.47" x2="62.05" y2="57.11"/><path id="Path_207" data-name="Path 207" class="cls-1" d="M41.68,40.32c-4.76-18.6-2.87-34.74,4.73-37.09,8.23-2.54,20,12,26.36,32.49,5.27,17,5.52,32.83.58,39.11"/><g id="Group_1443" data-name="Group 1443"><path id="Path_208" data-name="Path 208" class="cls-1" d="M1.5,72.15A13.1,13.1,0,0,1,11,59.55q0-.45,0-.9a9.62,9.62,0,0,1,15-8,19.24,19.24,0,0,1,36.27,9v0a12.86,12.86,0,0,1-1.48,25.64H14.6A13.11,13.11,0,0,1,1.5,72.15"/></g></g></g></g></svg>