<svg xmlns="http://www.w3.org/2000/svg" width="89.905" height="79.9" viewBox="0 0 89.905 79.9">
  <g id="hybridcloud_o_m" transform="translate(-704.245 -276.751)">
    <path id="Path_205" data-name="Path 205" d="M722.258,321.946a35.655,35.655,0,1,1,49.688,24.333" fill="none" stroke="#48d597" stroke-miterlimit="10" stroke-width="3"/>
    <path id="Path_206" data-name="Path 206" d="M723.324,325.612" fill="none" stroke="#48d597" stroke-miterlimit="10" stroke-width="3.3"/>
    <line id="Line_272" data-name="Line 272" x1="39.038" y2="13.714" transform="translate(751.564 301.978)" fill="none" stroke="#48d597" stroke-miterlimit="10" stroke-width="3.3"/>
    <line id="Line_273" data-name="Line 273" x1="59.993" y2="21.074" transform="translate(721.346 288.23)" fill="none" stroke="#48d597" stroke-miterlimit="10" stroke-width="3.3"/>
    <line id="Line_274" data-name="Line 274" x1="30.451" y2="10.697" transform="translate(761.348 318.624)" fill="none" stroke="#48d597" stroke-miterlimit="10" stroke-width="3.3"/>
    <path id="Path_207" data-name="Path 207" d="M742.643,313.9c-4.371-17.089-2.638-31.9,4.346-34.062,7.555-2.335,18.393,11.022,24.207,29.834,4.836,15.651,5.073,30.147.531,35.921" fill="none" stroke="#48d597" stroke-miterlimit="10" stroke-width="3"/>
    <g id="Group_1443" data-name="Group 1443">
      <path id="Path_208" data-name="Path 208" d="M705.745,343.126a12.038,12.038,0,0,1,8.738-11.568c-.026-.276-.035-.549-.035-.826a8.842,8.842,0,0,1,13.729-7.377,17.673,17.673,0,0,1,33.317,8.22v.033a11.811,11.811,0,0,1-1.359,23.543H717.771a12.036,12.036,0,0,1-12.026-12.025" fill="none" stroke="#48d597" stroke-miterlimit="10" stroke-width="3"/>
    </g>
  </g>
</svg>
