<svg viewBox="0 0 96.44 96.44" xmlns="http://www.w3.org/2000/svg"><g fill="none" stroke="#60c091" stroke-width="3"><circle cx="48.22" cy="48.22" r="46.72" stroke-miterlimit="10"/><path d="m56.61 3.41c-14.84 0-30.87 14.21-38.12 35.12-5.08 14.66-4.84 30 .63 41 3.24 6.5 8.08 11 14 13 16.47 5.51 36.71-9.74 45.11-34 5.08-14.67 4.85-30-.62-41-3.24-6.51-8.08-11-14-13a21.92 21.92 0 0 0 -7-1.12z" stroke-linecap="round" stroke-linejoin="round"/><path d="m62.63 4.39c-6 0-17.76 15.52-26.25 39.93-6.83 19.6-9.1 38.28-5.53 45.43a4.2 4.2 0 0 0 2.27 2.3c5.67 1.89 18.25-14 27.23-39.77 6.83-19.6 9.1-38.28 5.52-45.43a4.21 4.21 0 0 0 -2.27-2.31 3.17 3.17 0 0 0 -.97-.15z" stroke-linecap="round" stroke-linejoin="round"/><path d="m23.41 10.38c7 9.13 18.19 16.73 31 21s26.32 5 37.51 2.07" stroke-linecap="round" stroke-linejoin="round"/><path d="m73.31 87.61c-7-9.12-18.19-16.73-31-21s-26.31-5.09-37.47-2.11" stroke-linecap="round" stroke-linejoin="round"/><path d="m3.7 37.15 87.33 29.51" stroke-linecap="round" stroke-linejoin="round"/></g><ellipse cx="30.11" cy="17.76" fill="#60c091" rx="5.76" ry="5.72"/><ellipse cx="17.54" cy="41.51" fill="#60c091" rx="6.59" ry="6.54"/><ellipse cx="76.78" cy="62.27" fill="#60c091" rx="4.94" ry="4.91"/><ellipse cx="81.46" cy="35.56" fill="#60c091" rx="6.17" ry="6.13"/><ellipse cx="65.58" cy="34.37" fill="#60c091" rx="4.94" ry="4.91"/><ellipse cx="31.02" cy="64.18" fill="#60c091" rx="4.94" ry="4.91"/></svg>