<svg xmlns="http://www.w3.org/2000/svg" viewBox="0 0 96.44 96.44"><defs><style>.cls-1,.cls-2{fill:none;stroke:#60c091;stroke-width:3px;}.cls-1{stroke-miterlimit:10;}.cls-2{stroke-linecap:round;stroke-linejoin:round;}.cls-3{fill:#60c091;}</style></defs><title>networkglobe</title><g id="Layer_2" data-name="Layer 2"><g id="Layer_1-2" data-name="Layer 1"><g id="networkglobe_o_m" data-name="networkglobe o m"><circle id="Ellipse_32" data-name="Ellipse 32" class="cls-1" cx="48.22" cy="48.22" r="46.72"/><path id="Path_190" data-name="Path 190" class="cls-2" d="M56.61,3.41c-14.84,0-30.87,14.21-38.12,35.12-5.08,14.66-4.84,30,.63,41,3.24,6.5,8.08,11,14,13,16.47,5.51,36.71-9.74,45.11-34,5.08-14.67,4.85-30-.62-41-3.24-6.51-8.08-11-14-13A21.92,21.92,0,0,0,56.61,3.41Z"/><path id="Path_191" data-name="Path 191" class="cls-2" d="M62.63,4.39c-6,0-17.76,15.52-26.25,39.93-6.83,19.6-9.1,38.28-5.53,45.43a4.2,4.2,0,0,0,2.27,2.3c5.67,1.89,18.25-14,27.23-39.77h0c6.83-19.6,9.1-38.28,5.52-45.43A4.21,4.21,0,0,0,63.6,4.54,3.17,3.17,0,0,0,62.63,4.39Z"/><path id="Path_192" data-name="Path 192" class="cls-2" d="M23.41,10.38c7,9.13,18.19,16.73,31,21s26.32,5,37.51,2.07"/><path id="Path_193" data-name="Path 193" class="cls-2" d="M73.31,87.61c-7-9.12-18.19-16.73-31-21S16,61.52,4.84,64.5"/><line id="Line_268" data-name="Line 268" class="cls-2" x1="3.7" y1="37.15" x2="91.03" y2="66.66"/><ellipse id="Ellipse_33" data-name="Ellipse 33" class="cls-3" cx="30.11" cy="17.76" rx="5.76" ry="5.72"/><ellipse id="Ellipse_34" data-name="Ellipse 34" class="cls-3" cx="17.54" cy="41.51" rx="6.59" ry="6.54"/><ellipse id="Ellipse_35" data-name="Ellipse 35" class="cls-3" cx="76.78" cy="62.27" rx="4.94" ry="4.91"/><ellipse id="Ellipse_36" data-name="Ellipse 36" class="cls-3" cx="81.46" cy="35.56" rx="6.17" ry="6.13"/><ellipse id="Ellipse_37" data-name="Ellipse 37" class="cls-3" cx="65.58" cy="34.37" rx="4.94" ry="4.91"/><ellipse id="Ellipse_38" data-name="Ellipse 38" class="cls-3" cx="31.02" cy="64.18" rx="4.94" ry="4.91"/></g></g></g></svg>