<svg viewBox="0 0 250.42 250.42" xmlns="http://www.w3.org/2000/svg"><g stroke="#60c091" stroke-width="3"><path d="m143.64 152.58 4.67-2.51 5.3-3 9.65 3.44 9.5-3.52 5.35 3 11.1 5.94v18.14h-45.57" fill="none" stroke-miterlimit="10"/><ellipse cx="163.26" cy="125.11" fill="none" rx="12.93" ry="16.36" stroke-miterlimit="10"/><path d="m115.4 136.24 8.93 5 18.5 9.9v30.24h-86.51v-30.23l18.34-9.85 8.83-4.94 16.08 5.74z" fill="none" stroke-miterlimit="10"/><ellipse cx="99.58" cy="105.31" fill="none" rx="21.56" ry="27.27" stroke-miterlimit="10"/><path d="m182.55 68.2c0 11.92-13.05 21.59-29.15 21.59-3 0-5 .1-5 .1l-10.09 10.68-.7-14.21c-8-3.84-13.39-10.54-13.39-18.16 0-11.92 13.06-21.59 29.16-21.59s29.17 9.67 29.17 21.59z" fill="none" stroke-miterlimit="10"/><circle cx="154.06" cy="69.1" fill="#60c091" r="4.72"/><circle cx="167.51" cy="69.1" fill="#60c091" r="4.72"/><circle cx="138.92" cy="69.1" fill="#60c091" r="4.72"/></g><circle cx="125.21" cy="125.21" fill="none" r="125.21"/><circle cx="125.21" cy="125.21" fill="none" r="123.71" stroke="#60c091" stroke-width="3"/></svg>