<svg height="117.5" viewBox="0 0 111.189 117.5" width="111.189" xmlns="http://www.w3.org/2000/svg"><path d="m1.5 1.499h108.189v31.555h-108.189z" fill="none" stroke="#48d597" stroke-miterlimit="10" stroke-width="3"/><path d="m1.5 42.972h108.189v31.555h-108.189z" fill="none" stroke="#48d597" stroke-miterlimit="10" stroke-width="3"/><path d="m1.5 84.445h108.189v31.555h-108.189z" fill="none" stroke="#48d597" stroke-miterlimit="10" stroke-width="3"/><g fill="#48d597"><path d="m135.4 146.335a4.019 4.019 0 0 1 4.035-3.832 3.848 3.848 0 0 1 3.843 3.832 3.894 3.894 0 0 1 -3.843 4.025 4.053 4.053 0 0 1 -4.035-4.025z" transform="translate(-96.35 -46.209)"/><path d="m128.892 146.335a4.019 4.019 0 0 1 4.035-3.832 3.848 3.848 0 0 1 3.842 3.832 3.894 3.894 0 0 1 -3.842 4.025 4.053 4.053 0 0 1 -4.035-4.025z" transform="translate(-101.576 -46.209)"/><path d="m122.386 146.335a3.894 3.894 0 0 1 4.035-3.832 3.848 3.848 0 0 1 3.843 3.832 3.894 3.894 0 0 1 -3.843 4.025 3.935 3.935 0 0 1 -4.035-4.025z" transform="translate(-106.801 -46.209)"/><path d="m135.4 123.335a4.019 4.019 0 0 1 4.035-3.832 3.848 3.848 0 0 1 3.843 3.832 3.894 3.894 0 0 1 -3.843 4.025 4.053 4.053 0 0 1 -4.035-4.025z" transform="translate(-96.35 -64.681)"/><path d="m128.892 123.335a4.019 4.019 0 0 1 4.035-3.832 3.848 3.848 0 0 1 3.842 3.832 3.894 3.894 0 0 1 -3.842 4.025 4.053 4.053 0 0 1 -4.035-4.025z" transform="translate(-101.576 -64.681)"/><path d="m122.386 123.335a3.894 3.894 0 0 1 4.035-3.832 3.848 3.848 0 0 1 3.843 3.832 3.894 3.894 0 0 1 -3.843 4.025 3.935 3.935 0 0 1 -4.035-4.025z" transform="translate(-106.801 -64.681)"/><path d="m135.4 100.335a4.019 4.019 0 0 1 4.035-3.832 3.848 3.848 0 0 1 3.843 3.832 3.894 3.894 0 0 1 -3.843 4.025 4.053 4.053 0 0 1 -4.035-4.025z" transform="translate(-96.35 -83.154)"/><path d="m128.892 100.335a4.019 4.019 0 0 1 4.035-3.832 3.848 3.848 0 0 1 3.842 3.832 3.894 3.894 0 0 1 -3.842 4.025 4.053 4.053 0 0 1 -4.035-4.025z" transform="translate(-101.576 -83.154)"/><path d="m122.386 100.335a3.894 3.894 0 0 1 4.035-3.832 3.848 3.848 0 0 1 3.843 3.832 3.894 3.894 0 0 1 -3.843 4.025 3.935 3.935 0 0 1 -4.035-4.025z" transform="translate(-106.801 -83.154)"/></g></svg>