<svg viewBox="0 0 96.78 73.32" xmlns="http://www.w3.org/2000/svg"><path d="m76.7 66.52-19.9-16.52a8.82 8.82 0 0 0 -13-10c-4.47-3.42-8.54-6.48-8.54-6.48l-4.26 2.48-.07 5.12s4 2.52 8.63 5.42a8.82 8.82 0 0 0 13.57 8.46z" fill="#60c091"/><g fill="none" stroke="#60c091" stroke-miterlimit="10" stroke-width="3"><path d="m1.52 46.91v1.42a46.69 46.69 0 0 0 6.72 24.22"/><path d="m14.45 16a46.8 46.8 0 0 0 -12.4 25.1"/><path d="m44.59 1.59a46.7 46.7 0 0 0 -26.33 10.81"/><path d="m78.53 12.41a46.62 46.62 0 0 0 -27.76-10.91"/><path d="m94.73 41.1a46.79 46.79 0 0 0 -12.54-25.27"/><path d="m88.83 72.06a46.68 46.68 0 0 0 6.45-23.73c0-.48 0-.95 0-1.42"/></g></svg>