<svg xmlns="http://www.w3.org/2000/svg" viewBox="0 0 183.26 162.51"><defs><style>.cls-1{fill:none;stroke:#60c091;stroke-miterlimit:10;stroke-width:3px;}</style></defs><title>hybridcloud</title><g id="Layer_2" data-name="Layer 2"><g id="Layer_1-2" data-name="Layer 1"><g id="hybridcloud_o_m" data-name="hybridcloud o m"><path id="Path_205" data-name="Path 205" class="cls-1" d="M35.75,92.13A74,74,0,1,1,138.81,142.6"/><line id="Line_272" data-name="Line 272" class="cls-1" x1="177.5" y1="50.72" x2="96.53" y2="79.16"/><line id="Line_273" data-name="Line 273" class="cls-1" x1="158.29" y1="22.2" x2="33.86" y2="65.92"/><line id="Line_274" data-name="Line 274" class="cls-1" x1="179.98" y1="85.24" x2="116.83" y2="107.43"/><path id="Path_207" data-name="Path 207" class="cls-1" d="M78,75.45C69,40,72.56,9.28,87,4.8,102.71,0,125.19,27.67,137.25,66.68c10,32.47,10.52,62.53,1.1,74.5"/><g id="Group_1443" data-name="Group 1443"><path id="Path_208" data-name="Path 208" class="cls-1" d="M1.5,136.06a25,25,0,0,1,18.12-24c-.05-.57-.07-1.14-.07-1.71A18.33,18.33,0,0,1,48,95.06a36.65,36.65,0,0,1,69.1,17v.07A24.5,24.5,0,0,1,114.31,161H26.44A25,25,0,0,1,1.5,136.07"/></g></g></g></g></svg>