<svg enable-background="new 0 0 107.4 64.2" viewBox="0 0 107.4 64.2" xmlns="http://www.w3.org/2000/svg"><g fill="#fff" transform="translate(.001)"><path d="m30.3 23.3c0 1.1.1 2.1.4 3.2.3.9.7 1.7 1.1 2.6.2.2.2.5.2.8 0 .4-.3.8-.7 1.1l-2.3 1.5c-.3.2-.6.3-.9.3-.4 0-.8-.2-1.1-.5-.5-.5-.9-1.1-1.3-1.7s-.7-1.3-1.1-2.1c-2.6 3.2-6.4 5-10.5 4.9-2.6.1-5.2-.8-7.1-2.6-3.8-4.1-3.5-10.5.6-14.2 2.2-1.9 5.1-2.8 8.8-2.8 1.3 0 2.5.1 3.8.3s2.7.5 4.1.8v-2.6c0-2.7-.6-4.6-1.7-5.7s-3-1.6-5.8-1.6c-1.3 0-2.6.2-3.9.5s-2.6.7-3.9 1.2c-.3.1-.7.3-1.1.4-.2.1-.4.1-.6.1-.5 0-.8-.4-.8-1.1v-1.7c0-.4 0-.9.2-1.3.3-.3.6-.6 1-.8 1.4-.7 2.9-1.2 4.5-1.6 1.8-.5 3.7-.7 5.6-.7 4.3 0 7.4 1 9.4 2.9s3 4.9 3 8.8zm-14.5 5.5c1.3 0 2.5-.2 3.7-.6 1.3-.5 2.5-1.2 3.4-2.3.6-.7 1-1.4 1.2-2.3.2-1 .4-2.1.4-3.1v-1.5c-1.1-.3-2.2-.5-3.3-.6s-2.2-.2-3.4-.2c-2.4 0-4.1.5-5.3 1.4-2.3 1.7-2.8 4.8-1.1 7.1.9 1.4 2.6 2.2 4.4 2.1zm28.7 3.8c-.5 0-1-.1-1.4-.4-.4-.4-.6-.9-.8-1.4l-8.3-27.5c-.2-.5-.3-.9-.3-1.4-.1-.4.2-.8.7-.9h.2 3.4c.5-.1 1 .1 1.4.4.4.4.6.9.7 1.4l6 23.6 5.6-23.6c.1-.5.3-1 .7-1.4.4-.3.9-.4 1.4-.4h2.9c.5-.1 1 .1 1.4.4.4.4.6.9.7 1.4l5.6 23.9 6.2-23.9c.1-.5.4-1 .7-1.4.4-.3.9-.4 1.4-.4h3.3c.4-.1.8.2.9.7v.2c0 .2 0 .4-.1.6-.1.3-.1.6-.2.9l-8.6 27.5c-.1.5-.4 1-.8 1.4-.4.3-.9.4-1.4.4h-3.1c-.5.1-1-.1-1.4-.4-.4-.4-.6-.9-.7-1.4l-5.5-23-5.5 23c-.1.5-.3 1-.7 1.4-.4.3-.9.4-1.4.4h-3zm45.9 1c-1.9 0-3.7-.2-5.5-.6-1.4-.3-2.8-.8-4.1-1.4-.5-.2-.8-.6-1.1-1-.1-.3-.2-.7-.2-1v-1.8c0-.8.3-1.1.8-1.1.2 0 .4 0 .6.1s.5.2.9.4c1.3.6 2.6 1 3.9 1.2 1.4.3 2.8.4 4.2.4 1.8.1 3.6-.3 5.2-1.2 1.2-.7 1.9-2 1.9-3.4 0-.9-.3-1.8-1-2.5-1-.9-2.3-1.5-3.6-1.9l-5.2-1.6c-2.2-.6-4.2-1.9-5.7-3.6-1.2-1.5-1.8-3.3-1.8-5.2 0-1.4.3-2.7 1-4 .6-1.1 1.5-2.1 2.6-2.9 1.1-.9 2.4-1.5 3.7-1.9 1.5-.4 3-.6 4.5-.6.8 0 1.6 0 2.4.1s1.6.2 2.3.4 1.4.4 2 .6c.5.2 1 .4 1.5.6.4.2.8.5 1.1.9.2.3.3.8.3 1.2v1.7c0 .8-.3 1.1-.8 1.1-.5-.1-.9-.2-1.4-.4-2.2-1-4.5-1.4-6.9-1.4-1.6-.1-3.3.2-4.8 1-1.1.7-1.8 1.9-1.7 3.2 0 1 .4 1.9 1.1 2.5 1.2.9 2.5 1.6 3.9 2l5.1 1.6c2.2.6 4.1 1.7 5.5 3.4 1.1 1.4 1.7 3.2 1.6 5 0 1.4-.3 2.9-.9 4.1s-1.5 2.3-2.6 3.1c-1.2.9-2.5 1.6-4 2-1.4.6-3.1.9-4.8.9z"/><path d="m97.1 50.9c-11.8 8.7-28.8 13.3-43.5 13.3-19.6.1-38.6-7.1-53.1-20.2-1.1-1-.1-2.4 1.2-1.6 28.6 16.5 63.3 18.7 93.7 5.8 2-.9 3.6 1.3 1.7 2.7zm4.9-5.5c-1.5-1.9-9.9-.9-13.8-.5-1.1.1-1.3-.9-.2-1.6 6.7-4.7 17.8-3.4 19-1.8 1.3 1.6-.4 12.6-6.6 17.9-1 .8-1.9.4-1.5-.7 1.4-3.5 4.6-11.4 3.1-13.3z"/></g></svg>