<?xml version="1.0" encoding="utf-8"?>
<!-- Generator: Adobe Illustrator 23.0.4, SVG Export Plug-In . SVG Version: 6.00 Build 0)  -->
<svg version="1.1" id="Layer_1" xmlns="http://www.w3.org/2000/svg" xmlns:xlink="http://www.w3.org/1999/xlink" x="0px" y="0px"
	 viewBox="0 0 107.4 64.2" style="enable-background:new 0 0 107.4 64.2;" xml:space="preserve">
<style type="text/css">
	.st0{fill:#FFFFFF;}
</style>
<g id="Group_1517" transform="translate(0.001)">
	<path id="Path_387" class="st0" d="M30.3,23.3c0,1.1,0.1,2.1,0.4,3.2c0.3,0.9,0.7,1.7,1.1,2.6c0.2,0.2,0.2,0.5,0.2,0.8
		c0,0.4-0.3,0.8-0.7,1.1l-2.3,1.5c-0.3,0.2-0.6,0.3-0.9,0.3c-0.4,0-0.8-0.2-1.1-0.5c-0.5-0.5-0.9-1.1-1.3-1.7
		c-0.4-0.6-0.7-1.3-1.1-2.1c-2.6,3.2-6.4,5-10.5,4.9c-2.6,0.1-5.2-0.8-7.1-2.6c-3.8-4.1-3.5-10.5,0.6-14.2c2.2-1.9,5.1-2.8,8.8-2.8
		c1.3,0,2.5,0.1,3.8,0.3c1.3,0.2,2.7,0.5,4.1,0.8v-2.6c0-2.7-0.6-4.6-1.7-5.7C21.5,5.5,19.6,5,16.8,5c-1.3,0-2.6,0.2-3.9,0.5
		c-1.3,0.3-2.6,0.7-3.9,1.2C8.7,6.8,8.3,7,7.9,7.1C7.7,7.2,7.5,7.2,7.3,7.2c-0.5,0-0.8-0.4-0.8-1.1V4.4c0-0.4,0-0.9,0.2-1.3
		c0.3-0.3,0.6-0.6,1-0.8c1.4-0.7,2.9-1.2,4.5-1.6c1.8-0.5,3.7-0.7,5.6-0.7c4.3,0,7.4,1,9.4,2.9c2,1.9,3,4.9,3,8.8L30.3,23.3
		L30.3,23.3z M15.8,28.8c1.3,0,2.5-0.2,3.7-0.6c1.3-0.5,2.5-1.2,3.4-2.3c0.6-0.7,1-1.4,1.2-2.3c0.2-1,0.4-2.1,0.4-3.1v-1.5
		c-1.1-0.3-2.2-0.5-3.3-0.6c-1.1-0.1-2.2-0.2-3.4-0.2c-2.4,0-4.1,0.5-5.3,1.4c-2.3,1.7-2.8,4.8-1.1,7.1C12.3,28.1,14,28.9,15.8,28.8
		L15.8,28.8z M44.5,32.6c-0.5,0-1-0.1-1.4-0.4c-0.4-0.4-0.6-0.9-0.8-1.4L34,3.3c-0.2-0.5-0.3-0.9-0.3-1.4c-0.1-0.4,0.2-0.8,0.7-0.9
		c0.1,0,0.1,0,0.2,0H38c0.5-0.1,1,0.1,1.4,0.4c0.4,0.4,0.6,0.9,0.7,1.4l6,23.6l5.6-23.6c0.1-0.5,0.3-1,0.7-1.4
		c0.4-0.3,0.9-0.4,1.4-0.4h2.9c0.5-0.1,1,0.1,1.4,0.4c0.4,0.4,0.6,0.9,0.7,1.4l5.6,23.9l6.2-23.9c0.1-0.5,0.4-1,0.7-1.4
		c0.4-0.3,0.9-0.4,1.4-0.4H76c0.4-0.1,0.8,0.2,0.9,0.7c0,0.1,0,0.1,0,0.2c0,0.2,0,0.4-0.1,0.6c-0.1,0.3-0.1,0.6-0.2,0.9L68,30.9
		c-0.1,0.5-0.4,1-0.8,1.4c-0.4,0.3-0.9,0.4-1.4,0.4h-3.1c-0.5,0.1-1-0.1-1.4-0.4c-0.4-0.4-0.6-0.9-0.7-1.4l-5.5-23l-5.5,23
		c-0.1,0.5-0.3,1-0.7,1.4c-0.4,0.3-0.9,0.4-1.4,0.4H44.5z M90.4,33.6c-1.9,0-3.7-0.2-5.5-0.6c-1.4-0.3-2.8-0.8-4.1-1.4
		c-0.5-0.2-0.8-0.6-1.1-1c-0.1-0.3-0.2-0.7-0.2-1v-1.8c0-0.8,0.3-1.1,0.8-1.1c0.2,0,0.4,0,0.6,0.1c0.2,0.1,0.5,0.2,0.9,0.4
		c1.3,0.6,2.6,1,3.9,1.2c1.4,0.3,2.8,0.4,4.2,0.4c1.8,0.1,3.6-0.3,5.2-1.2c1.2-0.7,1.9-2,1.9-3.4c0-0.9-0.3-1.8-1-2.5
		c-1-0.9-2.3-1.5-3.6-1.9l-5.2-1.6c-2.2-0.6-4.2-1.9-5.7-3.6c-1.2-1.5-1.8-3.3-1.8-5.2c0-1.4,0.3-2.7,1-4c0.6-1.1,1.5-2.1,2.6-2.9
		C84.4,1.6,85.7,1,87,0.6C88.5,0.2,90,0,91.5,0c0.8,0,1.6,0,2.4,0.1c0.8,0.1,1.6,0.2,2.3,0.4c0.7,0.2,1.4,0.4,2,0.6
		c0.5,0.2,1,0.4,1.5,0.6c0.4,0.2,0.8,0.5,1.1,0.9c0.2,0.3,0.3,0.8,0.3,1.2v1.7c0,0.8-0.3,1.1-0.8,1.1c-0.5-0.1-0.9-0.2-1.4-0.4
		c-2.2-1-4.5-1.4-6.9-1.4c-1.6-0.1-3.3,0.2-4.8,1c-1.1,0.7-1.8,1.9-1.7,3.2c0,1,0.4,1.9,1.1,2.5c1.2,0.9,2.5,1.6,3.9,2l5.1,1.6
		c2.2,0.6,4.1,1.7,5.5,3.4c1.1,1.4,1.7,3.2,1.6,5c0,1.4-0.3,2.9-0.9,4.1c-0.6,1.2-1.5,2.3-2.6,3.1c-1.2,0.9-2.5,1.6-4,2
		C93.8,33.3,92.1,33.6,90.4,33.6L90.4,33.6z"/>
	<path id="Path_388" class="st0" d="M97.1,50.9c-11.8,8.7-28.8,13.3-43.5,13.3C34,64.3,15,57.1,0.5,44c-1.1-1-0.1-2.4,1.2-1.6
		C30.3,58.9,65,61.1,95.4,48.2C97.4,47.3,99,49.5,97.1,50.9L97.1,50.9z M102,45.4c-1.5-1.9-9.9-0.9-13.8-0.5
		C87.1,45,86.9,44,88,43.3c6.7-4.7,17.8-3.4,19-1.8c1.3,1.6-0.4,12.6-6.6,17.9c-1,0.8-1.9,0.4-1.5-0.7
		C100.3,55.2,103.5,47.3,102,45.4L102,45.4z"/>
</g>
</svg>
