<?xml version="1.0" encoding="utf-8"?>
<!-- Generator: Adobe Illustrator 23.0.4, SVG Export Plug-In . SVG Version: 6.00 Build 0)  -->
<svg version="1.1" id="Group_1510" xmlns="http://www.w3.org/2000/svg" xmlns:xlink="http://www.w3.org/1999/xlink" x="0px" y="0px"
	 viewBox="0 0 124.5 51.6" style="enable-background:new 0 0 124.5 51.6;" xml:space="preserve">
<style type="text/css">
	.st0{fill:#FFFFFF;}
</style>
<path id="Path_361" class="st0" d="M112.3,1.5c1.2-1.5,3.4-1.9,5-0.8c-1.2,0.3-2.6,0.3-3.7,0.9c-1,1.3-0.4,3.1-0.6,4.7
	c2.2,0,4.5,0,6.7,0c0-1.6,0.1-3.2,0.1-4.9l1.2,0v4.8c1.2,0,2.3,0,3.5,0.1v0.9c-1.2,0-2.4,0-3.5,0c0,3.5,0,6.9,0,10.4
	c0.1,0.9-0.2,2.2,0.6,2.8c0.8,0.6,1.9,0.5,2.9,0.7v0.9c-1.8,0-4.3-0.4-4.6-2.5c-0.2-4.1,0-8.2-0.1-12.2h-6.7c0,4.9,0,9.9,0,14.8
	c-0.3-0.1-0.8-0.3-1.1-0.4c-0.2-4.8-0.1-9.6-0.1-14.4c-1.1-0.2-2.7,0.4-3.3-0.9c1.1-0.1,2.2-0.1,3.2-0.2
	C111.9,4.6,111.7,2.9,112.3,1.5"/>
<path id="Path_362" class="st0" d="M2.2,0.1C2.6,0.2,3.6,0.4,4,0.5c3.3,6.5,6,13.2,9.1,19.8c3.5-6.4,6-13.3,9.1-19.8
	c0.7,0,1.3,0,2,0v21.4l-1.4-0.1c0-6.6,0.1-13.1,0-19.7C19.7,8.5,17,15.2,14,21.8h-1.3c-2-4.4-4-8.8-6-13.2C5.8,6.5,4.8,4.4,3.5,2.5
	C3.3,8.9,3.5,15.3,3.4,21.8c-0.3,0-1,0-1.3,0.1C2.1,14.6,2.1,7.4,2.2,0.1"/>
<path id="Path_363" class="st0" d="M28.6,0.4c0.3,0,0.9,0,1.1,0v2.9h-1.2C28.6,2.3,28.6,1.4,28.6,0.4"/>
<path id="Path_364" class="st0" d="M35.2,7.9c3.6-3.7,11.1-2.6,12.5,2.7c-0.3,0.1-0.8,0.3-1.1,0.4c-1-5.1-8.7-5.8-11.2-1.7
	c-1.8,3-1.7,6.7,0.2,9.6c2.5,3.2,8.7,3,10.3-1.1c0.4-0.8,0.7-1.9,1.9-1.6c-0.9,4-4.8,6.5-8.8,5.7c-0.2,0-0.4-0.1-0.6-0.2
	C32.5,20.5,31.2,11.9,35.2,7.9"/>
<path id="Path_365" class="st0" d="M28.6,6.2l1.2,0v15.5l-1.1,0.1C28.6,16.6,28.6,11.4,28.6,6.2"/>
<path id="Path_366" class="st0" d="M50.8,6.2H52c0,1,0,1.9,0.1,2.9c1.7-1.5,3.8-3.2,6.3-2.8c0.1,0.2,0.4,0.5,0.5,0.7
	c-2.9,0.1-6,1.6-6.7,4.7c-0.4,3.5,0,7-0.3,10.5c-0.3-0.2-0.8-0.5-1.1-0.6C50.6,16.4,50.8,11.3,50.8,6.2"/>
<path id="Path_367" class="st0" d="M64.6,7c-5.7,1.8-6,11.1-0.8,13.7c2.4,1.1,5.2,0.6,7.1-1.1c2.7-3,2.9-7.6,0.3-10.8
	C69.5,6.9,66.9,6.3,64.6,7 M63.9,6.2c2.8-1,5.9-0.3,8,1.7c3.2,3.4,3,9.6-0.6,12.6c-3.4,2.7-9.1,1.9-11.2-2
	C57.5,14.4,59.1,7.8,63.9,6.2"/>
<path id="Path_368" class="st0" d="M79.1,6.8c2.7-1.4,5.9-1.4,8.5,0.1c1.4,0.8,1.7,2.5,2.2,3.9c-1.9,0-1.4-2.4-2.8-3.2
	c-2.2-1.2-4.9-1.3-7.1-0.1c-1.2,0.7-1.6,2.3-0.9,3.6c0.2,0.4,0.6,0.7,1,1c2.7,1.4,6.1,1,8.7,2.7c1.5,1,1.8,3.1,1.2,4.7
	c-0.8,1.8-2.9,2.3-4.6,2.6c-2.7,0.4-6-0.2-7.6-2.6c-0.6-1-1.3-2.4,0-3c0.5,1.3,0.8,2.8,2,3.6c2.1,1.6,5.1,1.4,7.5,0.6
	c1.5-0.6,2.3-2.3,1.7-3.8c-0.2-0.5-0.5-0.9-1-1.3c-2.8-1.6-6.5-1-9.1-2.9c-1.5-1.2-1.8-3.5-0.6-5C78.4,7.3,78.7,7,79.1,6.8"/>
<path id="Path_369" class="st0" d="M99.3,6.8c-5.1,0.4-7,6.9-4.9,10.9c1.4,3.5,6.4,4.5,9.3,2.4c3.1-2.4,3.6-7.3,1.5-10.6
	C104,7.5,101.7,6.4,99.3,6.8 M97,6.4c3.1-1.3,6.6-0.6,8.9,1.9c2.7,3.5,2.5,8.3-0.3,11.6c-2.9,2.8-7.4,3-10.4,0.4
	C90.9,16.7,91.7,8.6,97,6.4"/>
<path id="Path_370" class="st0" d="M6.6,42.4h8.1c-1.3-3.4-2.5-6.8-3.9-10C9.1,35.6,8,39,6.6,42.4 M9,29.8c1.2,0,2.3,0,3.4,0.1
	c3,7.2,5.9,14.3,9.1,21.4c-1.1,0-2.2,0-3.4,0c-0.8-2.2-1.7-4.3-2.5-6.4c-3.4,0-6.7,0-10.1,0C4.8,47,3.9,49.1,3,51.2H0
	C3,44.1,6,36.9,9,29.8"/>
<path id="Path_371" class="st0" d="M59.7,38.7c1.6-2,3.6-3.6,6.3-3.6c0,0.9,0,1.7,0,2.6c-2.3,0.1-5,1-5.7,3.5
	c-0.8,3.3-0.2,6.6-0.4,10h-2.8c0-5.2,0-10.4,0-15.6h2.6L59.7,38.7L59.7,38.7z"/>
<path id="Path_372" class="st0" d="M69.2,42c3.4,0.1,6.8,0.1,10.3,0c-0.5-2.6-2.7-5-5.6-4.6C71.3,37.3,69.7,39.7,69.2,42 M68.5,38
	c2.7-3.4,8.5-3.8,11.4-0.5c1.5,1.9,2.3,4.3,2.2,6.7c-4.3,0-8.6,0-12.9,0c0.3,1.3,0.4,2.8,1.5,3.7c2.5,2.5,7.4,1.9,8.7-1.6
	c0.6,0,1.9,0,2.5,0.1c-1.5,5.4-9.1,6.7-12.9,3.1C66,46.4,65.8,41.5,68.5,38"/>
<path id="Path_373" class="st0" d="M22.5,35.6c4.5,0,9-0.1,13.4,0c-0.1,1.7-1.4,2.9-2.5,4.1c-2.7,3-5.4,6.1-8,9.2
	c3.6,0.7,7.2-0.4,10.8,0.4c0,0.4,0,1.4,0,1.9H22.1v-2c3.3-3.8,6.8-7.4,9.9-11.3c-3-0.3-6.1,0-9.2-0.2C22.7,37.2,22.6,36.1,22.5,35.6
	"/>
<path id="Path_374" class="st0" d="M38.7,35.6c0.9,0,1.8,0,2.8,0c0.1,3.8-0.2,7.7,0.1,11.6c1.4,4.1,8.5,2.2,8.5-1.9
	c0.1-3.2,0-6.5,0-9.7h2.7v15.6h-2.4c-0.1-0.5-0.2-1.6-0.2-2.1c-2.2,2.5-5.8,3.2-8.8,1.8c-1.9-0.8-2.5-3-2.5-4.9
	C38.6,42.5,38.7,39,38.7,35.6"/>
</svg>
