<svg enable-background="new 0 0 124.5 51.6" viewBox="0 0 124.5 51.6" xmlns="http://www.w3.org/2000/svg"><g fill="#fff"><path d="m112.3 1.5c1.2-1.5 3.4-1.9 5-.8-1.2.3-2.6.3-3.7.9-1 1.3-.4 3.1-.6 4.7h6.7c0-1.6.1-3.2.1-4.9h1.2v4.8c1.2 0 2.3 0 3.5.1v.9c-1.2 0-2.4 0-3.5 0v10.4c.1.9-.2 2.2.6 2.8s1.9.5 2.9.7v.9c-1.8 0-4.3-.4-4.6-2.5-.2-4.1 0-8.2-.1-12.2h-6.7v14.8c-.3-.1-.8-.3-1.1-.4-.2-4.8-.1-9.6-.1-14.4-1.1-.2-2.7.4-3.3-.9 1.1-.1 2.2-.1 3.2-.2.1-1.6-.1-3.3.5-4.7"/><path d="m2.2.1c.4.1 1.4.3 1.8.4 3.3 6.5 6 13.2 9.1 19.8 3.5-6.4 6-13.3 9.1-19.8h2v21.4l-1.4-.1c0-6.6.1-13.1 0-19.7-3.1 6.4-5.8 13.1-8.8 19.7h-1.3c-2-4.4-4-8.8-6-13.2-.9-2.1-1.9-4.2-3.2-6.1-.2 6.4 0 12.8-.1 19.3-.3 0-1 0-1.3.1 0-7.3 0-14.5.1-21.8"/><path d="m28.6.4h1.1v2.9h-1.2c.1-1 .1-1.9.1-2.9"/><path d="m35.2 7.9c3.6-3.7 11.1-2.6 12.5 2.7-.3.1-.8.3-1.1.4-1-5.1-8.7-5.8-11.2-1.7-1.8 3-1.7 6.7.2 9.6 2.5 3.2 8.7 3 10.3-1.1.4-.8.7-1.9 1.9-1.6-.9 4-4.8 6.5-8.8 5.7-.2 0-.4-.1-.6-.2-5.9-1.2-7.2-9.8-3.2-13.8"/><path d="m28.6 6.2h1.2v15.5l-1.1.1c-.1-5.2-.1-10.4-.1-15.6"/><path d="m50.8 6.2h1.2c0 1 0 1.9.1 2.9 1.7-1.5 3.8-3.2 6.3-2.8.1.2.4.5.5.7-2.9.1-6 1.6-6.7 4.7-.4 3.5 0 7-.3 10.5-.3-.2-.8-.5-1.1-.6-.2-5.2 0-10.3 0-15.4"/><path d="m64.6 7c-5.7 1.8-6 11.1-.8 13.7 2.4 1.1 5.2.6 7.1-1.1 2.7-3 2.9-7.6.3-10.8-1.7-1.9-4.3-2.5-6.6-1.8m-.7-.8c2.8-1 5.9-.3 8 1.7 3.2 3.4 3 9.6-.6 12.6-3.4 2.7-9.1 1.9-11.2-2-2.6-4.1-1-10.7 3.8-12.3"/><path d="m79.1 6.8c2.7-1.4 5.9-1.4 8.5.1 1.4.8 1.7 2.5 2.2 3.9-1.9 0-1.4-2.4-2.8-3.2-2.2-1.2-4.9-1.3-7.1-.1-1.2.7-1.6 2.3-.9 3.6.2.4.6.7 1 1 2.7 1.4 6.1 1 8.7 2.7 1.5 1 1.8 3.1 1.2 4.7-.8 1.8-2.9 2.3-4.6 2.6-2.7.4-6-.2-7.6-2.6-.6-1-1.3-2.4 0-3 .5 1.3.8 2.8 2 3.6 2.1 1.6 5.1 1.4 7.5.6 1.5-.6 2.3-2.3 1.7-3.8-.2-.5-.5-.9-1-1.3-2.8-1.6-6.5-1-9.1-2.9-1.5-1.2-1.8-3.5-.6-5 .2-.4.5-.7.9-.9"/><path d="m99.3 6.8c-5.1.4-7 6.9-4.9 10.9 1.4 3.5 6.4 4.5 9.3 2.4 3.1-2.4 3.6-7.3 1.5-10.6-1.2-2-3.5-3.1-5.9-2.7m-2.3-.4c3.1-1.3 6.6-.6 8.9 1.9 2.7 3.5 2.5 8.3-.3 11.6-2.9 2.8-7.4 3-10.4.4-4.3-3.6-3.5-11.7 1.8-13.9"/><path d="m6.6 42.4h8.1c-1.3-3.4-2.5-6.8-3.9-10-1.7 3.2-2.8 6.6-4.2 10m2.4-12.6c1.2 0 2.3 0 3.4.1 3 7.2 5.9 14.3 9.1 21.4-1.1 0-2.2 0-3.4 0-.8-2.2-1.7-4.3-2.5-6.4-3.4 0-6.7 0-10.1 0-.7 2.1-1.6 4.2-2.5 6.3h-3c3-7.1 6-14.3 9-21.4"/><path d="m59.7 38.7c1.6-2 3.6-3.6 6.3-3.6v2.6c-2.3.1-5 1-5.7 3.5-.8 3.3-.2 6.6-.4 10h-2.8c0-5.2 0-10.4 0-15.6h2.6z"/><path d="m69.2 42c3.4.1 6.8.1 10.3 0-.5-2.6-2.7-5-5.6-4.6-2.6-.1-4.2 2.3-4.7 4.6m-.7-4c2.7-3.4 8.5-3.8 11.4-.5 1.5 1.9 2.3 4.3 2.2 6.7-4.3 0-8.6 0-12.9 0 .3 1.3.4 2.8 1.5 3.7 2.5 2.5 7.4 1.9 8.7-1.6.6 0 1.9 0 2.5.1-1.5 5.4-9.1 6.7-12.9 3.1-3-3.1-3.2-8-.5-11.5"/><path d="m22.5 35.6c4.5 0 9-.1 13.4 0-.1 1.7-1.4 2.9-2.5 4.1-2.7 3-5.4 6.1-8 9.2 3.6.7 7.2-.4 10.8.4v1.9h-14.1v-2c3.3-3.8 6.8-7.4 9.9-11.3-3-.3-6.1 0-9.2-.2-.1-.5-.2-1.6-.3-2.1"/><path d="m38.7 35.6h2.8c.1 3.8-.2 7.7.1 11.6 1.4 4.1 8.5 2.2 8.5-1.9.1-3.2 0-6.5 0-9.7h2.7v15.6h-2.4c-.1-.5-.2-1.6-.2-2.1-2.2 2.5-5.8 3.2-8.8 1.8-1.9-.8-2.5-3-2.5-4.9-.3-3.5-.2-7-.2-10.4"/></g></svg>