<svg height="102.34" viewBox="0 0 102.34 102.34" width="102.34" xmlns="http://www.w3.org/2000/svg" xmlns:xlink="http://www.w3.org/1999/xlink"><clipPath id="a"><path d="m0 0h102.34v102.34h-102.34z"/></clipPath><g clip-path="url(#a)" stroke-miterlimit="10" stroke-width="3"><circle cx="49.67" cy="49.67" r="49.67" stroke="#fff" transform="translate(1.5 1.5)"/><g fill="none" stroke="#48d597"><path d="m0 0h26.001v56.024h-26.001z" transform="translate(38.264 23.999)"/><path d="m0 0h16.99v33.966h-16.99z" transform="translate(21.274 46.057)"/><path d="m0 0h11.358v8.166h-11.358z" transform="translate(26.906 37.891)"/><path d="m0 0h16.802v23.674h-16.802z" transform="translate(64.264 56.349)"/><path d="m0 0h16.99v8.26h-16.99z" transform="translate(42.3 15.739)"/><path d="m0 0h8.26v8.26h-8.26z" transform="translate(47.078 71.763)"/><path d="m0 0v6.758" transform="translate(43.802 29.077)"/><path d="m0 0v6.758" transform="translate(58.069 29.077)"/><path d="m0 0v6.758" transform="translate(53.563 29.077)"/><path d="m0 0v6.758" transform="translate(48.307 29.077)"/><path d="m0 0v6.758" transform="translate(68.16 62.179)"/><path d="m0 0v6.758" transform="translate(77.171 62.179)"/><path d="m0 0v6.758" transform="translate(72.665 62.179)"/><path d="m0 0v6.758" transform="translate(25.357 62.179)"/><path d="m0 0v6.758" transform="translate(34.368 62.179)"/><path d="m0 0v6.758" transform="translate(29.863 62.179)"/><path d="m0 0v6.758" transform="translate(25.357 50.164)"/><path d="m0 0v6.758" transform="translate(34.368 50.164)"/><path d="m0 0v6.758" transform="translate(29.863 50.164)"/><path d="m0 0v6.758" transform="translate(43.802 39.59)"/><path d="m0 0v6.758" transform="translate(58.069 39.59)"/><path d="m0 0v6.758" transform="translate(53.563 39.59)"/><path d="m0 0v6.758" transform="translate(48.307 39.59)"/><path d="m0 0v6.758" transform="translate(43.802 50.103)"/><path d="m0 0v6.758" transform="translate(58.069 50.103)"/><path d="m0 0v6.758" transform="translate(53.563 50.103)"/><path d="m0 0v6.758" transform="translate(48.307 50.103)"/></g></g></svg>