<svg height="52.543" viewBox="0 0 260.442 52.543" width="260.442" xmlns="http://www.w3.org/2000/svg"><path d="m673.718 418.289a26.571 26.571 0 0 0 6.373 6.375l8.705-15.081z" transform="translate(-669.011 -376.829)"/><path d="m680.09 389.263a26.415 26.415 0 0 0 -6.373 6.373l15.079 8.7z" transform="translate(-669.012 -384.556)"/><path d="m699.767 388.183a26.137 26.137 0 0 0 -8.707-2.33v17.411z" transform="translate(-662.417 -385.853)"/><path d="m681.311 426.384a26.209 26.209 0 0 0 8.708 2.333v-17.417z" transform="translate(-666.124 -376.175)"/><path d="m709.119 395.635a26.384 26.384 0 0 0 -6.374-6.371l-8.7 15.072z" transform="translate(-661.283 -384.556)"/><path d="m702.745 424.664a26.579 26.579 0 0 0 6.374-6.375l-15.08-8.705z" transform="translate(-661.283 -376.829)"/><path d="m713.171 405.563a26.315 26.315 0 0 0 -2.329-8.707l-15.082 8.707z" transform="translate(-660.629 -381.669)"/><path d="m670.308 406.6a26.227 26.227 0 0 0 2.327 8.7l15.085-8.7z" transform="translate(-670.308 -377.962)"/><path d="m672.635 396.856a26.355 26.355 0 0 0 -2.327 8.707h17.414z" transform="translate(-670.308 -381.669)"/><path d="m695.76 406.6 15.084 8.7a26.161 26.161 0 0 0 2.327-8.7z" transform="translate(-660.629 -377.962)"/><path d="m690.02 385.853a26.1 26.1 0 0 0 -8.708 2.33l8.708 15.081z" transform="translate(-666.123 -385.853)"/><path d="m691.061 428.717a26.214 26.214 0 0 0 8.707-2.333l-8.707-15.084z" transform="translate(-662.416 -376.175)"/><path d="m706.872 388.782c.508 0 1.216.086 1.216-.6 0-.507-.421-.574-.86-.574h-1v1.173zm-.643 2.036h-.464v-3.629h1.564c.945 0 1.266.353 1.266 1 0 .7-.491.963-1.122 1.013l1.079 1.612h-.522l-1.024-1.612h-.777zm3.387-1.8a2.669 2.669 0 1 0 -2.661 2.678 2.568 2.568 0 0 0 2.661-2.678m-5.843 0a3.175 3.175 0 1 1 3.182 3.184 3.181 3.181 0 0 1 -3.182-3.184" transform="translate(-657.582 -385.853)"/><path d="m734.628 402.494c-.17-2.316-2.651-3.859-5.133-3.859-5.973 0-7.079 5.467-7.079 9.729 0 5 1.514 9.72 6.781 9.72 2.576 0 4.925-1.275 5.325-3.851h3.524c-.335 4.058-4.428 6.733-9.151 6.733-7.144 0-9.99-5.829-9.99-12.6 0-5.935 2.609-12.845 10.722-12.612 4.658.135 8.153 2.415 8.518 6.741z" transform="translate(-651.828 -382.091)"/><path d="m746.485 408.412c.065-2.823-1.21-5-4.3-5-2.647 0-4.224 2.246-4.224 5zm-8.519 2.206c-.232 2.954.976 6 4.224 6 2.482 0 3.721-.969 4.1-3.418h3.35c-.5 3.823-3.452 5.73-7.477 5.73-5.4 0-7.543-3.817-7.543-8.78 0-4.928 2.479-9.055 7.808-9.055 5.032.1 7.411 3.286 7.411 7.941v1.58z" transform="translate(-645.854 -380.056)"/><path d="m751.129 404.08h.065a5.842 5.842 0 0 1 5.1-2.983c1.173 0 6.376.305 6.376 5.7v11.626h-3.188v-10.59c0-2.784-1.169-4.29-3.859-4.29a4.356 4.356 0 0 0 -3.081 1.242c-.469.465-1.343 1.209-1.343 4.493v9.148h-3.187v-16.826h3.122z" transform="translate(-640.761 -380.056)"/><path d="m763.071 402.721v-3.58l3.186-1.008v4.588h3.888v2.312h-3.888v10.8c0 1.2.939 1.774 2.081 1.774a7.271 7.271 0 0 0 1.67-.2v2.444c-.732.039-1.442.2-2.171.2a11.923 11.923 0 0 1 -2.148-.162 3.023 3.023 0 0 1 -1.879-1.111c-.571-.8-.74-.868-.74-3.115v-10.63h-2.882v-2.312z" transform="translate(-636.129 -381.183)"/><path d="m780.66 401.461h3.181v16.825h-3.112v-2.473h-.069a6.39 6.39 0 0 1 -5.767 2.98c-3.521 0-5.536-2.676-5.536-6.068v-11.264h3.188v9.956c0 2.921.668 5.064 3.721 5.064a4 4 0 0 0 3.759-2.414 12.491 12.491 0 0 0 .635-3.954z" transform="translate(-632.643 -379.918)"/><path d="m786.122 418.353h-3.186v-16.826h3.186v3.246h.07c.471-2.309 2.61-3.484 4.925-3.484.4 0 .741.037 1.106.037v3.016a3.96 3.96 0 0 0 -1.372-.163c-4.028.13-4.729 2.276-4.729 5.832z" transform="translate(-627.479 -379.983)"/><path d="m798.616 424.731h-3.259l2.551-6.507-7-16.763h3.547l5.268 13.277 5.371-13.277h3.406z" transform="translate(-624.449 -379.918)"/><path d="m805.385 420.321v-24.207h5.2v20.186h10.492v4.018z" transform="translate(-618.942 -381.951)"/><path d="m819.08 403.493h5.032v16.826h-5.032zm-.167-7.379h5.367v4.329h-5.367z" transform="translate(-613.798 -381.951)"/><path d="m831.169 403.543.062.1a5.743 5.743 0 0 1 5.169-2.543c1.674 0 4.929 1.235 5.531 3.688a11.566 11.566 0 0 1 .342 2.683v10.957h-5.035v-10.122c-.029-1.812-.537-3.852-3.017-3.852-1.576 0-2.95 1.407-3.016 3.852v10.119h-5.03v-16.825h5z" transform="translate(-611.038 -380.056)"/><path d="m846.386 410.306.064.061 4.965-7.071h5.6l-5.8 7.373 6.168 9.651h-5.865l-5.064-9.215-.064.068v9.147h-5.03v-24.205h5.026z" transform="translate(-605.262 -381.951)"/><path d="m857.5 404.247c.506 0 1.216.084 1.216-.6 0-.507-.424-.576-.86-.576h-1v1.175zm-.643 2.036h-.464v-3.631h1.564c.945 0 1.268.356 1.268 1 0 .7-.493.966-1.125 1.015l1.079 1.614h-.524l-1.021-1.614h-.777zm3.389-1.8a2.669 2.669 0 1 0 -2.661 2.678 2.568 2.568 0 0 0 2.661-2.678m-5.844 0a3.175 3.175 0 1 1 3.183 3.187 3.18 3.18 0 0 1 -3.183-3.187" transform="translate(-600.305 -379.972)"/></svg>