<svg height="319.223" viewBox="0 0 512.333 319.223" width="512.333" xmlns="http://www.w3.org/2000/svg"><path d="m1109.542 519.565a93.154 93.154 0 0 1 67.624-89.521c-.206-2.141-.275-4.255-.275-6.4a68.57 68.57 0 0 1 68.508-68.487 67.849 67.849 0 0 1 37.743 11.4 136.572 136.572 0 0 1 121.088-73.157c75.406 0 136.756 61.351 136.756 136.77v.254c45.333 5.3 80.888 44.353 80.888 90.791a91.516 91.516 0 0 1 -91.4 91.408h-327.863a93.143 93.143 0 0 1 -93.069-93.062" fill="#222" transform="translate(-1109.542 -293.405)"/></svg>