<svg height="102.34" viewBox="0 0 102.34 102.34" width="102.34" xmlns="http://www.w3.org/2000/svg" xmlns:xlink="http://www.w3.org/1999/xlink"><clipPath id="a"><path d="m0 0h102.34v102.34h-102.34z"/></clipPath><g clip-path="url(#a)" stroke-miterlimit="10"><g stroke-width="3"><circle cx="49.67" cy="49.67" r="49.67" stroke="#fff" transform="translate(1.5 1.5)"/><path d="m248.846 602.91h-36.646v-57.762h41.725v31.72" fill="none" stroke="#48d597" transform="translate(-188.988 -524.137)"/><path d="m237.718 598.011v-11.832h-10.9v11.832" fill="none" stroke="#48d597" transform="translate(-187.581 -520.187)"/><path d="m0 0h24.055" fill="none" stroke="#48d597" transform="translate(32.081 46.054)"/><path d="m0 0h24.055" fill="none" stroke="#48d597" transform="translate(32.081 53.619)"/><path d="m0 0h24.055" fill="none" stroke="#48d597" transform="translate(32.081 38.489)"/><path d="m0 0h24.055" fill="none" stroke="#48d597" transform="translate(32.081 30.924)"/></g><g fill="none" stroke="#48d597" transform="translate(59.309 54.365)"><circle cx="13.035" cy="13.035" r="13.035" stroke-width="3"/><path d="m.022 0-.022 17.102" stroke-width="3" transform="translate(13.062 4.724)"/><path d="m16.697 0h-16.697" stroke-width="3" transform="translate(4.82 13.022)"/><g stroke-width="2.6"><path d="m262.461 584.809 2.881 2.881-2.881 2.881" transform="translate(-243.459 -574.684)"/><path d="m251.877 590.57-2.877-2.88 2.881-2.881" transform="translate(-244.755 -574.684)"/><path d="m260.176 592.855-2.881 2.881-2.881-2.881" transform="translate(-244.234 -573.91)"/><path d="m254.414 582.271 2.881-2.881 2.881 2.881" transform="translate(-244.234 -575.206)"/></g></g></g></svg>