<?xml version="1.0" encoding="utf-8"?>
<!-- Generator: Adobe Illustrator 23.0.4, SVG Export Plug-In . SVG Version: 6.00 Build 0)  -->
<svg version="1.1" id="Group_1509" xmlns="http://www.w3.org/2000/svg" xmlns:xlink="http://www.w3.org/1999/xlink" x="0px" y="0px"
	 viewBox="0 0 150.1 66.6" style="enable-background:new 0 0 150.1 66.6;" xml:space="preserve">
<style type="text/css">
	.st0{fill:#FFFFFF;}
</style>
<g id="Group_1508" transform="translate(57.716 0)">
	<path id="Path_351" class="st0" d="M23.2,8.1h0.1H23.2l4.4-4.5l0-0.1C21.7-1.6,12.7-1.1,7.5,4.8C6,6.5,5,8.4,4.4,10.5
		c0.1,0,0.2-0.1,0.2-0.1c2.2-1.5,5-2,7.6-1.5c0,0,0.1,0,0.1,0C15.2,5.8,20,5.5,23.2,8.1L23.2,8.1z"/>
	<path id="Path_352" class="st0" d="M32,10.5c-0.7-2.7-2.2-5.1-4.3-7l-4.5,4.5c1.9,1.5,3,3.9,2.9,6.3v0.8c5.3,0,5.3,7.9,0,7.9h-7.9
		l0,0v6.3h0l0,0h7.9c5.7,0,10.4-4.5,10.4-10.3C36.6,15.7,34.9,12.5,32,10.5L32,10.5z"/>
	<path id="Path_353" class="st0" d="M10.3,29.4h7.9V23h-7.9c-0.6,0-1.1-0.1-1.6-0.4L4,27.3l0,0C5.8,28.7,8,29.4,10.3,29.4L10.3,29.4
		z"/>
	<path id="Path_354" class="st0" d="M10.3,8.8C4.6,8.8,0,13.4,0,19.2c0,3.2,1.5,6.2,4,8.1l4.6-4.6c-2-0.9-2.9-3.3-2-5.3
		c0.9-2,3.3-2.9,5.3-2c0.9,0.4,1.6,1.1,2,2l4.6-4.6C16.5,10.3,13.5,8.8,10.3,8.8L10.3,8.8z"/>
</g>
<path id="Path_355" class="st0" d="M10.5,60.7c-2.8,0-5.4-1.1-7.4-3c-4-3.9-4.1-10.3-0.2-14.3c0.1-0.1,0.2-0.2,0.2-0.2
	c1.9-2,4.6-3.1,7.4-3.1c2.6,0,5.2,1,7.1,2.8l-2,2c-1.4-1.3-3.2-2-5.1-2c-2,0-3.9,0.8-5.2,2.2c-2.9,2.9-2.9,7.6,0,10.5
	c2.9,2.9,7.5,2.9,10.4,0.1c0.9-1,1.4-2.2,1.5-3.5h-6.7v-2.9H20c0.1,0.6,0.1,1.2,0.1,1.7c0.1,2.4-0.8,4.8-2.4,6.6
	C15.8,59.7,13.1,60.7,10.5,60.7L10.5,60.7z M32.5,58.8c-2.6,2.5-6.8,2.5-9.4,0c-2.6-2.6-2.6-6.8,0-9.5c2.6-2.5,6.8-2.5,9.4,0
	C35.1,51.9,35,56.1,32.5,58.8L32.5,58.8z M25.1,56.9c1.4,1.5,3.7,1.5,5.1,0.2c0.1-0.1,0.1-0.1,0.2-0.2c1.5-1.6,1.5-4.1,0-5.8
	c-1.4-1.5-3.7-1.5-5.2-0.1c0,0-0.1,0.1-0.1,0.1C23.6,52.8,23.6,55.3,25.1,56.9L25.1,56.9z M47,58.8c-2.6,2.5-6.8,2.5-9.5,0
	c-2.6-2.6-2.6-6.8,0-9.5c2.6-2.5,6.8-2.5,9.5,0C49.6,51.9,49.6,56.1,47,58.8z M39.6,56.9c1.4,1.5,3.7,1.5,5.1,0.2
	c0.1-0.1,0.1-0.1,0.2-0.2c1.5-1.6,1.5-4.1,0-5.8c-1.4-1.5-3.7-1.5-5.2-0.1c0,0-0.1,0.1-0.1,0.1C38.1,52.8,38.1,55.3,39.6,56.9
	L39.6,56.9z M56.5,66.6c-1.3,0-2.6-0.4-3.7-1.2c-0.9-0.7-1.7-1.7-2.2-2.7l2.5-1.1c0.3,0.6,0.7,1.2,1.3,1.7c0.6,0.5,1.3,0.7,2.1,0.7
	c1,0.1,1.9-0.3,2.6-1c0.7-0.8,1-1.8,0.9-2.9v-1H60c-0.9,1-2.2,1.6-3.5,1.5c-1.7,0-3.3-0.7-4.5-1.9c-2.5-2.6-2.5-6.8,0-9.4
	c1.1-1.2,2.8-2,4.5-2c0.7,0,1.4,0.2,2.1,0.5c0.6,0.2,1,0.6,1.4,1.1h0.1v-1.1h2.8v11.9c0.1,1.9-0.5,3.8-1.8,5.2
	C59.9,66,58.2,66.7,56.5,66.6L56.5,66.6z M56.7,58c1,0,1.9-0.4,2.5-1.1c0.7-0.8,1.1-1.8,1-2.9c0-1.1-0.3-2.1-1-2.9
	c-0.6-0.7-1.6-1.1-2.5-1.1c-1,0-1.9,0.4-2.6,1.1C53.4,51.9,53,53,53,54c0,1.1,0.4,2.1,1.1,2.9C54.8,57.6,55.8,58.1,56.7,58z
	 M67.8,60.2h-2.9V40.7h2.9L67.8,60.2L67.8,60.2z M75.8,60.6c-1.8,0-3.5-0.6-4.7-1.9c-2.5-2.7-2.5-6.8-0.1-9.5
	c1.2-1.2,2.8-1.9,4.5-1.9c0.8,0,1.5,0.1,2.2,0.4c0.6,0.3,1.2,0.6,1.7,1.1c0.8,0.7,1.4,1.6,1.8,2.7l0.3,0.8L72.6,56
	c0.6,1.3,1.8,2.1,3.2,2c1.3,0,2.6-0.7,3.3-1.8l2.2,1.5c-0.6,0.8-1.3,1.5-2.1,2C78.1,60.3,77,60.7,75.8,60.6L75.8,60.6z M72,53.8
	l5.9-2.5c-0.2-0.4-0.5-0.8-0.9-1c-0.5-0.3-1-0.4-1.5-0.4c-0.9,0-1.8,0.4-2.4,1.1C72.4,51.7,72,52.8,72,53.8L72,53.8z"/>
<path id="Path_356" class="st0" d="M96.7,60.7c-5.2,0-9.4-4.2-9.4-9.4c0-5.2,4.2-9.4,9.4-9.4c2.5-0.1,5,1,6.6,2.9l-1.6,1.6
	c-1.2-1.5-3.1-2.4-5-2.3c-1.9,0-3.7,0.7-5,2c-2.7,2.9-2.7,7.5,0,10.4c1.3,1.3,3.1,2,5,2c2.2,0,4.2-0.9,5.6-2.6l1.6,1.6
	c-0.8,1-1.9,1.8-3.1,2.4C99.6,60.4,98.1,60.7,96.7,60.7L96.7,60.7z"/>
<path id="Path_357" class="st0" d="M105.9,60.3h2.3v-18h-2.3V60.3z"/>
<path id="Path_358" class="st0" d="M112,49.4c2.6-2.5,6.7-2.5,9.2,0.1c2.5,2.6,2.5,6.7-0.1,9.2c-2.5,2.5-6.6,2.5-9.1,0
	C109.6,56.1,109.6,52.1,112,49.4z M113.7,57.3c1.5,1.6,4,1.6,5.5,0.1c0,0,0.1-0.1,0.1-0.1c1.6-1.9,1.6-4.6,0-6.5
	c-1.5-1.6-4-1.6-5.5-0.1c0,0-0.1,0.1-0.1,0.1C112.1,52.7,112.2,55.5,113.7,57.3L113.7,57.3z"/>
<path id="Path_359" class="st0" d="M135.7,60.3h-2.2v-1.7h-0.1c-0.4,0.6-1,1.2-1.6,1.5c-0.7,0.4-1.5,0.6-2.3,0.6
	c-1.3,0.1-2.6-0.4-3.5-1.4c-0.8-1.1-1.3-2.4-1.2-3.8v-7.6h2.3v7.2c0,2.3,1,3.4,3,3.4c0.9,0,1.8-0.4,2.3-1.1c0.6-0.8,0.9-1.7,0.9-2.7
	v-6.8h2.3L135.7,60.3L135.7,60.3z"/>
<path id="Path_360" class="st0" d="M143.5,60.7c-1.6,0-3.1-0.7-4.1-1.9c-2.3-2.7-2.3-6.7,0-9.3c1-1.2,2.5-1.9,4.1-1.9
	c0.9,0,1.7,0.2,2.5,0.6c0.7,0.3,1.3,0.9,1.7,1.5h0.1l-0.1-1.7v-5.7h2.3v18h-2.2v-1.7h-0.1c-0.4,0.6-1,1.2-1.7,1.5
	C145.3,60.5,144.4,60.7,143.5,60.7L143.5,60.7z M143.9,58.5c1.1,0,2.1-0.4,2.8-1.2c1.5-1.9,1.5-4.6,0-6.5c-1.4-1.5-3.8-1.7-5.3-0.2
	c-0.1,0.1-0.2,0.2-0.2,0.2c-1.5,1.9-1.5,4.6,0,6.5C141.8,58.1,142.9,58.6,143.9,58.5L143.9,58.5z"/>
</svg>
