<svg enable-background="new 0 0 138.9 47.4" viewBox="0 0 138.9 47.4" xmlns="http://www.w3.org/2000/svg"><g fill="#fff"><path d="m57.8 11.3h8.8l-4.6-7.5-8.6 13.6h-3.9l10.4-16.3c.8-1.1 2.4-1.4 3.5-.6.3.1.5.3.6.5l10.5 16.4h-3.9l-1.8-3h-9z"/><path d="m98.4 14.4v-14.2h-3.3v15.6c0 .4.2.8.5 1.1s.8.5 1.2.5h15.1l2-3z"/><path d="m43.6 11.8c3.2 0 5.8-2.7 5.8-5.9s-2.6-5.7-5.8-5.8h-14.6v17.3h3.3v-14.2h11c1.5 0 2.8 1.3 2.7 2.8 0 1.5-1.2 2.7-2.7 2.7h-9.4l9.9 8.6h4.8l-6.6-5.5z"/><path d="m8.6 17.4c-4.7 0-8.6-3.8-8.6-8.6s3.9-8.6 8.6-8.6h10c4.8 0 8.6 3.9 8.6 8.6 0 4.8-3.9 8.6-8.6 8.6zm9.8-3c3.1 0 5.6-2.5 5.6-5.6s-2.5-5.6-5.6-5.6h-9.5c-3.1 0-5.6 2.5-5.6 5.6s2.5 5.6 5.6 5.6z"/><path d="m81.4 17.4c-4.8 0-8.6-3.9-8.6-8.6 0-4.8 3.9-8.6 8.6-8.6h11.9l-2 3h-9.7c-3.1 0-5.6 2.5-5.6 5.6s2.5 5.6 5.6 5.6h11.9l-1.9 3z"/><path d="m122 14.4c-2.5 0-4.7-1.7-5.4-4.1h14.2l2-3h-16.1c.7-2.4 2.9-4.1 5.4-4.1h9.7l1.9-3h-11.9c-4.8 0-8.6 3.9-8.6 8.6 0 4.8 3.9 8.6 8.6 8.6h10.2l1.9-3z"/><path d="m135.4 2c0-.8.7-1.5 1.5-1.5s1.5.7 1.5 1.5-.7 1.5-1.5 1.5c-.8 0-1.4-.6-1.5-1.5zm1.6 1.9c1.1 0 1.9-.9 1.9-1.9 0-1.1-.9-1.9-1.9-1.9-1.1 0-1.9.9-1.9 1.9-.1 1.1.8 1.9 1.9 1.9zm-.2-3c.2 0 .4 0 .6.1.3.1.4.3.4.6v.2c0 .2-.1.3-.3.4 0 0-.1 0-.1.1l.5.9h-.5l-.4-1h-.3v.8h-.4v-2.1zm.1.9c.1 0 .3 0 .4-.1 0 0 .1-.1.1-.2s-.1-.2-.2-.3c-.1 0-.3-.1-.4 0h-.1v.6z"/><path d="m.001 26.173h133.9v1h-133.9z"/><g transform="translate(39.757 35.645)"><path d="m6.9 3.9c0-.4-.2-2-1.8-2-1.8 0-2.5 1.9-2.5 4.2 0 .7 0 3.9 2.3 3.9 1.1 0 2-.8 2-1.9 0-.1 0-.1 0-.2h2.5c0 1-.3 1.9-1 2.6-.9.9-2.1 1.3-3.3 1.3-3.8-.1-5.1-2.9-5.1-5.7 0-3.6 2-5.9 5.1-5.9 2.5 0 4.2 1.5 4.2 3.7z"/><path d="m11.7.3h2.5v9.3h4.8v1.9h-7.3z"/><path d="m25.2 0c1.5-.1 2.9.5 4 1.5 1 1.2 1.5 2.7 1.4 4.2 0 1.6-.5 3.1-1.4 4.4-1.1 1.1-2.5 1.7-4 1.6-1.5.1-2.9-.5-4-1.5-1-1.2-1.5-2.7-1.4-4.2.1-3 1.4-6 5.4-6zm-2 9.1c.5.6 1.2 1 2 .9.8.1 1.6-.3 2.1-1 .6-1 .8-2.1.8-3.2 0-.7-.1-1.4-.3-2-.3-1.2-1.4-2-2.6-2-.8 0-1.6.3-2.1 1-1 1.9-1 4.3.1 6.3z"/><path d="m35 .3v6.8c0 1.2.1 2.8 2.4 2.8.8.1 1.7-.3 2.2-1 .3-.6.4-1.3.4-1.9v-6.7h2.3v7c0 3.3-2.7 4.4-4.9 4.4-1.6.1-3.2-.6-4.2-1.9-.5-.8-.7-1.8-.6-2.8v-6.7z"/><path d="m45.2.3h3.7c1.4-.1 2.7.3 3.9 1 1.3 1.1 2 2.7 1.9 4.4 0 3.5-1.9 5.3-4 5.6-.7.1-1.3.1-2 .1h-3.5zm2.4 9.3h.9c.9.1 1.9-.2 2.6-.8.7-.9 1.1-2 1-3.2 0-1.6-.5-3-2.1-3.5-.8-.2-1.7-.2-2.5-.2z"/></g></g></svg>