<?xml version="1.0" encoding="utf-8"?>
<!-- Generator: Adobe Illustrator 23.0.4, SVG Export Plug-In . SVG Version: 6.00 Build 0)  -->
<svg version="1.1" id="Group_1516" xmlns="http://www.w3.org/2000/svg" xmlns:xlink="http://www.w3.org/1999/xlink" x="0px" y="0px"
	 viewBox="0 0 138.9 47.4" style="enable-background:new 0 0 138.9 47.4;" xml:space="preserve">
<style type="text/css">
	.st0{fill:#FFFFFF;}
</style>
<g id="Group_1512">
	<g id="Group_1511">
		<path id="Path_375" class="st0" d="M57.8,11.3h8.8L62,3.8l-8.6,13.6h-3.9L59.9,1.1c0.8-1.1,2.4-1.4,3.5-0.6
			C63.7,0.6,63.9,0.8,64,1l10.5,16.4h-3.9l-1.8-3h-9L57.8,11.3"/>
		<path id="Path_376" class="st0" d="M98.4,14.4V0.2h-3.3v15.6c0,0.4,0.2,0.8,0.5,1.1c0.3,0.3,0.8,0.5,1.2,0.5h15.1l2-3L98.4,14.4"
			/>
		<path id="Path_377" class="st0" d="M43.6,11.8c3.2,0,5.8-2.7,5.8-5.9c0-3.2-2.6-5.7-5.8-5.8H29v17.3h3.3V3.2h11
			c1.5,0,2.8,1.3,2.7,2.8c0,1.5-1.2,2.7-2.7,2.7l-9.4,0l9.9,8.6h4.8L42,11.8L43.6,11.8"/>
		<path id="Path_378" class="st0" d="M8.6,17.4C3.9,17.4,0,13.6,0,8.8C0,4,3.9,0.2,8.6,0.2h10c4.8,0,8.6,3.9,8.6,8.6
			c0,4.8-3.9,8.6-8.6,8.6H8.6 M18.4,14.4c3.1,0,5.6-2.5,5.6-5.6c0-3.1-2.5-5.6-5.6-5.6H8.9c-3.1,0-5.6,2.5-5.6,5.6
			c0,3.1,2.5,5.6,5.6,5.6H18.4"/>
		<path id="Path_379" class="st0" d="M81.4,17.4c-4.8,0-8.6-3.9-8.6-8.6c0-4.8,3.9-8.6,8.6-8.6h11.9l-2,3h-9.7
			c-3.1,0-5.6,2.5-5.6,5.6c0,3.1,2.5,5.6,5.6,5.6c0,0,0,0,0,0h11.9l-1.9,3H81.4"/>
		<path id="Path_380" class="st0" d="M122,14.4c-2.5,0-4.7-1.7-5.4-4.1h14.2l2-3h-16.1c0.7-2.4,2.9-4.1,5.4-4.1h9.7l1.9-3h-11.9
			c-4.8,0-8.6,3.9-8.6,8.6c0,4.8,3.9,8.6,8.6,8.6H132l1.9-3H122"/>
		<path id="Path_381" class="st0" d="M135.4,2c0-0.8,0.7-1.5,1.5-1.5c0.8,0,1.5,0.7,1.5,1.5c0,0.8-0.7,1.5-1.5,1.5c0,0,0,0,0,0
			C136.1,3.5,135.5,2.9,135.4,2C135.4,2,135.4,2,135.4,2 M137,3.9c1.1,0,1.9-0.9,1.9-1.9c0-1.1-0.9-1.9-1.9-1.9
			c-1.1,0-1.9,0.9-1.9,1.9C135,3.1,135.9,3.9,137,3.9C137,3.9,137,3.9,137,3.9 M136.8,0.9c0.2,0,0.4,0,0.6,0.1
			c0.3,0.1,0.4,0.3,0.4,0.6c0,0,0,0.1,0,0.2c0,0.2-0.1,0.3-0.3,0.4c0,0-0.1,0-0.1,0.1l0.5,0.9h-0.5L137,2.2h-0.3V3h-0.4V0.9
			L136.8,0.9 M136.9,1.8c0.1,0,0.3,0,0.4-0.1c0,0,0.1-0.1,0.1-0.2c0-0.1-0.1-0.2-0.2-0.3c-0.1,0-0.3-0.1-0.4,0h-0.1v0.6L136.9,1.8"
			/>
	</g>
</g>
<g id="Group_1514" transform="translate(0.001 26.173)">
	<g id="Group_1513">
		<rect id="Rectangle_350" x="0" y="0" class="st0" width="133.9" height="1"/>
	</g>
</g>
<g id="Group_1515" transform="translate(39.757 35.645)">
	<path id="Path_382" class="st0" d="M6.9,3.9c0-0.4-0.2-2-1.8-2c-1.8,0-2.5,1.9-2.5,4.2c0,0.7,0,3.9,2.3,3.9c1.1,0,2-0.8,2-1.9
		c0-0.1,0-0.1,0-0.2h2.5c0,1-0.3,1.9-1,2.6c-0.9,0.9-2.1,1.3-3.3,1.3C1.3,11.7,0,8.9,0,6.1c0-3.6,2-5.9,5.1-5.9
		c2.5,0,4.2,1.5,4.2,3.7L6.9,3.9z"/>
	<path id="Path_383" class="st0" d="M11.7,0.3h2.5v9.3H19v1.9h-7.3V0.3z"/>
	<path id="Path_384" class="st0" d="M25.2,0c1.5-0.1,2.9,0.5,4,1.5c1,1.2,1.5,2.7,1.4,4.2c0,1.6-0.5,3.1-1.4,4.4
		c-1.1,1.1-2.5,1.7-4,1.6c-1.5,0.1-2.9-0.5-4-1.5c-1-1.2-1.5-2.7-1.4-4.2C19.9,3,21.2,0,25.2,0z M23.2,9.1c0.5,0.6,1.2,1,2,0.9
		c0.8,0.1,1.6-0.3,2.1-1c0.6-1,0.8-2.1,0.8-3.2c0-0.7-0.1-1.4-0.3-2c-0.3-1.2-1.4-2-2.6-2c-0.8,0-1.6,0.3-2.1,1
		C22.1,4.7,22.1,7.1,23.2,9.1L23.2,9.1z"/>
	<path id="Path_385" class="st0" d="M35,0.3v6.8c0,1.2,0.1,2.8,2.4,2.8c0.8,0.1,1.7-0.3,2.2-1C39.9,8.3,40,7.6,40,7V0.3h2.3v7
		c0,3.3-2.7,4.4-4.9,4.4c-1.6,0.1-3.2-0.6-4.2-1.9c-0.5-0.8-0.7-1.8-0.6-2.8V0.3H35L35,0.3z"/>
	<path id="Path_386" class="st0" d="M45.2,0.3l3.7,0c1.4-0.1,2.7,0.3,3.9,1c1.3,1.1,2,2.7,1.9,4.4c0,3.5-1.9,5.3-4,5.6
		c-0.7,0.1-1.3,0.1-2,0.1h-3.5L45.2,0.3L45.2,0.3z M47.6,9.6c0.3,0,0.7,0,0.9,0c0.9,0.1,1.9-0.2,2.6-0.8c0.7-0.9,1.1-2,1-3.2
		c0-1.6-0.5-3-2.1-3.5c-0.8-0.2-1.7-0.2-2.5-0.2L47.6,9.6L47.6,9.6z"/>
</g>
</svg>
